<?xml version="1.0" encoding="UTF-8"?>
<svg id="Layer_1" xmlns="http://www.w3.org/2000/svg" viewBox="0 0 32.2 32.2">
  <defs>
    <style>
      .cls-1 {
        fill: #0993db;
      }

      .cls-2 {
        fill: #ff0302;
      }

      .cls-3 {
        fill: #fff;
      }

      .cls-4 {
        fill: #191994;
      }

      .cls-5 {
        fill: #f6da24;
      }

      .cls-6 {
        fill: none;
        stroke: #114b63;
        stroke-miterlimit: 10;
      }
    </style>
  </defs>
  <g>
    <g>
      <path class="cls-2" d="M30.4,11.04H1.8C3.33,6.74,6.74,3.33,11.04,1.8c1.58-.56,3.29-.87,5.06-.87s3.48.31,5.06.87c4.3,1.53,7.72,4.94,9.24,9.24Z"/>
      <path class="cls-4" d="M30.4,21.16c-1.53,4.3-4.94,7.72-9.24,9.24-1.58.56-3.28.87-5.06.87s-3.47-.31-5.06-.87c-4.3-1.53-7.72-4.94-9.24-9.24h28.6Z"/>
      <path class="cls-3" d="M31.27,16.1c0,1.77-.3,3.47-.87,5.06H1.8c-.56-1.58-.87-3.29-.87-5.06s.31-3.47.87-5.06h28.6c.57,1.58.87,3.29.87,5.06Z"/>
    </g>
    <g>
      <g>
        <path class="cls-2" d="M10.53,11.37v6.68c0,.22.01.45.04.67.06.52.19,1.02.4,1.5.14.33.31.64.51.94,0,0,0,0,0,.01h1.28v-4.9h4.46v-2.45h4.46v-2.45h-11.15ZM10.53,11.37v6.68c0,.22.01.45.04.67.06.52.19,1.02.4,1.5.14.33.31.64.51.94,0,0,0,0,0,.01.2.29.43.57.68.82.19.19.39.36.6.52.36.27.75.5,1.17.67.34.15.7.26,1.06.33v-2.34h-2.23v-4.9h4.46v-2.45h4.46v-2.45h-11.15ZM15.94,23.62h.32-.32ZM10.53,11.37v6.68c0,.22.01.45.04.67.06.52.19,1.02.4,1.5.14.33.31.64.51.94,0,0,0,0,0,.01.2.29.43.57.68.82.19.19.39.36.6.52.36.27.75.5,1.17.67.34.15.7.26,1.06.33.31.06.63.1.95.11h.32c.32-.01.64-.05.96-.11v-2.34h-4.46v-4.9h4.46v-2.45h4.46v-2.45h-11.15ZM10.53,11.37v6.68c0,.22.01.45.04.67.06.52.19,1.02.4,1.5.14.33.31.64.51.94,0,0,0,0,0,.01.2.29.43.57.68.82.19.19.39.36.6.52.36.27.75.5,1.17.67.34.15.7.26,1.06.33.31.06.63.1.95.11h.32c.32-.01.64-.05.96-.11.36-.07.71-.18,1.05-.33.42-.18.81-.4,1.17-.67.21-.16.41-.33.6-.52.26-.25.48-.53.68-.82,0,0,0-.01.01-.01.2-.3.37-.61.51-.94.2-.48.34-.98.4-1.5.03-.22.04-.44.04-.67v-6.68h-11.15ZM10.53,11.37v6.68c0,.22.01.45.04.67.06.52.19,1.02.4,1.5.14.33.31.64.51.94,0,0,0,0,0,.01.2.29.43.57.68.82.19.19.39.36.6.52.36.27.75.5,1.17.67.34.15.7.26,1.06.33.31.06.63.1.95.11h.32c.32-.01.64-.05.96-.11.36-.07.71-.18,1.05-.33.42-.18.81-.4,1.17-.67.21-.16.41-.33.6-.52.26-.25.48-.53.68-.82,0,0,0-.01.01-.01.2-.3.37-.61.51-.94.2-.48.34-.98.4-1.5.03-.22.04-.44.04-.67v-6.68h-11.15ZM10.53,11.37v6.68c0,.22.01.45.04.67.06.52.19,1.02.4,1.5.14.33.31.64.51.94,0,0,0,0,0,.01.2.29.43.57.68.82.19.19.39.36.6.52.36.27.75.5,1.17.67.34.15.7.26,1.06.33.31.06.63.1.95.11h.32c.32-.01.64-.05.96-.11.36-.07.71-.18,1.05-.33.42-.18.81-.4,1.17-.67.21-.16.41-.33.6-.52.26-.25.48-.53.68-.82,0,0,0-.01.01-.01.2-.3.37-.61.51-.94.2-.48.34-.98.4-1.5.03-.22.04-.44.04-.67v-6.68h-11.15ZM10.53,11.37v6.68c0,.22.01.45.04.67.06.52.19,1.02.4,1.5.14.33.31.64.51.94,0,0,0,0,0,.01.2.29.43.57.68.82.19.19.39.36.6.52.36.27.75.5,1.17.67.34.15.7.26,1.06.33.31.06.63.1.95.11h.32c.32-.01.64-.05.96-.11.36-.07.71-.18,1.05-.33.42-.18.81-.4,1.17-.67.21-.16.41-.33.6-.52.26-.25.48-.53.68-.82,0,0,0-.01.01-.01.2-.3.37-.61.51-.94.2-.48.34-.98.4-1.5.03-.22.04-.44.04-.67v-6.68h-11.15ZM10.53,11.37v6.68c0,.22.01.45.04.67.06.52.19,1.02.4,1.5.14.33.31.64.51.94,0,0,0,0,0,.01.2.29.43.57.68.82.19.19.39.36.6.52.36.27.75.5,1.17.67.34.15.7.26,1.06.33.31.06.63.1.95.11h.32c.32-.01.64-.05.96-.11.36-.07.71-.18,1.05-.33.42-.18.81-.4,1.17-.67.21-.16.41-.33.6-.52.26-.25.48-.53.68-.82,0,0,0-.01.01-.01.2-.3.37-.61.51-.94.2-.48.34-.98.4-1.5.03-.22.04-.44.04-.67v-6.68h-11.15ZM10.53,11.37v6.68c0,.22.01.45.04.67.06.52.19,1.02.4,1.5.14.33.31.64.51.94,0,0,0,0,0,.01.2.29.43.57.68.82.19.19.39.36.6.52.36.27.75.5,1.17.67.34.15.7.26,1.06.33.31.06.63.1.95.11h.32c.32-.01.64-.05.96-.11.36-.07.71-.18,1.05-.33.42-.18.81-.4,1.17-.67.21-.16.41-.33.6-.52.26-.25.48-.53.68-.82,0,0,0-.01.01-.01.2-.3.37-.61.51-.94.2-.48.34-.98.4-1.5.03-.22.04-.44.04-.67v-6.68h-11.15ZM10.53,11.37v6.68c0,.22.01.45.04.67.06.52.19,1.02.4,1.5.14.33.31.64.51.94,0,0,0,0,0,.01.2.29.43.57.68.82.19.19.39.36.6.52.36.27.75.5,1.17.67.34.15.7.26,1.06.33.31.06.63.1.95.11h.32c.32-.01.64-.05.96-.11.36-.07.71-.18,1.05-.33.42-.18.81-.4,1.17-.67.21-.16.41-.33.6-.52.26-.25.48-.53.68-.82,0,0,0-.01.01-.01.2-.3.37-.61.51-.94.2-.48.34-.98.4-1.5.03-.22.04-.44.04-.67v-6.68h-11.15ZM10.53,11.37v6.68c0,.22.01.45.04.67.06.52.19,1.02.4,1.5.14.33.31.64.51.94,0,0,0,0,0,.01.2.29.43.57.68.82.19.19.39.36.6.52.36.27.75.5,1.17.67.34.15.7.26,1.06.33.31.06.63.1.95.11h.32c.32-.01.64-.05.96-.11.36-.07.71-.18,1.05-.33.42-.18.81-.4,1.17-.67.21-.16.41-.33.6-.52.26-.25.48-.53.68-.82,0,0,0-.01.01-.01.2-.3.37-.61.51-.94.2-.48.34-.98.4-1.5.03-.22.04-.44.04-.67v-6.68h-11.15ZM10.53,11.37v6.68c0,.22.01.45.04.67.06.52.19,1.02.4,1.5.14.33.31.64.51.94,0,0,0,0,0,.01.2.29.43.57.68.82.19.19.39.36.6.52.36.27.75.5,1.17.67.34.15.7.26,1.06.33.31.06.63.1.95.11h.32c.32-.01.64-.05.96-.11.36-.07.71-.18,1.05-.33.42-.18.81-.4,1.17-.67.21-.16.41-.33.6-.52.26-.25.48-.53.68-.82,0,0,0-.01.01-.01.2-.3.37-.61.51-.94.2-.48.34-.98.4-1.5.03-.22.04-.44.04-.67v-6.68h-11.15ZM10.53,11.37v6.68c0,.22.01.45.04.67.06.52.19,1.02.4,1.5.14.33.31.64.51.94,0,0,0,0,0,.01.2.29.43.57.68.82.19.19.39.36.6.52.36.27.75.5,1.17.67.34.15.7.26,1.06.33.31.06.63.1.95.11h.32c.32-.01.64-.05.96-.11v-2.34h-4.46v-4.9h4.46v-2.45h4.46v-2.45h-11.15ZM10.53,11.37v6.68c0,.22.01.45.04.67.06.52.19,1.02.4,1.5.14.33.31.64.51.94,0,0,0,0,0,.01.2.29.43.57.68.82.19.19.39.36.6.52v-6.24h4.46v-2.45h4.46v-2.45h-11.15ZM10.53,11.37v6.68c0,.22.01.45.04.67h2.19v-2.45h4.46v-2.45h4.46v-2.45h-11.15Z"/>
        <path class="cls-2" d="M10.2,11.04v7.01c0,.68.12,1.33.33,1.94.14.41.33.8.56,1.16,0,0,0,0,0,.01.43.69,1,1.28,1.67,1.74.43.29.89.53,1.39.71.61.21,1.27.33,1.95.33s1.34-.12,1.95-.33c.5-.18.97-.42,1.39-.71.67-.46,1.24-1.06,1.67-1.74,0,0,0-.01,0-.01.23-.36.41-.75.56-1.16.21-.61.33-1.26.33-1.94v-7.01h-11.8ZM21.89,18.05c0,.54-.07,1.07-.22,1.58-.07.22-.15.45-.24.67-.13.3-.28.58-.45.85,0,0,0,0,0,.01-.23.35-.49.68-.79.98-.23.23-.48.44-.75.63-.34.24-.7.44-1.09.61-.22.09-.44.17-.66.23-.51.15-1.05.22-1.59.22s-1.07-.07-1.59-.22c-.22-.06-.45-.14-.67-.23-.38-.16-.75-.37-1.09-.61-.27-.19-.52-.4-.75-.63-.3-.3-.56-.63-.79-.98,0,0,0-.01,0-.01-.17-.27-.32-.56-.45-.85-.09-.22-.17-.45-.24-.67-.14-.51-.22-1.04-.22-1.58v-6.9h11.58v6.9Z"/>
        <path class="cls-3" d="M10.31,11.15v6.9c0,.54.07,1.07.22,1.58.06.22.15.45.24.67.13.3.27.58.45.85,0,0,0,0,0,.01.22.35.49.68.79.98.24.23.49.44.75.63.34.24.7.44,1.09.61.22.09.44.17.67.23.51.15,1.05.22,1.59.22s1.08-.07,1.59-.22c.22-.06.45-.14.66-.23.39-.16.75-.37,1.09-.61.27-.19.52-.4.75-.63.3-.3.56-.63.79-.98,0,0,0-.01,0-.01.17-.27.32-.56.45-.85.09-.22.17-.45.24-.67.14-.51.22-1.04.22-1.58v-6.9h-11.58ZM21.68,18.05c0,.22-.01.45-.04.67-.06.52-.19,1.02-.4,1.5-.14.33-.31.64-.51.94,0,0,0,0-.01.01-.2.29-.42.57-.68.82-.19.19-.39.36-.6.52-.36.27-.76.5-1.17.67-.34.15-.69.26-1.05.33-.31.06-.63.1-.96.11h-.32c-.32-.01-.64-.05-.95-.11-.36-.07-.71-.18-1.06-.33-.42-.18-.81-.4-1.17-.67-.21-.16-.41-.33-.6-.52-.25-.25-.48-.53-.68-.82,0,0,0-.01,0-.01-.2-.3-.37-.61-.51-.94-.2-.48-.34-.98-.4-1.5-.03-.22-.04-.44-.04-.67v-6.68h11.15v6.68Z"/>
        <path class="cls-3" d="M21.67,11.37v6.68c0,.22-.01.45-.04.67-.06.52-.19,1.02-.4,1.5-.14.33-.31.65-.51.95-.2.29-.43.57-.68.82-.19.19-.39.36-.6.52-.36.27-.76.5-1.17.68-.34.14-.69.25-1.05.33-.31.06-.63.1-.96.11h-.32c-.32-.01-.64-.05-.95-.11-.36-.07-.71-.18-1.05-.33-.42-.18-.81-.41-1.17-.68-.21-.16-.41-.33-.6-.52-.25-.25-.48-.53-.68-.82-.2-.3-.37-.62-.51-.95-.2-.48-.34-.98-.4-1.5-.03-.22-.04-.44-.04-.67v-6.68h11.14Z"/>
        <path class="cls-3" d="M21.67,11.37v6.68c0,.22-.01.45-.04.67-.06.52-.19,1.02-.4,1.5-.14.33-.31.65-.51.95-.2.29-.43.57-.68.82-.19.19-.39.36-.6.52-.36.27-.76.5-1.17.68-.34.14-.69.25-1.05.33-.31.06-.63.1-.96.11h-.32c-.32-.01-.64-.05-.95-.11-.36-.07-.71-.18-1.05-.33-.42-.18-.81-.41-1.17-.68-.21-.16-.41-.33-.6-.52-.25-.25-.48-.53-.68-.82-.2-.3-.37-.62-.51-.95-.2-.48-.34-.98-.4-1.5-.03-.22-.04-.44-.04-.67v-6.68h11.14Z"/>
        <g>
          <rect class="cls-2" x="10.53" y="11.37" width="2.23" height="2.45"/>
          <rect class="cls-3" x="12.76" y="11.37" width="2.23" height="2.45"/>
          <rect class="cls-2" x="14.99" y="11.37" width="2.23" height="2.45"/>
          <rect class="cls-3" x="17.22" y="11.37" width="2.23" height="2.45"/>
          <rect class="cls-2" x="19.45" y="11.37" width="2.23" height="2.45"/>
        </g>
        <g>
          <rect class="cls-3" x="10.53" y="13.82" width="2.23" height="2.45"/>
          <rect class="cls-2" x="12.76" y="13.82" width="2.23" height="2.45"/>
          <rect class="cls-3" x="14.99" y="13.82" width="2.23" height="2.45"/>
          <rect class="cls-2" x="17.22" y="13.82" width="2.23" height="2.45"/>
          <rect class="cls-3" x="19.45" y="13.82" width="2.23" height="2.45"/>
        </g>
        <g>
          <path class="cls-2" d="M12.76,16.27v2.45h-2.19c-.03-.22-.04-.44-.04-.67v-1.78h2.23Z"/>
          <rect class="cls-3" x="12.76" y="16.27" width="2.23" height="2.45"/>
          <rect class="cls-2" x="14.99" y="16.27" width="2.23" height="2.45"/>
          <rect class="cls-3" x="17.22" y="16.27" width="2.23" height="2.45"/>
          <path class="cls-2" d="M21.67,16.27v1.78c0,.22-.01.45-.04.67h-2.19v-2.45h2.23Z"/>
        </g>
        <g>
          <path class="cls-3" d="M12.76,18.72v2.45h-1.28c-.2-.3-.37-.62-.51-.95-.2-.48-.34-.98-.4-1.5h2.19Z"/>
          <rect class="cls-2" x="12.76" y="18.72" width="2.23" height="2.45"/>
          <rect class="cls-3" x="14.99" y="18.72" width="2.23" height="2.45"/>
          <rect class="cls-2" x="17.22" y="18.72" width="2.23" height="2.45"/>
          <path class="cls-3" d="M21.63,18.72c-.06.52-.19,1.02-.4,1.5-.14.33-.31.65-.51.95h-1.28v-2.45h2.19Z"/>
        </g>
        <g>
          <path class="cls-2" d="M12.76,21.17v1.34c-.21-.16-.41-.33-.6-.52-.25-.25-.48-.53-.68-.82h1.28Z"/>
          <path class="cls-3" d="M14.99,21.17v2.34c-.36-.07-.71-.18-1.05-.33-.42-.18-.81-.41-1.17-.68v-1.34h2.23Z"/>
          <path class="cls-2" d="M17.22,21.17v2.34c-.31.06-.63.1-.96.11h-.32c-.32-.01-.64-.05-.95-.11v-2.34h2.23Z"/>
          <path class="cls-3" d="M19.45,21.17v1.34c-.36.27-.76.5-1.17.68-.34.14-.69.25-1.05.33v-2.34h2.23Z"/>
          <path class="cls-2" d="M20.72,21.17c-.2.29-.43.57-.68.82-.19.19-.39.36-.6.52v-1.34h1.28Z"/>
        </g>
      </g>
      <g>
        <g>
          <g>
            <path class="cls-3" d="M20.14,8.25l-.16-.02-.05.2.13.02c.77.12,1.52.36,2.22.71l.11.05.08-.19-.13-.07c-.69-.34-1.43-.58-2.19-.7Z"/>
            <path class="cls-1" d="M22.01,6.15l-1.7.66-.33,1.41.16.02c.76.12,1.5.35,2.19.7l.13.07.54-1.34-1-1.52Z"/>
            <path class="cls-1" d="M19.77,9.18h-.01s-.23.96-.23.96c.39.1.76.21,1.12.33.38.13.73.27,1.06.41l.38-.95h0c-.73-.37-1.51-.63-2.32-.74Z"/>
            <path class="cls-2" d="M20.06,8.44l-.13-.02-.13.56h.04c.8.12,1.57.37,2.3.74l.03.02.21-.53-.11-.05c-.7-.35-1.45-.59-2.22-.71Z"/>
            <path class="cls-3" d="M19.85,8.98h-.04s-.05.19-.05.19h.01c.81.12,1.6.37,2.32.75h0l.08-.19-.03-.02c-.72-.37-1.49-.62-2.3-.73Z"/>
          </g>
          <g>
            <polygon class="cls-4" points="13.12 5.47 11.9 6.82 13.32 6.59 14.68 6.38 13.12 5.47"/>
            <path class="cls-2" d="M14.69,6.38h0s-.4.02-.4.02c-.66.04-1.32.14-1.96.3l-.43.11h0l.19.84,1.37-.21,1.29-.2-.07-.85Z"/>
            <path class="cls-4" d="M14.76,7.24h-.27c-.69.05-1.38.15-2.06.33l-.34.09.19.8,1.32-.21,1.21-.19-.06-.82Z"/>
            <path class="cls-2" d="M14.82,8.06h-.14c-.73.04-1.45.15-2.16.33l-.24.06.19.8,1.28-.2,1.13-.18-.06-.82Z"/>
            <path class="cls-4" d="M14.88,8.88h0c-.77.03-1.53.14-2.27.34l-.14.03.21.89c.39-.1.8-.18,1.22-.25.34-.05.69-.1,1.06-.13l-.07-.88Z"/>
          </g>
          <g>
            <path class="cls-4" d="M20.31,6.82l-.78,3.33c-.7-.18-1.47-.31-2.27-.38l.26-3.38,1.57-.92,1.22,1.35Z"/>
            <path class="cls-1" d="M17.52,6.38l-.26,3.38c-.38-.03-.76-.05-1.15-.05s-.78.02-1.15.05l-.26-3.38,1.41-1.15,1.42,1.15Z"/>
            <path class="cls-1" d="M12.68,10.14c-.81.2-1.54.46-2.18.74l-1.3-3.2,1-1.52,1.7.66.78,3.33Z"/>
          </g>
          <path class="cls-3" d="M23.05,7.64l-1-1.52s-.05-.03-.07-.02l-1.66.65-1.19-1.32s-.05-.03-.07-.01l-1.54.9-1.38-1.12s-.05-.02-.08,0l-1.38,1.12-1.54-.9s-.05-.01-.07.01l-1.19,1.32-1.66-.65s-.05,0-.07.02l-1,1.52s-.01.04,0,.06l1.3,3.2h0s0,.01,0,.01h0s0,0,0,0c0,0,0,0,0,0h0s0,0,0,0t0,0h0s0,0,0,0h0s0,0,.01,0h0s0,0,0,0h0s0,0,0,0h0c.68-.3,1.41-.54,2.17-.73.74-.19,1.51-.31,2.26-.37h0c.38-.03.77-.05,1.15-.05s.76.02,1.15.05c.76.06,1.52.19,2.26.37.76.19,1.48.44,2.17.74h0s0,0,0,0h.03s0,0,0,0h0s0,0,0,0c0,0,0,0,0,0h.01s0-.01,0-.01h0s0,0,0,0h0s0,0,0-.01h0l1.3-3.2s0-.04,0-.06ZM22.11,9.71l-.08.19-.36.9c-.67-.29-1.39-.53-2.13-.72h0c-.75-.19-1.52-.31-2.28-.38h0c-.39-.03-.78-.05-1.16-.05s-.77.01-1.15.05h0c-.76.06-1.53.19-2.28.38h0c-.74.18-1.46.43-2.13.72l-1.26-3.12.95-1.45,1.65.65s0,0,.01,0h.02s0,0,0,0h0s0,0,.01,0h0s0,0,0-.01h0l.05-.06h.01s1.12-1.26,1.12-1.26l1.45.84h.02s.06.05.06.05h0s0,0,0,0t0,0h.03s0,0,0,0c0,0,0,0,0,0h0s0,0,0,0c0,0,0,0,0,0l1.37-1.11,1.38,1.11h0s0,0,0,0c0,0,0,0,0,0h0s0,0,0,0h.03s0,0,.01,0c0,0,.01,0,.01,0h0l1.53-.89,1.19,1.31h0s0,.01,0,.01c0,0,0,0,.01,0h0s0,0,0,0h.02s0,0,.01,0l1.65-.65.95,1.45-.53,1.3-.08.19-.21.53Z"/>
        </g>
        <g>
          <path class="cls-5" d="M11.2,7.71l-.22-.19.05-.29s0,0,0,0h0l-.28.1-.22-.19s-.01,0-.02,0l-.05.29-.28.1s0,0,0,0,0,0,0,0l.22.19-.05.29s0,0,0,.01h0l.28-.1.22.19s0,0,0,0c0,0,0,0,0,0l.05-.29.28-.1h0s0-.01,0-.02Z"/>
          <g>
            <path d="M11.2,7.71l-.22-.19.05-.29s0,0,0,0h0l-.28.1-.22-.19s-.01,0-.02,0l-.05.29-.28.1s0,0,0,0,0,0,0,0l.22.19-.05.29s0,0,0,.01h0l.28-.1.22.19s0,0,0,0c0,0,0,0,0,0l.05-.29.28-.1h0s0-.01,0-.02ZM10.96,7.52l-.26.09.31-.36-.05.27ZM10.75,7.34l.26-.09-.31.36.05-.27ZM10.73,7.34l-.05.27-.16-.45.2.18ZM10.52,7.16l.16.45-.2-.18.05-.27ZM10.46,7.44l.21.18-.47-.09.26-.09ZM10.2,7.53l.46.09-.26.09-.2-.18ZM10.41,7.72l.26-.1-.31.36.05-.27ZM10.63,7.91h0l-.25.09.31-.36-.05.27ZM10.64,7.91l.05-.27.15.45-.2-.18ZM10.85,8.08l-.16-.45.2.18-.05.27ZM10.91,7.81l-.2-.18.46.09-.26.09ZM10.7,7.62l.26-.09.21.18-.47-.09Z"/>
            <path class="cls-3" d="M11.83,8.35s.01.09.01.14c0,.47-.37.86-.84.87-.33,0-.62-.18-.76-.45.07.41.43.71.85.7.47,0,.85-.39.84-.86,0-.14-.04-.28-.1-.39Z"/>
          </g>
        </g>
        <g>
          <path class="cls-5" d="M22.08,7.52s0,0,0,0l-.28-.1-.05-.29s-.01-.01-.01,0l-.22.19-.28-.1h-.01s0,0,0,0l.06.29-.22.19s0,0,0,.01t0,0l.28.1.05.29s0,0,0,0c0,0,0,0,.01,0l.22-.19.28.1h.01s-.05-.3-.05-.3l.22-.19s0,0,0,0Z"/>
          <path d="M22.08,7.52s0,0,0,0l-.28-.1-.05-.29s-.01-.01-.01,0l-.22.19-.28-.1h-.01s0,0,0,0l.06.29-.22.19s0,0,0,.01t0,0l.28.1.05.29s0,0,0,0c0,0,0,0,.01,0l.22-.19.28.1h.01s-.05-.3-.05-.3l.22-.19s0,0,0,0ZM22.04,7.52l-.46.09.2-.18.26.09ZM21.73,7.16l.05.27-.2.18.15-.45ZM21.72,7.16l-.16.45-.05-.27.2-.18ZM21.5,7.34h0l.05.27-.31-.36.26.09ZM21.24,7.26l.31.36-.25-.09-.05-.27ZM21.29,7.53l.26.09-.46.09.2-.18ZM21.08,7.72l.46-.09-.21.18-.26-.09ZM21.4,8.08l-.05-.27.2-.18-.16.45ZM21.41,8.09l.15-.45.05.27-.2.18ZM21.62,7.91l-.05-.27.31.36-.26-.09ZM21.89,7.99l-.31-.36.26.1.05.27ZM21.84,7.71l-.26-.09.46-.09-.21.18Z"/>
        </g>
        <g>
          <path d="M20.41,8.56s-.07.02-.09.02c-.01,0-.06,0-.05.03.01.02.1.09.17.08.03.02.1.11.09.13-.05,0-.13.03-.16.02-.03,0-.07-.02-.08,0,0,.02.03.09.08.08.03-.02.13-.03.2-.02.07.02.16.07.17.09-.06.02-.08.04-.11.02-.03-.02-.08-.04-.09-.01,0,.03.04.07.08.07.04,0,.02.02.04.02.02,0,.24.02.28-.02s.14.04.19.05c.06,0,.03,0,.03,0,0,0-.01.03-.06.03-.04,0-.13-.03-.12,0s.04.07.1.07c.05,0,.09-.03.09-.03,0,0,.08.01.12,0,.03-.01.08-.02.12-.01.04.01.15.12.22.13.04.03.03.07.01.07-.02,0-.08.04,0,.06.04,0,.08-.02.09-.04.01-.02.03-.01.03-.03s-.04-.03-.05-.07c0-.03.02-.07-.06-.1-.05-.03-.05-.06-.05-.08,0-.02,0-.05-.02-.08.04,0,.07,0,.15.05.07.05.16.11.23.1.08-.01.1-.04.09-.08s-.11-.09-.23-.1c-.12-.01-.2-.04-.28-.08-.07-.04-.11-.08-.25-.07-.14,0-.28-.02-.36-.06-.08-.04-.2-.09-.27-.1s-.09-.04-.08-.06c0-.02,0-.07-.04-.07-.04,0-.07-.05-.11-.06-.03,0-.03.03-.03.03Z"/>
          <path class="cls-3" d="M20.97,9.02s.1-.02.13-.01.14.02.2.12c-.07-.01-.18-.02-.21-.04s-.12-.06-.13-.06c-.01,0,.01,0,.01,0Z"/>
        </g>
        <g>
          <g>
            <g>
              <g>
                <path class="cls-5" d="M15.91,7.43s-.02-.06-.06-.09c.13-.04.13-.13.13-.13s0,0,0,0t0,0s-.05,0-.1,0c.07-.06.1-.16.1-.23,0,0,0,0,0,0,0,0,0,0-.01,0-.01.01-.03.01-.07.02-.03,0-.06.01-.1.02,0-.05.07-.15.12-.22.02-.02.03-.04.04-.06,0,0,.01-.02,0-.03-.01-.01-.03,0-.07.02-.01,0-.02,0-.03.01-.05,0-.07.01-.1.05-.05-.02-.09,0-.12.04,0-.02,0-.03-.02-.04,0,0-.01,0-.02-.01.01-.02,0-.04,0-.05h0l-.12-.13h0s0,0,0,0h0l-.11.13h0s-.01.03,0,.05c0,0-.01,0-.02.01,0,0-.02.02-.02.04-.04-.04-.07-.06-.12-.04-.03-.04-.05-.05-.1-.05,0,0-.02-.01-.03-.01-.04-.02-.06-.03-.07-.02,0,.01,0,.02,0,.03,0,.01.02.03.04.06.05.06.12.17.12.22-.04-.01-.07-.02-.1-.02-.03,0-.05-.01-.06-.02,0,0,0,0,0,0,0,0,0,0,0,0,0,.07.03.17.1.23-.05,0-.1,0-.1,0t0,0s0,0,0,0,0,.09.13.13c-.04.03-.05.06-.06.09-.01.03-.02.04-.03.05-.01,0-.01,0-.01.01,0,0,0,.01.01.02.02.02.1.03.16,0-.02.03-.04.06-.03.12t0,0h0c.05,0,.08-.01.1-.01,0,.02-.01.05-.02.07,0,.02,0,.03-.01.04s0,0,0,.01c0,0,0,0,.01,0,.06,0,.11,0,.14-.02,0,.05,0,.07,0,.1,0,0,0,0,0,.01s0,0,0,0c0,0,0,0,0,0,.02-.02.04-.05.05-.06.02.02.04.05.04.06,0,0,0,.01.01.01,0,0,.01,0,.01-.01,0-.02.02-.04.04-.06,0,.01.03.04.05.06,0,0,0,0,.01,0,0,0,0,0,0,0s0,0,0-.01c0-.02.01-.05,0-.1.03.01.07.02.14.02,0,0,0,0,0,0,0,0,0,0,0-.01s0-.02-.01-.04c0-.02,0-.05-.02-.07.02,0,.04,0,.1.01h0s0,0,0,0c0-.06-.01-.09-.04-.12.06.02.14.01.16,0,.01,0,.01-.01.01-.02,0,0,0-.01-.01-.01-.02,0-.02-.02-.03-.05Z"/>
                <g>
                  <path d="M15.91,7.43s-.02-.06-.06-.09c.13-.04.13-.13.13-.13s0,0,0,0t0,0s-.05,0-.1,0c.07-.06.1-.16.1-.23,0,0,0,0,0,0,0,0,0,0-.01,0-.01.01-.03.01-.07.02-.03,0-.06.01-.1.02,0-.05.07-.15.12-.22.02-.02.03-.04.04-.06,0,0,.01-.02,0-.03-.01-.01-.03,0-.07.02-.01,0-.02,0-.03.01-.05,0-.07.01-.1.05-.05-.02-.09,0-.12.04,0-.02,0-.03-.02-.04,0,0-.01,0-.02-.01.01-.02,0-.04,0-.05h0l-.12-.13h0s0,0,0,0h0l-.11.13h0s-.01.03,0,.05c0,0-.01,0-.02.01,0,0-.02.02-.02.04-.04-.04-.07-.06-.12-.04-.03-.04-.05-.05-.1-.05,0,0-.02-.01-.03-.01-.04-.02-.06-.03-.07-.02,0,.01,0,.02,0,.03,0,.01.02.03.04.06.05.06.12.17.12.22-.04-.01-.07-.02-.1-.02-.03,0-.05-.01-.06-.02,0,0,0,0,0,0,0,0,0,0,0,0,0,.07.03.17.1.23-.05,0-.1,0-.1,0t0,0s0,0,0,0,0,.09.13.13c-.04.03-.05.06-.06.09-.01.03-.02.04-.03.05-.01,0-.01,0-.01.01,0,0,0,.01.01.02.02.02.1.03.16,0-.02.03-.04.06-.03.12t0,0h0c.05,0,.08-.01.1-.01,0,.02-.01.05-.02.07,0,.02,0,.03-.01.04s0,0,0,.01c0,0,0,0,.01,0,.06,0,.11,0,.14-.02,0,.05,0,.07,0,.1,0,0,0,0,0,.01s0,0,0,0c0,0,0,0,0,0,.02-.02.04-.05.05-.06.02.02.04.05.04.06,0,0,0,.01.01.01,0,0,.01,0,.01-.01,0-.02.02-.04.04-.06,0,.01.03.04.05.06,0,0,0,0,.01,0,0,0,0,0,0,0s0,0,0-.01c0-.02.01-.05,0-.1.03.01.07.02.14.02,0,0,0,0,0,0,0,0,0,0,0-.01s0-.02-.01-.04c0-.02,0-.05-.02-.07.02,0,.04,0,.1.01h0s0,0,0,0c0-.06-.01-.09-.04-.12.06.02.14.01.16,0,.01,0,.01-.01.01-.02,0,0,0-.01-.01-.01-.02,0-.02-.02-.03-.05ZM15.86,7.51s-.07,0-.11-.03c0,0,0,0-.01,0s0,.01,0,.01c0,.01.01.02.02.03.02.03.04.05.03.11-.08-.01-.09-.02-.1-.03h0s0,.01,0,.01c.02.03.02.06.03.09,0,.01,0,.03,0,.03-.1,0-.13-.02-.13-.03,0,0,0,0-.01,0,0,0,0,0,0,.01.01.05,0,.09,0,.11-.02-.03-.04-.06-.04-.06,0,0,0,0,0,0h0s-.03.03-.04.06c-.01-.03-.04-.05-.04-.06h0s0,0,0,0c0,0-.02.03-.04.06,0-.03-.01-.06,0-.11,0,0,0-.01,0-.01,0,0,0,0,0,0,0,0-.03.03-.13.03,0,0,0-.02,0-.03,0-.03.01-.06.03-.09,0,0,0-.01,0-.01h-.01s-.02.02-.1.03c0-.05.01-.07.03-.11,0,0,.01-.02.02-.03,0,0,0-.01,0-.01s0,0-.01,0c-.06.04-.15.03-.18.02.03-.01.03-.03.04-.06,0-.03.02-.07.07-.09,0,0,0,0,0-.01s0,0,0,0c-.12-.02-.14-.09-.14-.11.02,0,.07,0,.12,0,0,0,0,0,.01-.01,0,0,0,0,0,0-.07-.05-.1-.15-.11-.22.02,0,.03.01.06.01.03,0,.07.01.11.02h0s0,0,0,0c.01-.06-.06-.17-.12-.25-.02-.02-.03-.04-.04-.05,0,0,0,0,0-.01.01,0,.03.01.05.02.01,0,.02.01.03.02h0s.06,0,.1.05c0,0,0,0,0,0,.04-.02.07,0,.12.05,0,0,0,0,.01,0,0,0,0,0,0-.01,0-.03,0-.05.01-.05,0,0,.02,0,.03,0,0,0,0,0,.01,0,0,0,0,0,0-.01-.02-.02-.02-.04-.01-.05l.11-.12.11.12s.01.03-.01.05c0,0,0,0,0,.01,0,0,0,0,.01,0,.01,0,.02,0,.03,0,0,0,.01.02.01.05,0,0,0,0,0,.01,0,0,0,0,.01,0,.05-.06.08-.08.12-.05,0,0,0,0,.01,0,.04-.04.05-.05.1-.05h0s.02-.01.03-.02c.02,0,.04-.02.05-.02,0,0,0,0,0,.01,0,.01-.02.03-.04.05-.07.1-.14.19-.12.25,0,0,0,0,0,0h0s.08-.02.11-.02c.03,0,.05,0,.06-.01,0,.07-.04.17-.11.22,0,0,0,0,0,0,0,0,0,0,0,.01.04,0,.1,0,.12,0,0,.02-.02.08-.13.11,0,0,0,0-.01,0,0,0,0,0,0,.01.04.02.06.06.07.09,0,.03.02.05.04.06,0,0-.04.01-.07.01Z"/>
                  <path d="M15.41,7.17s0,0,0,0t0,0s0,0,0-.01c-.04-.05-.13-.06-.13-.06,0,0-.01,0-.01,0,0,0,0,.01,0,.01,0,0,.09.01.12.06Z"/>
                  <path d="M15.44,7.28s0,0,0-.01c0,0-.01,0-.01,0,0,0-.04.03-.02.09,0,0,0,0,0,0h0s0,0,0-.01c-.01-.05.02-.07.02-.07Z"/>
                  <path d="M15.42,7.55s0,0,0,0c0,0,0-.01,0-.01-.01,0-.08-.05-.08-.05,0,0-.01,0-.01,0,0,0,0,.01,0,.01,0,0,.05.03.09.05h0Z"/>
                  <path d="M15.42,7.58s.01,0,.01,0c0,0,0-.01,0-.01l-.07-.03s0,0-.01,0c0,0,0,.01,0,.01l.07.03h0Z"/>
                  <path d="M15.5,7.17s0,0,0,0c0,0,0,0,0,0,.03-.05.12-.06.12-.06,0,0,.01,0,0-.01,0,0,0-.01-.01,0,0,0-.1.01-.13.06,0,0,0,0,0,.01Z"/>
                  <path d="M15.69,7.13s-.04.03-.06.05c-.03.02-.06.03-.09.04-.03,0-.04,0-.05,0,0,0-.01-.02-.01-.04,0-.05.03-.1.03-.1,0,0,0-.01,0-.01,0,0-.01,0-.01,0,0,0-.02.03-.02.06-.01-.03-.02-.05-.02-.06,0,0,0,0-.01,0,0,0,0,.01,0,.01,0,0,.03.05.02.1,0,.02,0,.03-.01.04,0,.01-.02.01-.05,0-.02,0-.06-.02-.09-.04-.02-.02-.05-.03-.06-.05,0,0-.01,0-.01,0s0,.01,0,.01c.02.01.04.03.06.05,0,0,0,0,0,0,.01.03.04.07.07.08h0s.03-.01.04-.04c.02,0,.03,0,.04-.01,0,0,.01-.01.01-.02,0,0,0,.01.01.02.01,0,.02.01.04.01.01.03.03.04.04.04h0s.06-.05.07-.08c0,0,0,0,0,0,.02-.02.05-.03.06-.05,0,0,0-.01,0-.01s-.01,0-.01,0ZM15.35,7.25s-.02-.02-.03-.04c.01,0,.02.01.03.02v.02ZM15.57,7.25s0-.02,0-.02c.01,0,.03-.01.04-.02,0,.02-.02.03-.03.04Z"/>
                  <path d="M15.54,7.6s-.05,0-.06-.01c0,0,0-.01,0-.02h0v-.06s0,0,.01,0h0s.06-.01.06-.04c0-.02,0-.03-.01-.04-.01-.01-.04-.01-.06,0,0,0,0,0,0,.01,0,0,.01,0,.01,0,.01,0,.03,0,.04,0,0,0,0,.01,0,.02,0,.02-.03.02-.05.03h0s-.07,0-.08-.02c0-.01,0-.02,0-.03,0,0,0-.01,0-.01,0,0-.01,0-.01,0,0,.02,0,.03,0,.05s.02.03.06.03h0s0,.06,0,.06h0s0,.01,0,.02c-.01.01-.05.01-.06.01,0,0-.01,0-.01.01,0,0,0,0,.01.01h.02s.04,0,.06-.02h0s0,0,0,0c0,0,.01.01.02.01h0s-.02.02-.04.02h0s0,0,0,0c0,0,0,.01,0,.01h0s.05-.01.06-.03h0s.01,0,.02,0h.02s0,0,0-.01c0,0,0-.01-.01-.01Z"/>
                  <path d="M15.58,7.48s-.07.04-.09.05c0,0,0,.01,0,.01,0,0,0,0,0,0h0s.08-.05.09-.05c0,0,0,0,0-.01,0,0-.01,0-.01,0Z"/>
                  <path d="M15.57,7.53l-.07.03s0,0,0,.01c0,0,0,0,.01,0h0s.08-.03.08-.03c0,0,0,0,0-.01,0,0,0,0-.01,0Z"/>
                  <path d="M15.72,7c-.09-.01-.18-.02-.27-.02-.09,0-.17.01-.26.03,0,0,0,0,0,0,0,0,0,0,0,0h0c.09-.01.17-.02.26-.02.09,0,.18,0,.26.01,0,0,0,0,0,0s0,0,0,0Z"/>
                  <path d="M15.74,6.98c-.09-.02-.19-.03-.28-.03-.09,0-.18.01-.27.04,0,0,0,0,0,0,0,0,0,0,0,0h0c.09-.02.18-.04.27-.04.1,0,.19.01.28.03,0,0,0,0,0,0h0Z"/>
                  <path d="M15.77,6.88s0,0,0,0c-.11-.02-.22-.02-.33-.02-.1,0-.19.01-.29.03,0,0,0,0,0,0s0,0,0,0h0c.1-.02.19-.03.29-.03.11,0,.22,0,.33.02,0,0,0,0,0,0Z"/>
                  <path d="M15.73,6.9s0,0,0,0c0,0,0,0,0,0-.09-.01-.18-.01-.26-.01-.1,0-.2.01-.29.03,0,0,0,0,0,0,0,0,0,0,0,0h0c.1-.02.19-.03.29-.03.09,0,.17,0,.26.01Z"/>
                  <path d="M15.45,6.7s0,0,0,0c0,0,0,0,0,0l-.04.05s0,.01,0,.01l.04.04s0,0,0,0h0s.03-.05.03-.05c0,0,0,0,0-.01l-.04-.04ZM15.46,6.78l-.03-.03.03-.03.03.03-.02.03Z"/>
                </g>
              </g>
              <g>
                <path d="M15.8,7.17s0,0,0,0h0s.03-.04.04-.06c.02-.02.03-.03.04-.05t0,0h0s-.03.04-.04.06c-.02.02-.03.04-.05.06h0Z"/>
                <g>
                  <path d="M15.17,7.07h0s-.02-.01-.03-.02c-.03-.02-.07-.03-.11-.03,0,0,0,0,0,0,0,0,0,0,0,0,.04,0,.07.01.11.03.01,0,.02.01.03.02,0,0,0,0,0,0h0Z"/>
                  <path d="M15.15,7.1h0s-.04-.02-.05-.03l-.05-.03h0s0,0,0,0c.02.01.03.02.05.03s.03.02.05.02h0s0,0,0,0Z"/>
                  <path d="M15.14,7.17h0s-.04,0-.06-.02c-.03-.02-.04-.04-.05-.06,0,0,0,0,0,0h0s.02.04.04.05c.02.01.04.02.05.02,0,0,0,0,0,0t0,0Z"/>
                  <path d="M15.03,7.25h0s0,0,0,0c.03,0,.06,0,.1,0,.02,0,.03,0,.05,0t0,0h0s-.03,0-.05,0c-.03,0-.06,0-.1,0h0Z"/>
                  <path d="M15.09,7.29h0s0,0,0,0c.02,0,.04,0,.05,0,.01,0,.03,0,.04-.01h0s0,0,0,0c-.01,0-.03.01-.04.01s-.04,0-.05,0h0Z"/>
                  <path d="M15.11,7.41h0s0,0,0,0c.01-.02.02-.04.03-.05,0-.02.02-.04.04-.05,0,0,0,0,0,0h0s-.03.04-.04.06c-.01.01-.02.03-.03.05,0,0,0,0,0,0Z"/>
                  <path d="M15.05,7.46h0s0,0,0,0c.04-.01.07-.03.11-.06.02-.01.03-.03.04-.04,0,0,0,0,0,0,0,0,0,0,0,0-.01.02-.03.03-.04.05-.03.03-.07.04-.11.06h0Z"/>
                  <path d="M15.12,7.47h0s0,0,0,0c.03-.02.05-.03.08-.04.02-.01.04-.02.06-.02,0,0,0,0,0,0h0s-.04.02-.06.03c-.03.01-.06.03-.08.05h0Z"/>
                  <path d="M15.16,7.57h0s.03-.04.05-.06l.04-.04h0s-.03.03-.04.05c-.02.02-.04.03-.05.05h0Z"/>
                  <path d="M15.2,7.57h0s.04-.03.05-.05c.01-.01.02-.03.02-.04,0,0,0,0,0,0,0,0,0,0,0,0,0,.01-.01.03-.02.04-.01.02-.03.03-.05.05h0Z"/>
                  <path d="M15.25,7.66h0s0,0,0,0c0-.02.01-.04.02-.06,0-.01.01-.02.02-.03h0s-.01.02-.02.03c-.01.02-.02.04-.02.07,0,0,0,0,0,0Z"/>
                  <path d="M15.27,7.67h0s.01-.03.02-.05c0-.02.01-.03.01-.05t0,0h0s-.01.04-.02.05c0,.02-.01.03-.02.05h0Z"/>
                  <path d="M15.27,7.7h0s0,0,0,0c.02,0,.03-.01.04-.02,0-.01.02-.02.02-.03t0,0h0s-.01.02-.02.03c-.01.01-.03.02-.05.02h0Z"/>
                  <path d="M15.74,7.06h0s0,0,0,0c.02-.01.04-.02.06-.03s.05-.01.08-.01h0s0,0,0,0c-.03,0-.05,0-.08.01-.02,0-.04.01-.06.03,0,0,0,0,0,0Z"/>
                  <path d="M15.77,7.11h0s.03-.03.04-.04c.03-.02.06-.03.1-.03h0s0,0,0,0c-.03,0-.07.01-.1.03-.02.01-.03.02-.04.04h0Z"/>
                  <polygon points="15.88 7.23 15.78 7.23 15.77 7.23 15.78 7.23 15.88 7.23 15.88 7.23 15.88 7.23"/>
                  <path d="M15.78,7.27s0,0,0,0t0,0s.03,0,.04,0c.02,0,.05-.01.07-.02h0s-.05.02-.07.02c-.01,0-.03,0-.04,0h0Z"/>
                  <path d="M15.76,7.32h0s.05-.01.07-.03c.01,0,.02-.01.02-.02h0s-.02.02-.03.03c-.03.02-.05.02-.07.02Z"/>
                  <path d="M15.86,7.47h0s-.05-.01-.07-.03c-.01,0-.03-.02-.04-.03t0,0h0s.02.02.04.03c.02.01.04.02.06.02,0,0,0,0,0,0h0Z"/>
                  <path d="M15.84,7.48h0s-.05,0-.07-.01c-.03,0-.05-.01-.07-.03,0,0,0,0,0,0,0,0,0,0,0,0,.02.01.05.02.07.03s.05.01.07.01c0,0,0,0,0,0t0,0Z"/>
                  <path d="M15.76,7.59h0s-.02-.02-.03-.03c-.02-.02-.02-.03-.03-.05h0s0,0,0,0c0,.01.01.03.03.04.01.01.02.02.03.02h0s0,0,0,0Z"/>
                  <path d="M15.74,7.6h0s-.04-.01-.05-.03c0,0-.01-.01-.02-.02h0s0,0,0,0c0,0,.01.01.02.02.02.01.03.02.05.02,0,0,0,0,0,0h0Z"/>
                  <path d="M15.86,7.45h0s-.03-.04-.05-.05c-.02-.01-.04-.02-.06-.03,0,0,0,0,0,0,0,0,0,0,0,0,.02,0,.04.01.06.03s.04.03.05.05h0Z"/>
                  <path d="M15.69,7.71h0s-.02-.04-.03-.06c0-.02-.02-.04-.03-.06h0s0,0,0,0c0,.02.02.04.03.06,0,.02.02.04.03.05t0,0h0Z"/>
                  <path d="M15.67,7.71h0s-.03-.03-.05-.05c-.01-.02-.02-.03-.02-.05t0,0h0s.01.03.02.05c.01.02.03.03.05.04,0,0,0,0,0,0h0Z"/>
                  <path d="M15.64,7.71h0s-.02-.01-.03-.02c-.01-.01-.03-.02-.04-.03h0s0,0,0,0c.01.01.02.02.03.03.01,0,.02.01.03.02,0,0,0,0,0,0h0Z"/>
                  <path d="M15.55,7.78h0s0-.02,0-.03c0-.02-.01-.03-.02-.05h0s0,0,0,0c0,.02.01.03.01.05,0,0,0,.02,0,.03h0Z"/>
                  <path d="M15.46,7.77h0s0,0,0,0c0-.01,0-.02.01-.03,0-.01,0-.03,0-.04h0s0,0,0,0c0,.01,0,.03,0,.04,0,.01,0,.02,0,.03,0,0,0,0,0,0Z"/>
                  <path d="M15.38,7.77h0s0,0,0,0c0-.01,0-.02,0-.03,0-.01,0-.03,0-.04t0,0h0s0,0,0,0c0,.01,0,.03,0,.04,0,.01,0,.02,0,.03h0Z"/>
                  <path d="M15.44,7.77s0,0,0,0c0,0-.01-.02-.01-.03,0-.01,0-.02,0-.04,0,0,0,0,0,0h0s0,.02,0,.04c0,.01,0,.02.01.03t0,0h0Z"/>
                </g>
              </g>
            </g>
            <g>
              <g>
                <path class="cls-5" d="M17.19,7.43s-.02-.06-.06-.09c.13-.04.13-.13.13-.13s0,0,0,0t0,0s-.05,0-.1,0c.07-.06.1-.16.1-.23,0,0,0,0,0,0,0,0,0,0-.01,0-.01.01-.04.01-.07.02-.03,0-.06.01-.1.02,0-.05.07-.15.12-.22.02-.02.03-.04.04-.06,0,0,.01-.02,0-.03-.01-.01-.03,0-.07.02,0,0-.02,0-.03.01-.04,0-.07.01-.1.05-.05-.02-.08,0-.12.04,0-.02,0-.03-.02-.04,0,0-.01,0-.02-.01.01-.02,0-.04,0-.05h0l-.11-.13h0s0,0,0,0h0l-.12.13h0s-.01.03,0,.05c0,0-.01,0-.02.01-.01,0-.01.02-.02.04-.03-.04-.07-.06-.12-.04-.03-.04-.06-.05-.1-.05,0,0-.02-.01-.03-.01-.04-.02-.06-.03-.07-.02,0,.01,0,.02,0,.03,0,.01.02.03.04.06.04.06.12.17.12.22-.04-.01-.07-.02-.1-.02-.03,0-.05-.01-.07-.02,0,0,0,0-.01,0,0,0,0,0,0,0,0,.07.03.17.1.23-.05,0-.1,0-.1,0,0,0,0,0,0,0,0,0,0,0,0,0s0,.09.13.13c-.04.03-.05.06-.06.09,0,.03-.01.04-.03.05-.01,0-.01,0-.01.01,0,0,0,.01,0,.02.02.02.1.03.17,0-.02.03-.04.06-.04.12,0,0,0,0,0,0h0c.05,0,.08-.01.1-.01-.01.02-.01.05-.02.07,0,.02,0,.03-.01.04,0,0,0,0,0,.01,0,0,0,0,0,0,.06,0,.11,0,.14-.02,0,.05,0,.07,0,.1,0,0,0,0,0,.01s0,0,0,0c0,0,0,0,0,0,.02-.02.04-.05.05-.06.02.02.04.05.04.06,0,0,0,.01.01.01,0,0,.01,0,.01-.01,0-.02.02-.04.04-.06.01.01.03.04.05.06,0,0,0,0,.01,0,0,0,0,0,0,0,0,0,0,0,0-.01,0-.02.02-.05,0-.1.03.01.08.02.14.02,0,0,0,0,0,0,0,0,0,0,0-.01s0-.02-.01-.04c0-.02-.01-.05-.02-.07.02,0,.04,0,.1.01h0s0,0,0,0c0-.06-.01-.09-.03-.12.06.02.14.01.16,0,.01,0,.01-.01.01-.02,0,0,0-.01-.02-.01-.02,0-.02-.02-.03-.05Z"/>
                <g>
                  <path d="M17.19,7.43s-.02-.06-.06-.09c.13-.04.13-.13.13-.13s0,0,0,0t0,0s-.05,0-.1,0c.07-.06.1-.16.1-.23,0,0,0,0,0,0,0,0,0,0-.01,0-.01.01-.04.01-.07.02-.03,0-.06.01-.1.02,0-.05.07-.15.12-.22.02-.02.03-.04.04-.06,0,0,.01-.02,0-.03-.01-.01-.03,0-.07.02,0,0-.02,0-.03.01-.04,0-.07.01-.1.05-.05-.02-.08,0-.12.04,0-.02,0-.03-.02-.04,0,0-.01,0-.02-.01.01-.02,0-.04,0-.05h0l-.11-.13h0s0,0,0,0h0l-.12.13h0s-.01.03,0,.05c0,0-.01,0-.02.01-.01,0-.01.02-.02.04-.03-.04-.07-.06-.12-.04-.03-.04-.06-.05-.1-.05,0,0-.02-.01-.03-.01-.04-.02-.06-.03-.07-.02,0,.01,0,.02,0,.03,0,.01.02.03.04.06.04.06.12.17.12.22-.04-.01-.07-.02-.1-.02-.03,0-.05-.01-.07-.02,0,0,0,0-.01,0,0,0,0,0,0,0,0,.07.03.17.1.23-.05,0-.1,0-.1,0,0,0,0,0,0,0,0,0,0,0,0,0s0,.09.13.13c-.04.03-.05.06-.06.09,0,.03-.01.04-.03.05-.01,0-.01,0-.01.01,0,0,0,.01,0,.02.02.02.1.03.17,0-.02.03-.04.06-.04.12,0,0,0,0,0,0h0c.05,0,.08-.01.1-.01-.01.02-.01.05-.02.07,0,.02,0,.03-.01.04,0,0,0,0,0,.01,0,0,0,0,0,0,.06,0,.11,0,.14-.02,0,.05,0,.07,0,.1,0,0,0,0,0,.01s0,0,0,0c0,0,0,0,0,0,.02-.02.04-.05.05-.06.02.02.04.05.04.06,0,0,0,.01.01.01,0,0,.01,0,.01-.01,0-.02.02-.04.04-.06.01.01.03.04.05.06,0,0,0,0,.01,0,0,0,0,0,0,0,0,0,0,0,0-.01,0-.02.02-.05,0-.1.03.01.08.02.14.02,0,0,0,0,0,0,0,0,0,0,0-.01s0-.02-.01-.04c0-.02-.01-.05-.02-.07.02,0,.04,0,.1.01h0s0,0,0,0c0-.06-.01-.09-.03-.12.06.02.14.01.16,0,.01,0,.01-.01.01-.02,0,0,0-.01-.02-.01-.02,0-.02-.02-.03-.05ZM17.14,7.51s-.07,0-.11-.03c0,0,0,0-.01,0s0,.01,0,.01c0,.01.01.02.02.03.02.03.04.05.03.11-.08-.01-.09-.02-.1-.03h-.01s0,.01,0,.01c.01.03.02.06.02.09,0,.01,0,.03.01.03-.1,0-.13-.02-.14-.03,0,0,0,0,0,0,0,0,0,0,0,.01.01.05,0,.09,0,.11-.02-.03-.04-.06-.04-.06t0,0h0s-.03.03-.04.06c-.01-.03-.04-.05-.04-.06h-.01s0,0,0,0c0,0-.02.03-.04.06,0-.03-.01-.06,0-.11,0,0,0-.01,0-.01,0,0,0,0-.01,0,0,0-.03.03-.13.03,0,0,0-.02,0-.03,0-.03,0-.06.03-.09,0,0,0-.01,0-.01h-.01s-.02.02-.11.03c0-.05.01-.07.04-.11,0,0,.01-.02.02-.03,0,0,0-.01,0-.01s0,0-.01,0c-.06.04-.15.03-.18.02.03-.01.04-.03.04-.06.01-.03.02-.07.07-.09,0,0,0,0,0-.01s0,0,0,0c-.11-.02-.13-.09-.14-.11.02,0,.08,0,.12,0,0,0,0,0,0-.01,0,0,0,0,0,0-.07-.05-.1-.15-.11-.22.01,0,.03.01.06.01.03,0,.06.01.11.02h0s0,0,0,0c.01-.06-.06-.17-.12-.25-.02-.02-.03-.04-.04-.05,0,0,0,0,0-.01.01,0,.03.01.05.02.01,0,.02.01.03.02h0s.06,0,.1.05c0,0,0,0,.01,0,.04-.02.07,0,.12.05,0,0,0,0,.01,0,0,0,0,0,0-.01,0-.03,0-.05,0-.05,0,0,.02,0,.03,0,0,0,0,0,.01,0,0,0,0,0,0-.01-.03-.02-.02-.04-.01-.05l.11-.12.11.12s.01.03,0,.05c0,0,0,0,0,.01,0,0,0,0,.01,0,.01,0,.02,0,.03,0,0,0,.01.02,0,.05,0,0,0,0,0,.01,0,0,0,0,.01,0,.05-.06.08-.08.12-.05,0,0,0,0,.01,0,.04-.04.05-.05.1-.05h0s.02-.01.03-.02c.02,0,.04-.02.05-.02,0,0,0,0,0,.01-.01.01-.02.03-.04.05-.07.1-.13.19-.12.25,0,0,0,0,0,0h0s.08-.02.11-.02c.02,0,.04,0,.06-.01,0,.07-.04.17-.11.22,0,0,0,0,0,0,0,0,0,0,0,.01.04,0,.1,0,.12,0,0,.02-.02.08-.14.11,0,0,0,0,0,0s0,0,0,.01c.05.02.06.06.07.09,0,.03.02.05.04.06-.01,0-.04.01-.07.01Z"/>
                  <path d="M16.69,7.17s0,0,0,0,0,0,0,0c0,0,0,0,0-.01-.04-.05-.13-.06-.13-.06,0,0,0,0-.01,0,0,0,0,.01.01.01,0,0,.09.01.12.06Z"/>
                  <path d="M16.72,7.28s0,0,0-.01c0,0,0,0-.01,0,0,0-.04.03-.03.09,0,0,0,0,.01,0h0s0,0,0-.01c-.01-.05.01-.07.02-.07Z"/>
                  <path d="M16.71,7.55s0,0,0,0c0,0,0-.01,0-.01-.01,0-.08-.05-.09-.05,0,0-.01,0-.01,0,0,0,0,.01,0,.01,0,0,.05.03.09.05h0Z"/>
                  <path d="M16.7,7.58s0,0,0,0c0,0,0-.01,0-.01l-.07-.03s-.01,0-.01,0c0,0,0,.01,0,.01l.07.03s0,0,0,0Z"/>
                  <path d="M16.79,7.17s0,0,0,0c0,0,0,0,.01,0,.03-.05.12-.06.12-.06s0,0,0-.01c0,0,0-.01-.01,0,0,0-.1.01-.13.06,0,0,0,0,0,.01Z"/>
                  <path d="M16.97,7.13s-.04.03-.06.05c-.03.02-.06.03-.09.04-.03,0-.04,0-.05,0,0,0-.01-.02-.01-.04,0-.05.03-.1.03-.1,0,0,0-.01,0-.01s-.01,0-.01,0c0,0-.01.03-.02.06-.01-.03-.02-.05-.02-.06,0,0-.01,0-.01,0,0,0,0,.01,0,.01,0,0,.03.05.03.1,0,.02,0,.03-.01.04-.01.01-.03.01-.05,0-.02,0-.06-.02-.09-.04-.02-.02-.04-.03-.06-.05,0,0-.01,0-.01,0,0,0,0,.01,0,.01.01.01.04.03.06.05,0,0,0,0,0,0,.01.03.04.07.07.08h0s.03-.01.04-.04c.01,0,.03,0,.04-.01,0,0,.01-.01.01-.02,0,0,0,.01.01.02.01,0,.02.01.04.01.01.03.03.04.05.04h0s.06-.05.07-.08c0,0,0,0,0,0,.03-.02.05-.03.06-.05,0,0,0-.01,0-.01s0,0-.01,0ZM16.63,7.25s-.03-.02-.04-.04c.01,0,.03.01.04.02,0,0,0,.02,0,.02ZM16.86,7.25s0-.02,0-.02c.01,0,.02-.01.04-.02-.01.02-.02.03-.03.04Z"/>
                  <path d="M16.82,7.6s-.04,0-.06-.01c0,0-.01-.01-.01-.02h0v-.06s0,0,.01,0h0s.06-.01.06-.04c0-.02,0-.03-.01-.04-.02-.01-.04-.01-.06,0,0,0,0,0,0,.01,0,0,0,0,.01,0,0,0,.03,0,.03,0,0,0,0,.01,0,.02,0,.02-.02.02-.05.03h0s-.06,0-.07-.02c0-.01,0-.02,0-.03,0,0,0-.01,0-.01,0,0-.01,0-.01,0,0,.02,0,.03,0,.05,0,.01.02.03.06.03h0s0,.06,0,.06h0s0,.01,0,.02c-.02.01-.05.01-.06.01,0,0-.01,0-.01.01,0,0,0,0,0,.01h.02s.04,0,.05-.02c0,0,0,0,0,0h0s.01.01.02.02h0s-.02.02-.04.02h0s-.01,0-.01,0c0,0,0,.01.01.01h0s.05-.01.06-.03h0s.01,0,.02,0h.02s.01,0,0-.01c0,0,0-.01-.01-.01Z"/>
                  <path d="M16.86,7.48s-.07.04-.09.05c0,0,0,.01,0,.01,0,0,0,0,0,0h0s.08-.05.09-.05c0,0,0,0,0-.01,0,0,0,0-.01,0Z"/>
                  <path d="M16.85,7.53l-.07.03s0,0,0,.01c0,0,0,0,0,0s0,0,0,0l.07-.03s0,0,0-.01c0,0-.01,0-.01,0Z"/>
                  <path d="M17,7c-.09-.01-.18-.02-.27-.02-.09,0-.17.01-.26.03,0,0,0,0,0,0t0,0h0c.09-.01.17-.02.26-.02.09,0,.18,0,.27.01t0,0s0,0,0,0Z"/>
                  <path d="M17.02,6.98c-.09-.02-.19-.03-.28-.03-.09,0-.18.01-.27.04,0,0,0,0,0,0,0,0,0,0,0,0h0c.09-.02.17-.04.26-.04.1,0,.19.01.28.03,0,0,0,0,0,0,0,0,0,0,0,0Z"/>
                  <path d="M17.05,6.88s0,0,0,0c-.11-.02-.22-.02-.33-.02-.1,0-.2.01-.29.03t0,0s0,0,0,0h0c.1-.02.19-.03.29-.03.11,0,.22,0,.33.02,0,0,0,0,0,0Z"/>
                  <path d="M17.01,6.9s0,0,0,0c0,0,0,0,0,0-.09-.01-.18-.01-.27-.01-.1,0-.19.01-.29.03,0,0,0,0,0,0,0,0,0,0,0,0h0c.1-.02.19-.03.29-.03.09,0,.18,0,.27.01Z"/>
                  <path d="M16.74,6.7s0,0,0,0,0,0,0,0l-.04.05s0,.01,0,.01l.05.04s0,0,0,0c0,0,0,0,0,0l.03-.05s0,0,0-.01l-.04-.04ZM16.74,6.78l-.03-.03.03-.03.03.03-.02.03Z"/>
                </g>
              </g>
              <g>
                <path d="M17.08,7.17h0s0,0,0,0c.02-.02.03-.04.05-.06l.04-.05s0,0,0,0t0,0s-.02.03-.04.05c-.01.02-.03.04-.04.06,0,0,0,0,0,0Z"/>
                <g>
                  <path d="M16.45,7.07h0s-.02-.01-.03-.02c-.03-.02-.07-.03-.11-.03,0,0,0,0,0,0t0,0s.07.01.11.03c0,0,.02.01.03.02h0s0,0,0,0Z"/>
                  <path d="M16.43,7.1h0s-.04-.02-.05-.03c-.02-.01-.04-.02-.05-.03,0,0,0,0,0,0t0,0s.03.02.05.03c.02.01.04.02.05.02t0,0h0Z"/>
                  <path d="M16.43,7.17h0s-.04,0-.06-.02c-.03-.02-.04-.04-.04-.06h0s.02.03.04.05c.02.01.04.02.06.02h0s0,0,0,0Z"/>
                  <path d="M16.31,7.25s0,0,0,0c0,0,0,0,0,0,.03,0,.06,0,.1,0,.01,0,.03,0,.05,0h0s-.03,0-.05,0c-.03,0-.06,0-.1,0h0Z"/>
                  <path d="M16.37,7.29s0,0,0,0t0,0s.03,0,.05,0,.03,0,.04-.01h0s0,0,0,0c-.01,0-.03.01-.04.01-.02,0-.04,0-.05,0h0Z"/>
                  <path d="M16.39,7.41h0s.02-.04.03-.05c.01-.02.03-.04.04-.05t0,0h0s-.03.04-.04.06c-.01.01-.02.03-.03.05h0Z"/>
                  <path d="M16.33,7.46h0s.08-.04.11-.06c.01-.01.03-.03.04-.04t0,0h0s-.03.04-.04.05c-.03.03-.07.04-.11.06h0Z"/>
                  <path d="M16.41,7.47h0s.05-.04.09-.05c.02-.01.04-.02.06-.02,0,0,0,0,0,0t0,0s-.04.02-.06.02c-.03.01-.06.03-.09.05h0Z"/>
                  <path d="M16.44,7.57h0s0,0,0,0c.02-.02.03-.04.05-.06l.04-.04h0s0,0,0,0c-.01.01-.03.03-.04.04-.02.02-.03.03-.05.05h0Z"/>
                  <path d="M16.48,7.57h0s0,0,0,0c.02-.01.03-.03.05-.05.01-.01.02-.03.02-.04,0,0,0,0,0,0h0s-.01.03-.02.04c-.01.02-.03.03-.05.05h0Z"/>
                  <path d="M16.53,7.66h0s0,0,0,0c0-.02.01-.04.02-.06,0-.01.01-.02.02-.03h0s0,0,0,0c0,.01-.01.02-.02.03-.01.02-.02.04-.02.07h0Z"/>
                  <path d="M16.55,7.67h0s0,0,0,0c.01-.01.02-.03.02-.04,0-.02.01-.03.01-.05t0,0h0s0,.04-.01.05c0,.02-.01.03-.02.05h0Z"/>
                  <path d="M16.55,7.7h0s.03-.02.04-.03.02-.02.02-.03c0,0,0,0,0,0t0,0s-.02.02-.03.03-.03.02-.04.02h0Z"/>
                  <path d="M17.02,7.06s0,0,0,0c0,0,0,0,0,0,.02-.01.04-.02.06-.03.03,0,.05-.01.08-.01,0,0,0,0,0,0h0s-.05,0-.08.01c-.02,0-.04.01-.06.03,0,0,0,0,0,0Z"/>
                  <path d="M17.05,7.11h0s0,0,0,0c.01-.02.03-.03.04-.04.03-.02.06-.03.1-.03,0,0,0,0,0,0t0,0s-.07.01-.1.03c-.02.01-.03.02-.04.04h0Z"/>
                  <polygon points="17.16 7.23 17.06 7.23 17.06 7.23 17.06 7.23 17.16 7.23 17.16 7.23 17.16 7.23"/>
                  <path d="M17.06,7.27h0s0,0,0,0c.01,0,.03,0,.04,0,.02,0,.04-.01.07-.02h0s0,0,0,0c-.02,0-.04.01-.07.01-.01,0-.03,0-.04,0h0Z"/>
                  <path d="M17.05,7.32h0s0,0,0,0c0,0,0,0,0,0,.02,0,.05,0,.07-.02,0,0,.02-.01.02-.02h0s0,0,0,0c0,.01-.02.02-.03.02-.02.02-.05.02-.07.02Z"/>
                  <path d="M17.14,7.47h0s-.04-.01-.06-.03c-.01,0-.03-.02-.04-.03h0s0,0,0,0c.01.01.02.02.04.03.02.01.04.02.06.02t0,0s0,0,0,0Z"/>
                  <path d="M17.13,7.48h0s-.05,0-.07-.01-.05-.01-.07-.03h0s0,0,0,0c.02.01.04.02.07.03.02,0,.05.01.07.01h0s0,0,0,0Z"/>
                  <path d="M17.04,7.59h0s-.03-.02-.04-.03c-.01-.02-.02-.03-.03-.05,0,0,0,0,0,0,0,0,0,0,0,0,0,.01.01.03.03.04,0,.01.02.02.03.02,0,0,0,0,0,0,0,0,0,0,0,0Z"/>
                  <path d="M17.03,7.6h0s-.04-.01-.05-.03c0,0-.02-.01-.02-.02,0,0,0,0,0,0,0,0,0,0,0,0,0,0,.01.01.02.02.01.01.03.02.05.02h0s0,0,0,0Z"/>
                  <path d="M17.15,7.45h0s-.03-.04-.05-.05c-.02-.01-.03-.02-.06-.03h0s0,0,0,0c.02,0,.04.01.06.03.02.01.04.03.05.05,0,0,0,0,0,0h0Z"/>
                  <path d="M16.97,7.71s0,0,0,0c-.01-.02-.02-.04-.03-.05-.01-.02-.02-.04-.03-.06,0,0,0,0,0,0h0s.02.04.03.06.02.04.03.05c0,0,0,0,0,0h0Z"/>
                  <path d="M16.95,7.71h0s-.04-.03-.05-.05c0-.02-.01-.03-.02-.05,0,0,0,0,0,0t0,0s.01.03.02.05c.01.02.03.03.05.04,0,0,0,0,0,0,0,0,0,0,0,0Z"/>
                  <path d="M16.92,7.71h0s-.02-.01-.03-.02c-.01-.01-.02-.02-.03-.03h0s0,0,0,0l.03.03s.02.01.03.02h0s0,0,0,0Z"/>
                  <path d="M16.84,7.78s0,0,0,0c0-.01,0-.02,0-.03,0-.02,0-.03-.01-.05,0,0,0,0,0,0,0,0,0,0,0,0,0,.02.01.03.01.05,0,0,0,.02,0,.03,0,0,0,0,0,0h0Z"/>
                  <path d="M16.75,7.77h0s0-.02,0-.04c0-.01,0-.03,0-.04,0,0,0,0,0,0,0,0,0,0,0,0,0,.01,0,.03,0,.04s0,.02,0,.03h0Z"/>
                  <path d="M16.66,7.77h0s0-.02,0-.03v-.04s0,0,0,0h0s0,0,0,0v.04s0,.02,0,.03h0Z"/>
                  <path d="M16.72,7.77h0s-.01-.02-.01-.03c0-.01,0-.02,0-.04h0s0,0,0,0c0,0,0,.02,0,.03,0,.01,0,.02.01.03h0s0,0,0,0Z"/>
                </g>
              </g>
            </g>
          </g>
          <g>
            <g>
              <path class="cls-5" d="M16.55,8.9s-.02-.06-.06-.09c.14-.04.13-.13.13-.13s0,0,0,0c0,0,0,0,0,0,0,0-.05,0-.1,0,.07-.06.1-.16.1-.23,0,0,0,0,0,0,0,0,0,0-.01,0-.01,0-.03.01-.06.02-.03,0-.06.01-.1.02,0-.05.07-.15.12-.22.01-.02.03-.04.04-.05,0-.01.01-.02,0-.03-.01-.01-.03,0-.07.02-.01,0-.02.01-.03.01-.04,0-.07.01-.1.05-.05-.02-.08,0-.12.04,0-.02,0-.03-.01-.04s-.01,0-.02-.01c0-.02,0-.04,0-.05,0,0,0,0,0,0l-.12-.13h0s0,0,0,0h0s0,0,0,0h0l-.11.13s0,0,0,0c0,.01-.01.03,0,.05-.01,0-.01,0-.02.01-.01,0-.01.02-.02.04-.04-.04-.07-.06-.12-.04-.04-.04-.06-.05-.1-.05-.01,0-.02-.01-.03-.01-.04-.02-.06-.03-.07-.02s0,.02,0,.03c0,.01.02.03.04.05.05.06.12.17.12.22-.04-.01-.07-.02-.1-.02-.03,0-.05-.01-.07-.02,0,0,0,0-.01,0,0,0,0,0,0,0,0,.08.03.18.1.23-.05,0-.1,0-.1,0,0,0,0,0,0,0,0,0,0,0,0,0,0,0,0,.09.13.13-.04.03-.05.06-.06.09,0,.03-.01.04-.03.05-.01,0-.02,0-.02.01,0,0,0,.01.01.02.02.02.1.03.16,0-.02.03-.04.06-.03.12,0,0,0,0,0,0,0,0,0,0,0,0,.05,0,.08-.01.1-.02-.01.02-.01.05-.02.07,0,.02,0,.04,0,.04,0,0,0,0,0,.01,0,0,0,0,0,0,.06,0,.11,0,.14-.02,0,.05,0,.07,0,.1,0,0,0,0,0,.01,0,0,0,0,0,0,0,0,0,0,.01,0,.02-.02.04-.05.05-.06.02.02.04.05.04.06,0,0,0,.01,0,.01,0,0,.01,0,.01-.01,0-.01.02-.04.04-.06.01.01.03.04.05.06,0,0,0,0,.01,0,0,0,0,0,0,0,0,0,0,0,0-.01,0-.03.02-.05,0-.1.03.02.08.02.14.02,0,0,0,0,0,0s0-.01,0-.01c0,0,0-.02,0-.04,0-.02,0-.05-.01-.07.01,0,.04.01.1.02,0,0,0,0,0,0,0,0,0,0,0,0,0-.06-.01-.09-.03-.12.06.02.14.01.16,0,.01,0,.01-.01.01-.02,0,0,0-.01-.02-.01-.02,0-.02-.02-.03-.05Z"/>
              <g>
                <path d="M16.55,8.9s-.02-.06-.06-.09c.14-.04.13-.13.13-.13s0,0,0,0c0,0,0,0,0,0,0,0-.05,0-.1,0,.07-.06.1-.16.1-.23,0,0,0,0,0,0,0,0,0,0-.01,0-.01,0-.03.01-.06.02-.03,0-.06.01-.1.02,0-.05.07-.15.12-.22.01-.02.03-.04.04-.05,0-.01.01-.02,0-.03-.01-.01-.03,0-.07.02-.01,0-.02.01-.03.01-.04,0-.07.01-.1.05-.05-.02-.08,0-.12.04,0-.02,0-.03-.01-.04s-.01,0-.02-.01c0-.02,0-.04,0-.05,0,0,0,0,0,0l-.12-.13h0s0,0,0,0h0s0,0,0,0h0l-.11.13s0,0,0,0c0,.01-.01.03,0,.05-.01,0-.01,0-.02.01-.01,0-.01.02-.02.04-.04-.04-.07-.06-.12-.04-.04-.04-.06-.05-.1-.05-.01,0-.02-.01-.03-.01-.04-.02-.06-.03-.07-.02s0,.02,0,.03c0,.01.02.03.04.05.05.06.12.17.12.22-.04-.01-.07-.02-.1-.02-.03,0-.05-.01-.07-.02,0,0,0,0-.01,0,0,0,0,0,0,0,0,.08.03.18.1.23-.05,0-.1,0-.1,0,0,0,0,0,0,0,0,0,0,0,0,0,0,0,0,.09.13.13-.04.03-.05.06-.06.09,0,.03-.01.04-.03.05-.01,0-.02,0-.02.01,0,0,0,.01.01.02.02.02.1.03.16,0-.02.03-.04.06-.03.12,0,0,0,0,0,0,0,0,0,0,0,0,.05,0,.08-.01.1-.02-.01.02-.01.05-.02.07,0,.02,0,.04,0,.04,0,0,0,0,0,.01,0,0,0,0,0,0,.06,0,.11,0,.14-.02,0,.05,0,.07,0,.1,0,0,0,0,0,.01,0,0,0,0,0,0,0,0,0,0,.01,0,.02-.02.04-.05.05-.06.02.02.04.05.04.06,0,0,0,.01,0,.01,0,0,.01,0,.01-.01,0-.01.02-.04.04-.06.01.01.03.04.05.06,0,0,0,0,.01,0,0,0,0,0,0,0,0,0,0,0,0-.01,0-.03.02-.05,0-.1.03.02.08.02.14.02,0,0,0,0,0,0s0-.01,0-.01c0,0,0-.02,0-.04,0-.02,0-.05-.01-.07.01,0,.04.01.1.02,0,0,0,0,0,0,0,0,0,0,0,0,0-.06-.01-.09-.03-.12.06.02.14.01.16,0,.01,0,.01-.01.01-.02,0,0,0-.01-.02-.01-.02,0-.02-.02-.03-.05ZM16.5,8.97s-.07,0-.1-.03c0,0-.01,0-.01,0s0,.01,0,.01c0,.01.01.02.02.03.02.03.04.05.03.11-.08-.01-.09-.02-.1-.03h-.01s0,.01,0,.01c.01.03.02.06.02.09,0,.01,0,.03,0,.03-.1,0-.13-.02-.13-.03,0,0,0,0-.01,0,0,0,0,0,0,.01.01.06,0,.09,0,.11-.02-.03-.05-.06-.05-.06,0,0,0,0,0,0,0,0,0,0,0,0,0,0-.03.03-.05.06-.01-.03-.04-.05-.04-.06t0,0s0,0,0,0c0,0-.02.03-.04.06,0-.03-.01-.05,0-.11,0,0,0-.01,0-.01,0,0-.01,0-.01,0,0,0-.03.03-.13.03,0,0,0-.02,0-.03,0-.03.01-.06.03-.09,0,0,0-.01,0-.01h-.01s-.02.02-.1.03c0-.05.01-.07.03-.11,0,0,.01-.02.02-.03,0,0,0-.01,0-.01,0,0,0,0-.01,0-.06.04-.15.03-.17.02.02-.01.03-.03.04-.06.01-.03.02-.07.07-.1,0,0,0,0,0,0,0,0,0,0,0-.01-.11-.02-.13-.08-.14-.11.02,0,.08,0,.12,0,0,0,0,0,0-.01,0,0,0,0,0,0-.07-.05-.1-.14-.11-.22.01,0,.03.01.06.01.03,0,.06.01.11.03,0,0,0,0,0,0,0,0,0,0,0,0,.01-.06-.06-.16-.12-.25-.02-.02-.03-.04-.04-.05,0,0,0,0,0-.01.01,0,.03.02.05.02,0,0,.02.01.03.01h0s.06,0,.1.05c0,0,.01,0,.01,0,.04-.02.07,0,.12.06,0,0,0,0,.01,0,0,0,0,0,0,0,0-.04,0-.05.01-.05,0,0,.02,0,.03,0,0,0,.01,0,.01,0,0,0,0,0,0-.01-.03-.02-.02-.04-.01-.04l.11-.12.11.12s.01.03-.01.04c0,0,0,0,0,.01,0,0,0,0,.01,0,.01,0,.02,0,.03,0,0,0,.01.02.01.05,0,0,0,0,0,0,0,0,0,0,.01,0,.05-.06.08-.08.12-.06,0,0,.01,0,.01,0,.04-.04.06-.05.1-.05h0s.02-.01.03-.01c.01,0,.03-.02.04-.02,0,0,0,0,0,.01,0,.01-.02.03-.04.05-.07.1-.14.19-.12.25h0s0,0,.01,0c.04-.01.07-.02.11-.03.02,0,.04,0,.06-.01,0,.07-.03.17-.11.22,0,0,0,0,0,0,0,0,0,0,0,.01.04,0,.1,0,.12,0,0,.02-.02.08-.14.11t-.01.01s0,0,0,0c.05.03.06.06.07.1,0,.03.02.05.04.06-.01,0-.04.01-.07.01Z"/>
                <path d="M16.05,8.64s0,0,0,0h0s0-.01,0-.01c-.04-.05-.13-.06-.13-.06s0,0,0,0c0,0,0,.01,0,.01s.09.01.12.06Z"/>
                <path d="M16.08,8.75s0,0,0-.01c0,0,0,0-.01,0,0,0-.04.02-.03.09,0,0,0,0,.01,0h0s0,0,0-.01c-.01-.05.02-.07.02-.07Z"/>
                <path d="M16.06,9.02s0,0,.01,0c0,0,0-.01,0-.01-.01,0-.08-.05-.09-.05,0,0-.01,0-.01,0,0,0,0,.01,0,.01,0,0,.05.03.09.05h0Z"/>
                <path d="M16.06,9.05s0,0,0,0c0,0,0-.01,0-.01l-.07-.03s-.01,0-.01,0c0,0,0,.01,0,.01l.07.03h0Z"/>
                <path d="M16.14,8.64h0s0,0,0,0c.03-.05.12-.06.12-.06,0,0,.01,0,.01-.01,0,0,0,0-.01,0s-.1.01-.13.06c0,0,0,.01,0,.01Z"/>
                <path d="M16.33,8.6s-.04.03-.06.04c-.03.02-.06.03-.09.04-.03,0-.04,0-.05,0-.01,0-.01-.02-.01-.04,0-.05.03-.1.03-.1,0,0,0-.01,0-.01,0,0-.01,0-.01,0,0,0-.01.03-.02.06,0-.03-.02-.06-.02-.06,0,0,0,0-.01,0,0,0,0,0,0,.01,0,0,.03.05.03.1,0,.02,0,.03-.01.04-.01.01-.02.01-.05,0-.02,0-.06-.02-.09-.04-.02-.01-.04-.03-.06-.04,0,0-.01,0-.01,0s0,0,0,.01c.02.02.04.03.06.05,0,0,0,0,0,0,.01.03.04.07.07.08h0s.03-.01.04-.04c.02,0,.03,0,.04-.01,0,0,0-.01,0-.02,0,0,0,.01.01.02.01.01.02.01.04.01.01.02.03.04.05.04h0s.06-.05.07-.08c0,0,0,0,0,0,.02-.02.05-.03.06-.05,0,0,0,0,0-.01s0,0-.01,0ZM15.99,8.72s-.02-.03-.03-.04c.01,0,.02.01.04.02,0,.01,0,.02,0,.03ZM16.22,8.72s0-.02,0-.03c.01,0,.02-.01.03-.02,0,.02-.02.03-.03.04Z"/>
                <path d="M16.18,9.07s-.04,0-.06-.01c0,0,0-.01,0-.02h0v-.06h.01s.06-.01.06-.05c0-.02,0-.03-.01-.04-.01-.01-.04-.01-.05,0,0,0,0,0,0,.01,0,0,0,0,.01,0,.01,0,.03-.01.04,0,0,0,0,.01,0,.02,0,.02-.02.03-.05.03h0s-.06.01-.07-.02c0-.01,0-.02,0-.04,0,0,0-.01,0-.01,0,0,0,0,0,0,0,.02,0,.03,0,.05.01.02.02.03.06.03h0v.06h0s0,.01-.01.02c-.01.01-.05.01-.06.01,0,0-.01,0-.01,0,0,0,0,.01,0,.01h.02s.04,0,.05-.01c0,0,0,0,0,0h0s.01.01.02.02h0s-.02.02-.04.02h0s0,0,0,0c0,0,0,.01.01.01h0s.05,0,.06-.02c0,0,0,0,0,0h.04s0,0,0-.01c0,0,0-.01-.01,0Z"/>
                <path d="M16.22,8.95s-.07.04-.09.05c0,0,0,.01,0,.01,0,0,0,0,0,0h0s.08-.05.09-.05c0,0,0-.01,0-.01s0,0-.01,0Z"/>
                <path d="M16.21,9l-.07.03s0,0,0,.01c0,0,0,0,.01,0h0l.07-.03s0,0,0-.01c0,0,0,0-.01,0Z"/>
                <path d="M16.36,8.47c-.09-.01-.18-.02-.27-.02-.09,0-.17.01-.26.03,0,0,0,0,0,0,0,0,0,0,0,0h0c.09-.02.17-.02.26-.03.09,0,.18,0,.27.02,0,0,0,0,0,0,0,0,0,0,0,0Z"/>
                <path d="M16.38,8.45c-.09-.02-.19-.03-.28-.03-.09,0-.18.01-.27.03t0,0s0,0,0,0h0c.09-.02.17-.03.26-.04.1,0,.19.01.28.03,0,0,0,0,0,0,0,0,0,0,0,0Z"/>
                <path d="M16.41,8.35s0,0,0,0c-.11-.01-.22-.02-.33-.02-.1,0-.19.01-.29.03,0,0,0,0,0,0t0,0h0c.1-.02.19-.03.29-.03.11,0,.22,0,.33.01,0,0,0,0,0,0Z"/>
                <path d="M16.37,8.38s0,0,0,0c0,0,0,0,0,0-.09-.01-.18-.01-.27-.01-.1,0-.2.01-.29.03t0,0s0,0,0,0h0c.1-.02.19-.03.29-.03.09,0,.18,0,.26.01Z"/>
                <path d="M16.1,8.16s0,0,0,0c0,0,0,0,0,0l-.04.05s0,.01,0,.01l.05.04s0,0,0,0,0,0,0,0l.03-.05s0-.01,0-.01l-.04-.04ZM16.1,8.25l-.03-.03.03-.03.03.03-.02.03Z"/>
              </g>
            </g>
            <g>
              <path d="M16.44,8.63h0s.03-.04.05-.06l.04-.05s0,0,0,0h0s-.03.04-.04.05c-.01.02-.03.04-.04.06h0Z"/>
              <g>
                <path d="M15.81,8.54h0s-.02-.02-.03-.02c-.03-.02-.06-.03-.11-.03,0,0,0,0,0,0h0s.08.01.11.03l.03.02h0s0,0,0,0Z"/>
                <path d="M15.79,8.57h0s-.04-.01-.05-.02c-.02-.01-.03-.02-.05-.03h0s0,0,0,0l.05.03s.04.02.05.03t0,0h0Z"/>
                <path d="M15.79,8.64h0s-.04,0-.06-.02c-.03-.02-.04-.04-.05-.06,0,0,0,0,0,0,0,0,0,0,0,0,0,.01.02.03.04.05.02.01.04.02.06.02h0Z"/>
                <path d="M15.67,8.72h0s0,0,0,0c.03,0,.06,0,.1,0,.01,0,.03,0,.04,0,0,0,0,0,0,0t0,0s-.03,0-.04,0c-.03,0-.06,0-.1,0h0Z"/>
                <path d="M15.73,8.75s0,0,0,0h0s.04,0,.05-.01c.02,0,.03,0,.04-.01t0,0h0s-.03.01-.04.02c-.02,0-.04,0-.06,0h0Z"/>
                <path d="M15.75,8.88h0s0,0,0,0c0-.02.02-.03.03-.05.01-.02.03-.04.04-.05,0,0,0,0,0,0,0,0,0,0,0,0-.01.02-.03.03-.04.05-.01.02-.02.03-.03.05h0Z"/>
                <path d="M15.69,8.92h0s0,0,0,0c.04-.01.07-.03.11-.06.02-.01.03-.03.04-.05h0s-.03.04-.05.05c-.03.03-.06.05-.11.06h0Z"/>
                <path d="M15.77,8.93h0s.05-.04.09-.05c.02-.01.04-.02.06-.02h0s0,0,0,0c-.02,0-.04.01-.06.02-.03.01-.05.03-.08.04h0Z"/>
                <path d="M15.8,9.04h0s0,0,0,0l.05-.05s.03-.03.04-.04c0,0,0,0,0,0h0s-.03.03-.04.04c-.02.02-.03.04-.05.05,0,0,0,0,0,0Z"/>
                <path d="M15.84,9.04h0s0,0,0,0c.02-.01.03-.03.05-.05l.02-.04h0s0,0,0,0c0,.01-.01.03-.02.04-.01.02-.03.03-.05.05,0,0,0,0,0,0Z"/>
                <path d="M15.89,9.13h0s0,0,0,0c0-.02.01-.05.02-.07,0-.01.01-.02.02-.03h0s0,0,0,0c0,.01,0,.02-.01.03-.01.02-.02.04-.02.06,0,0,0,0,0,0Z"/>
                <path d="M15.91,9.14h0s0,0,0,0c0-.01.01-.03.02-.04s.01-.03.01-.05c0,0,0,0,0,0,0,0,0,0,0,0,0,.02-.01.03-.01.05,0,.01-.01.03-.02.04h0Z"/>
                <path d="M15.91,9.17h0s0,0,0,0c.02,0,.03-.01.04-.02,0-.01.02-.02.02-.03h0s0,0,0,0c0,.01-.01.02-.02.03-.01.01-.03.02-.04.02h0Z"/>
                <path d="M16.38,8.53s0,0,0,0h0s.04-.03.06-.03c.03,0,.05-.01.08,0t0,0s0,0,0,0c-.02,0-.05,0-.08.01-.02,0-.04.02-.06.03h0Z"/>
                <path d="M16.41,8.58s0,0,0,0h0s.03-.03.04-.04c.03-.02.06-.03.1-.04h0s0,0,0,0c-.03,0-.07.02-.1.03-.01.01-.03.02-.04.04h0Z"/>
                <polygon points="16.52 8.71 16.42 8.71 16.42 8.7 16.42 8.7 16.52 8.7 16.52 8.7 16.52 8.71"/>
                <path d="M16.42,8.74h0s0,0,0,0c.01,0,.03,0,.04,0,.02,0,.05-.01.07-.02t0,0h0s-.04.02-.07.02c-.01,0-.03,0-.04,0h0Z"/>
                <path d="M16.41,8.79h0s0,0,0,0c0,0,0,0,0,0,.02,0,.04,0,.07-.02.01,0,.02-.01.03-.02h0s-.02.02-.03.03c-.03.02-.05.02-.07.02Z"/>
                <path d="M16.5,8.93h0s-.05-.01-.06-.02c-.02-.01-.03-.02-.04-.03h0s0,0,0,0c.01.01.02.02.04.03.02.01.04.02.06.02,0,0,0,0,0,0h0Z"/>
                <path d="M16.48,8.94h0s-.05,0-.07-.01-.05-.02-.07-.03t0,0h0s.04.02.07.03.05.01.07.01h0s0,0,0,0Z"/>
                <path d="M16.4,9.06h0s-.02-.01-.03-.02c-.02-.02-.02-.04-.03-.05t0,0h0s.01.03.02.05c.01.01.02.02.03.02h0,0Z"/>
                <path d="M16.38,9.07h0s-.04-.01-.05-.02c0,0-.01-.01-.02-.02h0s0,0,0,0c0,0,.01.01.02.02.02.01.03.02.05.02h0s0,0,0,0Z"/>
                <path d="M16.5,8.91h0s-.03-.04-.05-.05c-.02-.01-.04-.02-.06-.03,0,0,0,0,0,0,0,0,0,0,0,0,.02,0,.04.01.06.02.02.02.04.03.05.05h0s0,0,0,0Z"/>
                <path d="M16.33,9.18h0s-.02-.04-.03-.06-.02-.04-.03-.06c0,0,0,0,0,0,0,0,0,0,0,0,.01.02.02.04.03.06,0,.02.02.03.03.05h0s0,0,0,0Z"/>
                <path d="M16.31,9.18h0s-.04-.03-.05-.05c-.01-.02-.02-.03-.02-.05,0,0,0,0,0,0,0,0,0,0,0,0,0,.02.01.03.02.05,0,.02.03.03.05.04h0s0,0,0,0Z"/>
                <path d="M16.28,9.18h0s-.02-.01-.03-.02c-.01-.01-.02-.02-.03-.03,0,0,0,0,0,0,0,0,0,0,0,0,.01.01.02.02.03.03l.03.02s0,0,0,0h0Z"/>
                <path d="M16.2,9.25s0,0,0,0c0,0,0-.02,0-.03,0-.02-.01-.03-.01-.05h0s0,0,0,0c0,.02.01.03.02.05,0,.01,0,.02,0,.03,0,0,0,0,0,0h0Z"/>
                <path d="M16.1,9.24h0s0,0,0,0c0-.01,0-.02,0-.03,0-.02,0-.03,0-.04t0,0h0s0,.03,0,.05c0,.01,0,.02-.01.03h0Z"/>
                <path d="M16.02,9.24h0s0-.02,0-.03v-.04h0s0,0,0,0c0,.01,0,.03,0,.04,0,.01,0,.02,0,.03t0,0Z"/>
                <path d="M16.08,9.24h0s-.01-.02-.01-.03c0-.01,0-.02,0-.04h0s0,0,0,0c0,0,0,.02,0,.03,0,.01,0,.02.01.03t0,0h0Z"/>
              </g>
            </g>
          </g>
        </g>
        <g>
          <g>
            <path class="cls-2" d="M17.97,8.81s-.02,0-.04,0c-.01,0-.02.01-.03.01-.05.02-.07.04-.07.05,0,0,0,.01.01.02s.02,0,.02,0h0s0,0,0,.01c0,.01,0,.02.02.03.02.02.06.02.1.02.03,0,.06-.02.07-.04,0-.01.01-.03,0-.06h0s-.03-.01-.05-.02c-.02-.01-.03-.01-.04-.02Z"/>
            <path class="cls-2" d="M18.13,8.96s0,0-.01,0c-.06.04-.09.08-.09.11,0,.01.01.02.03.03,0,0,.01,0,.02,0h0s0,.01.02.02c.02.01.05,0,.08,0s.06-.04.06-.07h0s0-.03,0-.05c-.02-.01-.03-.03-.07-.04-.03,0-.04,0-.06,0Z"/>
            <path class="cls-2" d="M18.57,8.99s-.03-.02-.04-.03c-.01,0-.02,0-.04.01-.03,0-.05.01-.05.05,0,.01,0,.02,0,.03,0,.02,0,.04,0,.05,0,.01.03.02.05.02.06,0,.11,0,.13-.02,0,0,.01-.02.01-.03,0-.02,0-.02,0-.02,0,0,0,0,.01,0,0,0,0,0,0,0-.02-.02-.03-.02-.07-.04Z"/>
            <path class="cls-5" d="M19.74,7.98s-.03-.01-.07,0c-.02,0-.04,0-.07.01-.02,0-.03,0-.05,0-.01,0-.03,0-.06,0-.04,0-.07.01-.09.01-.03,0-.05,0-.07,0-.02,0-.02-.01-.03-.02-.01,0-.02-.02-.05-.02-.05-.02-.09-.01-.12,0h0c-.07.01-.14,0-.2,0h-.02s-.01,0-.02,0c0,0,0,0-.01-.01,0,0,0,0,0,0-.03-.04-.1-.04-.15-.04h-.06s-.05,0-.07-.01c-.01-.01-.02-.02-.02-.03,0-.01-.01-.03-.03-.04-.02-.02-.03-.03-.05-.04-.01-.01-.03-.02-.04-.04,0-.01,0-.01-.01-.02,0-.01,0-.02-.01-.04-.01-.03-.02-.05-.03-.07-.01-.02-.02-.04-.02-.06,0-.02.01-.04.02-.04,0,0,0,0,0,0,0,0,0,.01.01.01.04.03.11,0,.13-.02.04-.02.08-.05.09-.07,0,0,0-.01,0-.01,0-.01-.02-.01-.03,0h-.03s-.06-.02-.09-.04c0,0-.01,0-.02,0s-.02,0-.03,0c-.03,0-.03.01-.07.03-.01,0-.02,0-.03.01-.02.01-.03.02-.04.02-.02,0-.02-.02-.04-.04-.03-.02-.07-.01-.08-.03,0,0,0-.01,0-.02-.01-.02-.05,0-.05-.02,0,0,0-.01,0-.02v-.02s-.03-.02-.05-.03c-.05-.03-.15-.05-.17-.01,0,0,0,.01,0,.02,0,.02,0,.05.04.1.02.01.03.02.05.03-.01.03-.03.06-.07.1-.03.03-.04.06-.05.08,0,0,0,.01,0,.01,0,0,0,.01,0,.02,0,.02.01.04.04.06.01,0,.02.02.02.03,0,.02.01.04.05.04.04,0,.04-.01.05-.02,0,0,0-.01.02-.01.02,0,.03,0,.04,0,0,0,0,0,0,.01s-.01.01-.02.02c-.03.03-.06.06-.04.1,0,.01,0,.02,0,.03,0,.01-.01.02.01.04.01.01.02.01.03.01,0,0,0,.02,0,.02,0,.04,0,.05-.01.07,0,.01-.01.02-.02.05,0,.02-.01.03-.02.04,0,0-.02.01-.03.05-.02.06-.02.08.01.1.01,0,.02,0,.02.01h0s0,.02,0,.03c0,.03,0,.06.02.08,0,.01.01.02.01.03-.02.04,0,.07.01.07.01.01.01.02.01.04h0s.01.03.01.04c0,0,.01.01,0,.03-.03.06-.05.11-.06.16,0,.03-.02.05-.03.07,0,0-.01.01-.01.02,0,.02-.02.03-.04.04.02,0,.03,0,.04,0,0,0,.02,0,.04.02.02,0,.03.01.05.02,0,0,.01-.01.02-.01.01-.01.02-.02.02-.05,0-.03,0-.04,0-.05,0,0,0-.01.01-.02,0-.01,0-.02,0-.02,0,0,.01-.01.03-.05.04-.09.07-.12.09-.11.02.01.04.03.02.07,0,.01-.01.02-.01.03-.02.03-.03.06-.03.13,0,.08,0,.08-.03.12h0s-.03.05-.03.06h0s0,0,0,.01c.01,0,.03,0,.06,0,.04.01.05.03.07.04,0,0,0-.01.01-.02,0,0,0,0,.01,0,.01,0,.02,0,.02-.04,0-.02,0-.03.01-.05,0-.03.01-.06.03-.09.01-.02.01-.04.02-.06,0-.04.02-.08.07-.1.06-.03.09-.02.11-.02.01,0,.02,0,.04,0s.02,0,.03,0c0,0,0,0,0,.01s0,.01-.01.02c0,0-.01.01,0,.02,0,.01.01.01.05,0,.03-.01.05-.02.06-.04t0,0h0s0,.06,0,.07c0,.01,0,.02,0,.03,0,.01-.01.02-.02.03-.01.02-.03.03-.04.08-.01.05-.04.06-.07.08-.01,0-.02.01-.03.02,0,0-.01,0-.02.01,0,0,.02.01.04.03.03.02.05.02.07.04,0,0,0,0,0,0h0s0,0,.02,0c.04,0,.04-.03.06-.07v-.02s.03-.09.11-.11c.02,0,.04-.01.05-.01.03,0,.03-.01.06-.06h0s.02-.04.02-.05c0,0,0-.01.01-.02,0,0,.01.01.02.02h.01s.03.03.04.04c.04.03.06.04.05.08-.02.06-.1.14-.13.16,0,0-.01,0-.02.01-.02,0-.04.01-.05.05v.03s0,0,0,0c.02,0,.05,0,.08.01.02,0,.05.01.08.03,0-.02.02-.04.04-.07.01-.01.02-.02.03-.04.02-.03.03-.05.04-.06s.01-.02.03-.04c.02-.02.04-.03.06-.04,0,0,.01-.01.02-.01.04-.03.08-.05.1-.1,0-.02,0-.03,0-.03,0-.01,0-.02,0-.03,0-.01.01-.02.02-.03.01-.01.02-.02.03-.04.01-.03.01-.05.02-.05,0-.03,0-.05,0-.08,0-.02-.01-.03-.01-.04s0-.01,0-.03c0-.02,0-.05.01-.07,0-.01.01-.02.02-.03,0-.01.02-.02.02-.03,0-.01,0-.02-.01-.03,0,0,0-.01,0-.01,0,0,.01,0,.03-.01.01,0,.03-.01.06-.02.03-.02.05-.04.06-.06.01-.02.02-.03.02-.05,0-.01,0-.02.01-.03.01,0,.02-.01.03-.01.01,0,.03,0,.04-.02.02-.02.03-.06.02-.08Z"/>
            <path class="cls-2" d="M18.9,9.09s0,.01-.02.02c-.01,0-.02,0-.03.01-.02.01-.04.02-.05.03,0,.01,0,.03.03.04.01,0,.01.01.02.01t0,0s-.02,0-.02.01c0,.01,0,.02.01.02.01.01.04.01.07.01.02,0,.05,0,.08-.01.04-.01.07-.03.08-.06,0-.01,0-.02,0-.03,0,0,0-.01,0-.02h0s-.06-.03-.08-.04c-.03,0-.06-.01-.08-.01Z"/>
            <path class="cls-2" d="M18.11,7.27s0,.02,0,.02c0,.02.04,0,.05.02,0,0,0,.01,0,.02.01.02.05.01.08.03.02.02.02.04.04.04.01,0,.01-.01.04-.02.01,0,.02,0,.03-.01.04-.01.04-.02.07-.03.01,0,.02,0,.03,0s.01,0,.02,0c0,0,0,0,0,0,.18-.04.31.06.43.15.07.05.15.11.23.14.09.02.16.03.21.03.1,0,.16-.03.19-.07,0,0,0,0,0-.01s0,0-.01,0c-.27.03-.43-.1-.59-.24.06.03.15.05.25.03.06-.01.12-.04.17-.07,0,0,0,0,0-.01,0,0,0,0,0,0,0,0-.18.01-.29-.02-.04-.01-.07-.03-.12-.06-.09-.05-.21-.12-.39-.12-.24,0-.41.14-.44.17,0,0,0,0,0,0v.02Z"/>
          </g>
          <g>
            <path d="M18.16,7.3s0,0,0,0t0,0s0,0,0,0c0,0,0,0,0,0ZM19.74,7.98s-.03-.01-.07,0c-.02,0-.04,0-.07.01-.02,0-.03,0-.04,0-.01,0-.03,0-.07,0-.04,0-.07,0-.09.01-.03,0-.05.01-.07,0-.02,0-.03-.01-.04-.02-.01,0-.02-.02-.04-.02-.05-.02-.09-.01-.12,0h0c-.07.01-.14,0-.2,0h-.02s-.01,0-.01,0,0,0-.01-.01c0,0,0,0,0,0-.03-.04-.1-.04-.15-.04h-.06s-.05,0-.07-.01c-.01-.01-.01-.02-.02-.03,0-.01-.01-.03-.03-.04-.02-.02-.03-.03-.05-.04-.01-.01-.02-.02-.04-.03,0-.01,0-.02-.01-.03,0-.01,0-.02-.01-.04-.01-.03-.02-.05-.03-.07-.01-.02-.02-.04-.02-.06,0-.02.02-.04.02-.04h0s0,.01.01.02c.04.03.11,0,.13-.02.04-.02.08-.05.09-.07,0,0,0-.01,0-.01,0-.01-.02-.01-.03,0h-.03s-.02,0-.03,0c-.01,0-.02-.01-.03-.02-.01,0-.02-.01-.02-.02.19-.04.31.06.43.15.07.05.15.11.23.14.09.02.16.03.21.03.1,0,.15-.03.19-.07,0,0,0,0,0-.01,0,0,0,0-.01,0-.27.03-.43-.1-.59-.24.06.03.15.05.25.03.06-.01.12-.04.17-.07,0,0,0,0,0-.01,0,0,0,0-.01,0,0,0-.18.01-.29-.02-.03-.01-.07-.03-.12-.06-.09-.05-.21-.12-.39-.12-.24,0-.4.14-.44.17,0,0,0,0,0,0-.02-.01-.03-.02-.05-.03-.05-.03-.15-.05-.17-.01,0,0,0,.01,0,.02,0,.02,0,.05.04.1.02.01.03.02.05.03-.01.04-.03.07-.07.1-.03.03-.04.06-.05.08,0,0,0,0,0,.01s0,.01,0,.02c0,.02.01.04.04.06.01,0,.02.02.02.03,0,.02.01.04.05.04.03,0,.04-.01.05-.02,0,0,0-.01.02-.01.02,0,.03,0,.04,0,0,0,0,0,0,.01,0,0-.01.01-.02.02-.03.03-.06.06-.04.1,0,.01,0,.02,0,.03,0,.01-.01.02.01.04.01.01.02.01.03.01,0,0,0,.02,0,.02,0,.04,0,.05-.01.07,0,.01-.01.02-.02.05,0,.02-.01.03-.02.04-.01,0-.02.01-.03.05-.02.05-.01.08.01.1.01,0,.02.01.02.01h0v.03s0,.06.02.08c0,.01.01.02.01.03-.02.04,0,.07.01.08.01,0,.01.02.01.04h0s.01.03.01.04c0,0,0,.01,0,.03-.03.06-.05.11-.06.16,0,.03-.02.05-.03.06,0,.01-.01.02-.01.02s0,.02-.01.02c0,0-.02.01-.03.02-.01,0-.02.01-.03.02-.04.02-.07.03-.07.05,0,0,0,.01.01.02s.02,0,.02,0h0s0,.03.01.04c.02.01.06.02.11.02.03,0,.06-.02.07-.04,0-.01.01-.03,0-.06h0s.01-.01.01-.01c.02-.01.02-.02.03-.05,0-.03,0-.04,0-.05,0,0,0-.01.01-.02t0-.02s.01-.01.03-.05c.04-.09.07-.11.09-.11.02,0,.04.03.02.07,0,.01-.01.02-.01.03-.02.03-.03.06-.03.13,0,.08,0,.08-.03.12h0s-.03.05-.03.06t0,0s0,0,0,.01c0,0,0,0-.01,0-.06.05-.09.08-.09.11,0,.01.01.02.03.03,0,0,.01,0,.02,0h0s0,.02.02.02c.02.01.05,0,.08,0,.03-.01.06-.04.07-.07h0s0-.03,0-.05c0,0,0-.01.01-.02,0,0,0,0,.01,0,.01,0,.02,0,.02-.04v-.05s.02-.06.04-.09c.01-.02.01-.04.02-.06,0-.04.02-.08.07-.11.05-.02.09-.02.11-.02.01,0,.02,0,.04,0s.02,0,.03,0c0,0,0,0,0,.01,0,0,0,0-.01.01,0,.01-.01.02,0,.02,0,.01.01,0,.05,0,.03,0,.05-.02.06-.03h0s0,.06,0,.08c0,.01,0,.02,0,.03,0,.01-.01.02-.02.03-.01.02-.03.03-.04.08-.02.05-.04.06-.07.09-.01,0-.02.01-.03.02,0,0-.01,0-.02,0-.01,0-.02.01-.04.01-.02,0-.05.01-.05.05,0,0,0,.02,0,.02,0,.02,0,.04,0,.05,0,.01.03.02.05.02.06,0,.11,0,.13-.02,0,0,.01-.02.01-.03,0-.02,0-.02,0-.02,0,0,0,0,.01,0h.02s.04-.03.06-.08v-.02s.03-.09.11-.11c.02,0,.04-.01.05-.01.03,0,.03-.01.06-.06h0s.02-.04.02-.05c0,0,0-.01.01-.02,0,0,.01.01.02.02h.01s.03.03.04.04c.04.03.06.04.05.08-.02.06-.1.14-.13.16,0,0-.01,0-.02.01-.02,0-.05.01-.05.05,0,.02,0,.03,0,.03h0s0,.02-.02.02c0,0-.01,0-.02.01-.03.01-.05.02-.05.03,0,.01,0,.03.03.04.01,0,.01.01.02.01t0,0s-.02,0-.02.01c0,.01,0,.02.01.02.01.01.04.01.07.01.02,0,.05,0,.08-.01.04-.01.07-.03.08-.06,0-.01,0-.02,0-.03,0,0,0-.01,0-.02h0s0,0,0,0c0,0,0-.01,0-.01,0,0,0-.01.01-.02,0,0,.01-.02.02-.03,0-.01.02-.02.03-.03.02-.03.03-.05.04-.06,0-.01.01-.02.03-.04.02-.02.04-.03.06-.04,0,0,.01-.01.02-.01.04-.03.08-.05.1-.1,0-.02,0-.03,0-.03s0-.01,0-.03c0-.01.01-.02.02-.03.01-.01.02-.02.03-.04.01-.02.02-.05.02-.05,0-.03,0-.05,0-.08,0-.02-.01-.03-.01-.04s0-.01,0-.03c0-.02,0-.05.01-.07,0-.01.01-.02.02-.03.01,0,.02-.02.02-.03,0-.01,0-.02-.01-.03s0-.01,0-.01c0,0,.01,0,.03-.01.01,0,.03-.01.06-.02.03-.02.05-.04.06-.06.01-.02.02-.03.02-.04,0-.01,0-.02.01-.03.01,0,.02-.01.03-.01.01,0,.02,0,.04-.02.02-.02.03-.06.02-.08ZM18.57,7.31s.03-.04.02-.07c0-.02-.02-.04-.04-.05.06,0,.13.01.19.04,0,.01.01.03,0,.04,0,.03-.04.05-.06.06-.04-.01-.08-.02-.13-.03ZM18.71,7.34s.05-.03.05-.07c0-.01,0-.02,0-.04.03.01.06.03.1.06t0,0h0s.02.01.03.02c0,.01,0,.03-.01.04-.02.02-.06.03-.08.03-.03-.02-.06-.03-.09-.05ZM19.51,7.6s-.07.04-.15.04c.01-.01.03-.02.03-.05.04,0,.08,0,.13,0ZM19.38,7.6s-.02.04-.03.05c-.03,0-.07,0-.12-.01.02-.01.05-.03.05-.05.03.01.06.02.1.02ZM19.27,7.57s-.04.04-.06.05c-.02,0-.04-.01-.06-.02-.02,0-.05-.02-.07-.03.02,0,.05,0,.07-.02.01-.01.02-.02.02-.03.03.01.06.03.1.04ZM19.16,7.52s0,.02-.01.03c-.02.02-.07.02-.09.02-.04-.02-.07-.05-.11-.07.01,0,.03,0,.05-.02.01-.01.02-.03.02-.04.05.03.09.07.14.09ZM19.02,7.43s-.01.03-.02.04c-.02.02-.04.02-.05.02,0,0-.02-.01-.03-.02-.03-.03-.07-.05-.11-.08.02,0,.06,0,.07-.03.01-.01.01-.02.01-.04.01.01.02.02.03.03.03.02.06.05.09.07ZM19.24,7.3h.1s-.06.03-.1.04c0-.02,0-.03,0-.04ZM19.23,7.3s0,.03,0,.05c-.01,0-.02,0-.03,0-.02,0-.04,0-.06,0,.01-.02.02-.05.02-.07.02,0,.05,0,.07,0ZM19.07,7.27s.05.01.08.02c0,.02,0,.06-.02.07-.05,0-.11-.01-.15-.02.03-.02.04-.06.05-.08.01,0,.03.01.04.02ZM18.95,7.21s.04.03.07.04c0,.02-.02.07-.05.07-.04-.01-.07-.03-.09-.04.04-.01.05-.05.06-.07,0,0,0,0,.01,0ZM18.92,7.2s0,.06-.06.07c-.03-.02-.06-.04-.09-.05.02-.01.03-.03.03-.08.04.02.08.04.11.06ZM18.8,7.14c0,.05-.02.07-.03.08-.04-.02-.07-.03-.11-.03,0,0,.01-.01.01-.02,0-.02-.01-.05-.02-.06.06,0,.11.02.15.04ZM18.56,7.1s.05,0,.08,0c.01.01.03.04.03.06,0,0,0,.01-.02.02-.04-.01-.09-.01-.13-.01h0s-.02-.05-.04-.06c.02,0,.05,0,.07,0ZM18.48,7.11s.04.03.04.05c0,0,0,.01,0,.01-.03,0-.07,0-.1.02-.01-.02-.05-.04-.07-.05.04-.01.09-.03.13-.03ZM17.95,7.3s-.04-.06-.04-.08t0-.01s.09-.01.14.02c.02,0,.03.02.04.03-.03,0-.08.02-.1.06,0,0,0,0,0,0-.02,0-.03-.01-.05-.03ZM19.71,8.05s-.02.01-.03.01c-.01,0-.03,0-.04.02s-.02.03-.02.04c0,.01,0,.02-.01.04-.01.02-.03.04-.06.05-.02.01-.04.02-.05.02-.02,0-.03.01-.04.03,0,.01,0,.02,0,.03,0,0,0,.01,0,.02,0,.01,0,.01-.01.02,0,0-.01.01-.02.03-.01.02-.02.05-.02.08,0,.02,0,.02,0,.03,0,.01,0,.02.01.04,0,.03.01.05,0,.07,0,0,0,.03-.01.05-.01.02-.02.02-.03.03,0,.01-.02.02-.02.04,0,.02,0,.03,0,.03s0,.01,0,.03c0,.04-.05.06-.09.09,0,0-.01.01-.02.01-.02.01-.05.03-.07.05-.02.02-.03.03-.04.04,0,.01-.02.03-.04.06-.01.01-.02.02-.03.03-.02.03-.04.05-.04.07h0s0,.03,0,.04h0s-.04.05-.06.06c-.06.02-.12.01-.13,0,0,0,.02,0,.02-.01,0-.01,0-.02-.03-.03s-.02-.02-.02-.02c0,0,.02-.02.04-.02.01,0,.02,0,.03-.01.02-.01.03-.02.03-.03t0,0s0-.02,0-.03c0-.03.02-.03.04-.04,0,0,.02,0,.02-.01.04-.02.12-.1.14-.17.01-.05-.02-.07-.06-.1-.01,0-.03-.02-.04-.03h-.01s-.03-.03-.04-.03c0,0-.01.01-.02.03,0,.01-.01.02-.02.04h0q-.03.05-.05.05s-.03,0-.05.01c-.09.03-.11.08-.12.13v.02s-.02.06-.05.06c0,0-.01,0-.01,0,0,0-.01,0-.02,0,0,0-.01,0-.01,0,0,0,0,.02,0,.04,0,0,0,.01,0,.02-.01.01-.06.01-.12.01-.02,0-.03,0-.04,0s0-.02,0-.04c0-.01,0-.02,0-.03,0-.02.01-.03.04-.03.02,0,.03,0,.05-.02,0,0,0,0,.01,0,.01,0,.02-.01.03-.02.03-.02.06-.04.08-.1.01-.04.02-.05.03-.07.01-.01.02-.02.02-.03s0-.03,0-.04c0-.02,0-.03,0-.07h0s0-.03,0-.04-.01,0-.02,0c-.01.01-.03.03-.06.04,0,0-.01,0-.02,0,0,0,.01-.02.01-.02,0-.01,0-.02-.01-.03,0,0-.02-.01-.05,0,0,0-.02,0-.03,0-.02,0-.06,0-.12.02-.06.03-.07.07-.08.12,0,.02,0,.04-.02.05-.02.03-.03.06-.03.09,0,.02,0,.03-.01.05,0,0,0,.02,0,.02,0,0-.01,0-.02.01,0,0-.01.01-.01.02-.01.02,0,.05,0,.06,0,.02-.03.05-.05.06-.02.01-.05.01-.06,0,0,0,0,0,0,0h0s0-.02-.03-.03c0,0-.02-.01-.02-.02,0-.02.02-.05.08-.09,0,0,.02-.01.02-.01h0s0-.01,0-.01,0-.01.03-.05h0s.04-.05.03-.13c0-.06.01-.09.03-.12,0-.01,0-.02.01-.03.02-.05,0-.09-.03-.1-.04-.02-.1.09-.11.12-.02.04-.03.04-.03.05,0,0,0,0-.01.02,0,.01,0,.02-.01.02,0,.02,0,.02-.01.05,0,.03,0,.03-.01.04,0,0-.02.01-.02.02,0,0,0,0,0,.01.01.02.01.03,0,.05-.01.02-.03.03-.06.04-.03,0-.07,0-.09-.01,0,0-.01-.01-.01-.02,0-.02,0-.03-.02-.03,0,0-.01,0-.02,0,0,0,.02-.02.06-.03.02-.01.04-.02.05-.03.02-.01.03-.02.03-.04,0,0,0-.01.01-.02.01-.02.03-.04.03-.08,0-.04.02-.09.06-.15.02-.03.01-.04,0-.05,0,0,0-.01-.01-.02h0s0-.05-.02-.06c0-.01-.02-.03,0-.06,0-.02,0-.03-.01-.05,0-.02-.02-.04-.02-.06,0-.03,0-.04,0-.05,0,0-.01,0-.01,0s0,0-.01,0c-.02-.02-.03-.03,0-.09,0-.02.02-.03.03-.04.01-.01.02-.02.03-.05,0-.02.01-.03.02-.04.01-.02.02-.03.01-.07,0-.03,0-.04,0-.04,0,0-.01,0-.01,0,0,0,0,0-.02,0-.01-.01-.01-.01,0-.02,0-.01.01-.02,0-.05-.01-.02.02-.05.04-.07.01,0,.02-.02.02-.02,0-.01.01-.02.01-.03-.01-.01-.03-.01-.06,0-.03,0-.03.01-.04.02,0,0,0,.01-.03.01s-.03-.01-.03-.03c0-.01,0-.03-.03-.04-.03-.02-.03-.04-.03-.04,0,0,0-.01.01-.02,0-.02.02-.04.05-.07.04-.04.06-.07.07-.12,0,0,0-.01,0-.02.01-.04.07-.05.09-.05h.01s.04-.04.09-.07c.01,0,.04,0,.05.02h0s0,0,0,0c-.01-.01-.03-.02-.04-.02.03-.02.06-.04.11-.05.02,0,.05.02.07.04-.14.03-.23.11-.24.11,0,0,0,0,0,0t0,0s0,0,0,0h0s.04-.03.1-.06c.03,0,.06.03.07.04h0s0,0,0,0c0,0,0,0,0,0,0,0-.03-.03-.06-.04.03-.01.07-.03.12-.04.03.01.06.07.06.07,0,0,0,0,0,0s0,0,0,0c0-.01-.02-.06-.05-.08.04-.01.08-.02.13-.02.03.01.04.03.04.05,0,.03-.01.06-.02.07-.03,0-.07,0-.11.01-.04.01-.09.03-.14.05,0,0,0,0,0,.01,0,0,0,0,.01,0,.04-.02.09-.04.13-.05.03.04.07.06.11.06.01,0,.02,0,.03,0h.01s-.04.04-.08.06c-.06.03-.1.03-.11.02h0s-.01-.02-.02-.02c-.02,0-.03.03-.03.05,0,.03,0,.04.02.07.01.02.02.04.03.07,0,.02,0,.03.01.04,0,.01,0,.02.01.03.02.02.03.03.05.04.01.01.03.02.04.04.02.02.02.03.03.04,0,.01.01.02.02.04.02.02.05.02.09.02h.06s.11,0,.13.03c0,0,0,0,0,0,0,.01,0,.02.02.02,0,0,.01,0,.02,0h.02c.07.01.14.02.21,0h0s.06-.01.11,0c.02,0,.03.01.04.02.01,0,.02.02.04.02.03.01.04,0,.08,0,.02,0,.05-.01.09-.01.03,0,.05,0,.06,0s.02,0,.05,0c.02,0,.05-.01.06-.01.03,0,.05-.01.05,0,.01,0,0,.04-.01.05ZM18.16,7.3s0,0,0,0t0,0s0,0,0,0c0,0,0,0,0,0Z"/>
            <path d="M18.17,7.37s-.03,0-.04,0c-.02,0-.03.01-.04.02,0,0,0,.01,0,.01,0,0,0,.01,0,.01,0,.01.01.01.02.02,0,0,.01,0,.02,0,.01,0,.03,0,.04,0,.01,0,.06-.02.05-.04,0-.01-.02-.01-.05-.02ZM18.11,7.43s-.01,0-.02-.01c0,0,0-.01,0-.01,0,0,.01-.01.03-.01,0,0,0,.01,0,.02,0,.01,0,.02.01.03,0,0-.01,0-.02,0ZM18.16,7.43h0s0-.01,0-.02,0-.02-.01-.02h.02s.04.01.04.01c0,.01-.03.02-.05.03Z"/>
            <path d="M18.02,7.27s0,0,0,0h0s0,0,0,0c0-.01-.03-.03-.03-.03,0,0,0,0,0,0t0,0s.02.02.03.02Z"/>
            <polygon points="18.06 7.37 18.05 7.37 18.03 7.4 18.03 7.41 18.03 7.41 18.04 7.41 18.06 7.38 18.06 7.37"/>
            <polygon points="18.01 7.48 18.01 7.48 18.01 7.45 18 7.45 18 7.45 18 7.48 18.01 7.48 18.01 7.48"/>
            <polygon points="18.05 7.44 18.04 7.46 18.04 7.46 18.05 7.46 18.05 7.46 18.06 7.44 18.06 7.44 18.05 7.44"/>
            <polygon points="18.08 7.37 18.08 7.37 18.11 7.34 18.11 7.33 18.1 7.33 18.07 7.36 18.07 7.37 18.08 7.37"/>
            <polygon points="18.13 7.36 18.13 7.36 18.15 7.34 18.15 7.34 18.14 7.34 18.12 7.36 18.12 7.36 18.13 7.36"/>
            <polygon points="18.2 7.36 18.2 7.36 18.22 7.33 18.22 7.33 18.21 7.33 18.19 7.35 18.2 7.36 18.2 7.36"/>
            <path d="M18.27,7.5h0s.02,0,.03-.02.01-.03.01-.03t0,0s0,0,0,0c0,0,0,.02-.01.03-.01.01-.02.01-.03.01,0,0,0,0,0,0s0,0,0,0Z"/>
            <path d="M18.15,7.5s0,0,0,0h0s-.02.02-.02.03c0,0,0,.02,0,.02,0,0,0,0,0,0h0s0,0,0,0c0,0,0-.01,0-.02,0-.01.01-.02.01-.03Z"/>
            <path d="M18.2,7.46s-.01-.01-.01-.01c0,0,0,0,0,0t0,0s.01.01.02.02c0,0,.01,0,.01,0,.01,0,.02,0,.02,0,0,0,0,0,0,0,0,0,0,0,0,0,0,0-.01,0-.02,0Z"/>
            <path d="M18.39,7.43h0s0,0,0,0c0-.01,0-.02.02-.04,0,0,.01-.01.02-.02,0,0,0,0,0,0,0,0,0,0,0,0-.01,0-.02.01-.02.02-.01.01-.02.03-.02.04,0,0,0,0,0,0Z"/>
            <path d="M18.48,7.4s.02,0,.03,0c0,0,.01,0,.01,0h0s0,0,0,0c0,0,0,0,0,0s-.01,0-.02-.01c-.02,0-.03,0-.04,0t0,0s0,0,0,0Z"/>
            <path d="M18.2,7.6s0,0,0,0c0,0,0,0,0,0,0,0,.02.01.03.01,0,0,.01,0,.02,0,0,0,0,0,.01-.01,0,0,0,0,0,0,0,0,0,0,0,0,0,0,0,0-.01,0-.01,0-.03,0-.03,0Z"/>
            <path d="M18.08,7.54s-.02.01-.01.03c0,0,0,.01,0,.02t0,0h0s0,0,0,0c0,0,0-.01,0-.02,0-.01.01-.02.01-.02h0s0-.01,0,0Z"/>
            <path d="M18.02,7.55s0-.03,0-.03c0,0,0,0,0,0t0,0s-.01.02,0,.04c0,0,0,.01.01.02h0s0-.02-.01-.02Z"/>
            <path d="M18.22,7.79s0,0,0,0h0s0,0,0,0c0-.02,0-.04.01-.05,0-.01.02-.02.03-.03,0,0,.02-.02.03-.03,0-.02,0-.04,0-.06,0,0,0,0,0,0,0,0,0,0,0,0,0,.02,0,.04,0,.06,0,.01-.01.02-.02.03-.01.01-.02.02-.03.03-.01.02-.01.04-.02.06Z"/>
            <path d="M18.13,7.71s.02-.01.03-.02c0,0,0,0,0,0,0,0,0,0,0,0,0,0-.01.01-.02.02-.02,0-.03.01-.05.01,0,0,0,0,0,0,0,0,0,0,0,0h0s.04,0,.05-.02Z"/>
            <path d="M18.15,7.73s0,0-.08.04h0s0,0,0,0h0s.05-.03.06-.04c0,0,0,0,0,0,0,0,0,0,0,0,0,0,.01-.01,0-.01Z"/>
            <path d="M18.33,7.75h0s.01-.02.01-.04c0-.02,0-.04-.01-.05,0,0,0,0,0,0h0s.01.03.01.05c0,.02,0,.03-.01.04,0,0,0,0,0,0h0Z"/>
            <path d="M18.16,7.94s0-.02.01-.03c.01-.01.02-.02.02-.02s0,0,.01-.01c0-.01.01-.03,0-.05,0,0,0,0,0,0,0,0,0,0,0,0,0,.02,0,.03,0,.04,0,0,0,.01-.01.01,0,0-.01.01-.02.03-.01.02-.02.02-.02.04,0,0,0,.01,0,.02,0,0,0,0,0,0h0s0,0,0,0v-.02Z"/>
            <path d="M18.19,8.12s0,0,0,0c0,0,0,0,0,0,.01-.02.02-.04.02-.06,0-.02,0-.03,0-.03,0-.01-.01-.02-.01-.03,0-.02,0-.04.01-.06,0,0,0,0,0,0,0,0,0,0,0,0-.01.02-.02.05-.01.07,0,.01,0,.02.01.03,0,.01.01.02.01.03,0,.02,0,.03-.02.05,0,0,0,0,0,0Z"/>
            <path d="M18.14,8.02s0,0,0,0t0,0s-.02.02-.02.04v.03s0,0,0,0h0s0,0,0,0c0,0,0-.02,0-.02,0-.02.01-.03.02-.04Z"/>
            <path d="M18.13,8.14s0,0,0,0c-.01.02-.02.04-.04.05,0,.01-.01.02-.02.02t0,0h0s0,0,0,0c0,0,.02-.01.02-.02.02-.02.03-.03.04-.05t0,0Z"/>
            <path d="M18.28,7.76s-.01.03-.02.04c0,.02-.01.03-.02.05t0,0h0s0,0,0,0c0-.01.01-.03.02-.05,0-.01.01-.03.02-.04,0,0,0,0,0,0,0,0,0,0,0,0Z"/>
            <path d="M18.31,7.8s0,0,0,0c0,.02-.02.05-.03.06,0,0-.01.01-.02.02,0,0-.01.01-.02.02,0,0-.01.02,0,.07,0,.02.01.04.02.06h0s0,0,0,0c0-.02-.01-.04-.02-.05,0-.03-.01-.06,0-.07,0-.01.01-.01.02-.02,0,0,.01-.01.02-.02.02-.02.03-.04.04-.07,0,0,0,0,0,0Z"/>
            <path d="M18.3,7.86s0,0,0,0c0,0,.02.04,0,.07,0,0,0,.01-.01.01t0,0s0,0,0,0c0,0,0,0,0,0,0,0,.01,0,.01-.01.02-.03,0-.08,0-.08t0,0Z"/>
            <path d="M18.36,8.07s0,.01,0,.02c0,.03-.01.05-.03.08,0,0,0,0,0,0h0s0,0,0,0c.02-.03.03-.05.03-.08v-.02s0-.01,0-.03c0-.03,0-.05,0-.08,0-.03,0-.05,0-.06.01-.03.03-.06.07-.08,0,0,0,0,0,0,0,0,0,0,0,0-.03.03-.06.05-.07.09,0,.01,0,.03-.01.06,0,.02,0,.05,0,.08v.03Z"/>
            <path d="M18.25,8.13s-.05.03-.07.06c0,.01-.02.04-.01.07,0,.02,0,.03.01.04,0,.01.01.02.01.04,0,.01,0,.02-.01.03,0,0,0,0,0,0h0s0,0,0,0c0-.01.01-.02.01-.04,0-.02,0-.03-.01-.04,0-.01,0-.02-.01-.03,0-.03,0-.06.01-.07.02-.03.05-.05.07-.06,0,0,0,0,0,0,0,0,0,0,0,0Z"/>
            <path d="M18.24,8.47s0-.06,0-.07c0,0,0,0,0,0,0,0,0,0,0,0,0,0-.03.04-.01.08,0,.01.01.02.02.02,0,0,0,0,0,0,0,0,0,0,0,0h0s-.01-.02-.01-.03Z"/>
            <path d="M18.13,8.46s0,0,0-.01c0-.01,0-.03,0-.05,0,0,0,0,0,0,0,0,0,0,0,0-.01.03-.01.05,0,.06,0,0,0,.01,0,.01,0,0,.01.01.01.02,0,0,0,.01,0,.02,0,0,0,0,0,0h0s0-.02,0-.03c0-.01,0-.01-.01-.02Z"/>
            <path d="M18.43,8.5s-.02,0-.03,0c-.01,0-.01.01-.02.02,0,0,0,.02-.02.03,0,0-.01.01-.02.01h0s-.03-.04-.04-.07c0,0,0,0,0,0t0,0s.02.07.04.07h0s.02,0,.02-.01c.01-.01.02-.02.02-.03s0-.01.01-.02c0,0,.01,0,.02,0,0,0,0,0,0,0,0,0,0,0,0,0Z"/>
            <path d="M18.33,8.63s0,0,0,0c0,.05-.01.08-.03.09,0,0-.01,0-.02,0s-.02,0-.02.01c0,.01,0,.02.04.04h0s0,0,0,0c0,0,0,0,0,0-.03-.02-.03-.03-.03-.03,0,0,0,0,.01,0,0,0,.01,0,.02,0,.02-.01.04-.04.04-.1,0,0,0,0,0,0Z"/>
            <path d="M18.27,8.84h0s0,.03,0,.05c-.01.01-.02.02-.03.02,0,0,0,0,0,0t0,0h0s.02-.01.03-.03c.01-.02.01-.05,0-.05,0,0,0,0,0,0Z"/>
            <path d="M18.05,8.74s0,0,0,0c0,0,0,.02,0,.02v.02s0,0,0,0h0s0,0,0,0c0,0,0-.01,0-.02,0-.01,0-.02,0-.02,0,0,0,0,0,0Z"/>
            <path d="M18.57,8.32s0,0,0,0c0,.02-.01.04-.02.05,0,.02-.02.05-.03.06,0,0,0,0,0,0h0s.03-.04.04-.07c0-.02.01-.04.01-.05,0,0,0,0,0,0Z"/>
            <path d="M18.56,8.26s0,0,0,0c-.01.02-.03.04-.05.06-.02.03-.04.05-.05.05,0,0-.01-.04,0-.07,0,0,0-.01,0-.02,0,0,0,0,0-.01,0-.02,0-.05,0-.07,0,0,0,0,0,0h0s0,.05,0,.08c0,0,0,.01,0,.01,0,0,0,.01,0,.02,0,0,0,.07.02.08h0s.03-.02.06-.05c.02-.02.03-.04.05-.07,0,0,0,0,0,0Z"/>
            <path d="M18.45,8.04s0,0,0,0h0s-.02.03-.03.05c0,.01,0,.02,0,.03,0,.01,0,.02,0,.03,0,.02-.01.03-.03.04,0,0,0,0,0,0t0,0h0s.03-.03.03-.05c0-.01,0-.02,0-.03,0-.01,0-.02,0-.03,0-.01.01-.03.02-.04Z"/>
            <path d="M18.35,8.21s0,0,0,0c-.02.03-.03.05-.03.08,0,.01.01.02.02.03s.01.02.02.04.01.04.01.06c0,0,0,0,0,0h0s0,0,0,0c0-.02,0-.04-.01-.06,0-.02-.02-.03-.02-.04s-.01-.02-.01-.03c0-.02,0-.04.03-.07,0,0,0,0,0,0Z"/>
            <path d="M18.4,8.41s0,0,0,0h0s0,0,0,0c0,0,0-.01,0-.02.01-.03,0-.05-.01-.06,0,0,0,0,0,0,0,0,0,0,0,0,0,.01.02.03.01.05,0,0,0,.01,0,.02Z"/>
            <path d="M18.54,8.09s-.01.03-.02.04h0s0,0,0-.01c0-.02,0-.05-.02-.08h0s.02.06.02.08h0s0,.02,0,.02h0s0,0,0,0c0,0,.02-.02.02-.05,0-.02,0-.03-.01-.05,0,0,0,0,0,0,0,0,0,0,0,0,0,.01.01.03,0,.04Z"/>
            <path d="M18.43,7.87s0,0,0,0c0,.01.01.03.01.04,0,0,0,.01,0,.02,0,0,0,.01,0,.01,0,0,0,0,0,0,0,0,.03-.02.04-.03.02-.02.03-.04.04-.06,0,0,0,0,0,0,0,0,0,0,0,0-.01.02-.02.04-.04.06-.01.01-.03.02-.03.02h0s0-.01,0-.02c0-.02,0-.03-.01-.04,0,0,0,0,0,0Z"/>
            <path d="M18.68,8.16s-.03,0-.04,0c0-.01,0-.02,0-.04,0-.01,0-.03,0-.04,0-.03-.02-.06-.05-.09,0,0,0,0,0,0,0,0,0,0,0,0,.03.03.04.06.05.09v.04s0,.03.01.05c0,0,.02.01.03.01,0,0,.01,0,.02,0,0,0,0,0,0,0s0,0,0,0Z"/>
            <path d="M18.67,8.26s0,0,0,0c-.02.03-.03.06-.03.09,0,.01,0,.02,0,.02,0,.01.01.02,0,.03,0,0-.01.01-.03.02,0,0,0,0,0,0t0,0h0s.03-.01.04-.02c0-.01,0-.03,0-.04,0,0,0-.01,0-.02,0-.03,0-.05.02-.09t0,0Z"/>
            <path d="M18.63,8.27h0s0,0,0,0c0-.01,0-.02,0-.02-.01-.02-.02-.03-.03-.05h0s0,0,0,0c.01.01.02.03.03.04,0,0,0,.01.01.02Z"/>
            <path d="M18.73,8.22s0,.02,0,.02h0s0,0,0-.01c0-.02.01-.04.03-.05,0,0,.02,0,.04.01.01,0,.02,0,.02,0,.01,0,.01,0,.02,0,0,0,0,0,.02-.05,0,0,0-.01,0-.01h0s0-.01,0-.02t-.01.03s-.01.04-.02.05c0,0,0,0-.01,0s-.01,0-.02-.01c-.02,0-.03-.01-.04-.01-.01,0-.02.02-.03.03h0s-.01-.08-.04-.12h0s0,0,0,0c.02.03.03.06.03.1,0,.01,0,.02,0,.03Z"/>
            <path d="M18.9,8.33s0,0,0,0h0s-.02.02-.03.02c-.03.02-.07.04-.09.05,0,0,.01-.01.02-.02.03-.03.04-.06.05-.11,0,0,0,0,0,0,0,0,0,0,0,0,0,.04-.02.08-.05.11,0,0-.02.01-.02.02-.01,0-.01,0-.01.01h0s0,0,0,0c.01,0,.06-.02.11-.05.01-.01.02-.02.03-.03Z"/>
            <path d="M18.96,8.27s0,0,0,0c0,.03-.01.07-.02.1,0,.02-.01.03-.02.05,0,0,0,0,0,0h0s.02-.03.02-.05c.01-.03.02-.06.02-.1,0,0,0,0,0,0Z"/>
            <path d="M19.08,8.25s0,0,0,0c-.01.02-.02.05-.04.06-.02.02-.03.04-.05.05,0,0,0,0,0,0h0s0,0,0,0c.02-.01.04-.03.05-.05s.03-.04.04-.07c0,0,0,0,0,0Z"/>
            <path d="M19.03,8.43s0,0,0,0c0,0,0,0,0,0,.01.03.02.05.03.08,0,.03,0,.06,0,.06,0,0,0,0-.01-.02,0-.01-.01-.04-.03-.06,0-.01-.02-.02-.02-.03,0,0,0,0,0,0,0,0,0,0,0,0,0,.01.02.02.02.03.02.03.03.05.03.06,0,.02.01.02.02.02h0s.02-.05.01-.08c0-.03-.01-.05-.03-.08Z"/>
            <path d="M18.71,8.47h0s.04.06.04.1c0,.02,0,.04,0,.05,0,0,0,0,0,0h0s0,0,0,0c0-.02,0-.04,0-.05,0-.04-.02-.07-.05-.1Z"/>
            <path d="M18.81,8.66s-.02.02-.02.04c0,.02,0,.03,0,.04,0,0,0,0,0,0h0s0,0,0,0c0-.01,0-.02,0-.04,0-.02.02-.03.02-.04h0s0-.01,0,0Z"/>
            <path d="M18.92,8.67s0,0,0,0c-.01.02-.02.03-.03.05,0,0-.02.01-.02.02,0,0,0,0,0,0h0s.01-.01.02-.02c.01-.01.02-.03.03-.05,0,0,0,0,0,0Z"/>
            <path d="M18.65,8.94s0,0,0,0c0,.02,0,.03-.02.04-.01,0-.03,0-.04,0h0s0,0,0,0c0,0,.02.01.03.01,0,0,.01,0,.02,0,.02-.01.03-.03.03-.05,0,0,0,0,0,0Z"/>
            <path d="M19.22,8.38s.03-.05.03-.08c0-.02,0-.04,0-.06,0-.01,0-.02,0-.02s.02.01.02.02c.01.01.02.02.02.02,0,0,.01,0-.01-.05-.01-.03-.02-.06-.04-.09t0,0s0,0,0,0c.02.03.03.05.04.09.01.02.01.03.01.04,0,0-.01,0-.01-.01-.01-.01-.02-.03-.03-.02s0,.01,0,.03c0,.01,0,.03,0,.06,0,.03,0,.06-.02.07-.01,0-.02.01-.03,0,0,0,0-.01,0-.02,0-.02.01-.03,0-.04,0,0-.02-.01-.03,0,0,0,0,0,0,0s0,0,0,0c0,0,.02,0,.02,0,0,0,0,.02,0,.03s0,.03,0,.03c0,0,.01,0,.01,0,.01,0,.02,0,.02,0Z"/>
            <path d="M19.15,8.19s0,0,0,0c-.01.02-.02.04-.02.05,0,0,0,.01,0,.02,0,.01,0,.02,0,.02,0,0,0,0,0-.01,0,0,0,0,0,0s0,0,0,0c0,0,0,.02.02.02h0s.01-.01.02-.03c0,0,0-.01,0-.02,0-.02.01-.04.02-.05,0,0,0,0,0,0Z"/>
            <path d="M18.98,8.15s0,.03,0,.04c0,0,0,0,0,0h0s0,0,0,0c0-.01.01-.03,0-.04,0-.02-.01-.04-.02-.06h0s0,0,0,0c.01.01.02.03.02.05Z"/>
            <polygon points="18.81 8.03 18.81 8.03 18.81 8.02 18.82 7.96 18.82 7.95 18.81 7.96 18.81 8.02 18.81 8.03"/>
            <path d="M18.84,8.09h0s.02,0,.03-.02c.01-.02.01-.04,0-.05,0,0,0,0,0,0,0,0,0,0,0,0,.01.02.01.03,0,.05,0,.01-.02.01-.02.01,0,0,0,0,0,0t0,0Z"/>
            <path d="M19.1,8.09s0,0,0,0c-.01,0-.02,0-.03,0-.01,0-.01-.02,0-.04,0,0,0,0,0,0,0,0,0,0,0,0-.01.02,0,.04,0,.05,0,0,.02.01.03.01h0s0,0,0,0Z"/>
            <path d="M19.39,8.09h0s.02.07,0,.08c0,0-.01,0-.02,0,0,0,0,0,0,0,0,0,0,0,0,0,0,0,0,0,.01,0,.01,0,.02,0,.02,0,.01-.01.02-.05,0-.09,0,0,0,0,0,0Z"/>
            <path d="M19.48,8.06s0,0,0,0c0,0,0,0,0,0,.01,0,.02.02.02.03s0,.02-.01.02h0s.01,0,.01-.02,0-.03-.02-.03Z"/>
            <path d="M19.54,8.05s0,0,0,0c0,.01,0,.02,0,.03,0,0,0,0-.01,0,0,0,0,0,0,0,0,0,0,0,0,0h0s.01,0,.01-.01c.01-.01.01-.03,0-.04,0,0,0,0,0,0Z"/>
            <polygon points="19.65 8.03 19.65 8.03 19.65 8.03 19.66 8.06 19.66 8.06 19.66 8.06 19.67 8.05 19.65 8.03"/>
            <path d="M19.33,8.35s0,0,0,0c0,0,0,0,0,0,0,.03,0,.05,0,.07,0,0,0,0,0,.01,0,.01-.01.02-.02.04h0s-.01,0-.03-.05c0,0,0,0,0,0,0,0,0,0,0,0,.02.05.03.06.04.06h0s0,0,0-.01h0s.01-.03.01-.04c0,0,0,0,0-.01.01-.02.01-.04.01-.07Z"/>
            <path d="M19.35,8.55s0,0,0,0c-.01.02-.01.04-.01.07,0,.02,0,.03,0,.05t0,0h0s0,0,0,0c0-.01-.01-.03-.01-.05,0-.02,0-.04.01-.06,0,0,0,0,0,0Z"/>
            <path d="M19.24,8.6s.01.02.02.03c0,0,0,.01,0,.02,0,0,0,0,0,0h0s0,0,0,0v-.02s-.01-.04-.03-.04c0,0-.01,0-.02.02,0-.02-.01-.04-.03-.06,0,0,0,0,0,0,0,0,0,0,0,0,.02.02.03.04.02.06,0,0,0,0,0,.01,0,0,0,.01,0,.01,0,0,0,0,.01-.01,0-.01.01-.03.02-.03Z"/>
            <path d="M19.3,8.78s0,0,0,0c0,0,0,.02-.02.04-.02.01-.03,0-.04,0t0,0s0,0,0,0h.01s.02,0,.03-.01c.02-.01.03-.04.03-.04,0,0,0,0,0,0Z"/>
            <path d="M19.16,8.88s0,0,0,0c0,0,0,.02-.01.03,0,0-.02,0-.02,0,0,0,0,0,0,0s0,0,0,0c0,0,0,0,0,0,0,0,.01,0,.02-.01.02-.01.02-.04.02-.04,0,0,0,0,0,0Z"/>
            <path d="M19.12,8.97s-.02.02-.03.03c-.01,0-.02.01-.03.01,0,0,0,0,0,0,0,0,0,0,0,0h0s.02-.01.03-.02c.01,0,.02-.02.03-.03,0,0,0,0,0,0h0Z"/>
            <polygon points="19.17 8.68 19.16 8.69 19.16 8.73 19.17 8.74 19.17 8.73 19.17 8.69 19.17 8.68"/>
            <polygon points="18.86 8.55 18.86 8.53 18.86 8.52 18.85 8.53 18.85 8.55 18.86 8.56 18.86 8.55"/>
            <polygon points="18.59 8.5 18.58 8.5 18.58 8.5 18.59 8.52 18.6 8.52 18.6 8.52 18.6 8.51 18.59 8.5"/>
          </g>
        </g>
      </g>
    </g>
  </g>
  <circle class="cls-6" cx="16.1" cy="16.1" r="15.6"/>
</svg>