<?xml version="1.0" encoding="UTF-8"?>
<svg id="Layer_1" xmlns="http://www.w3.org/2000/svg" viewBox="0 0 32.2 32.2">
  <defs>
    <style>
      .cls-1 {
        fill: #fff;
      }

      .cls-2 {
        fill: #d4770a;
      }

      .cls-3 {
        fill: none;
        stroke: #114b63;
        stroke-miterlimit: 10;
      }

      .cls-4 {
        fill: #4d5a31;
      }
    </style>
  </defs>
  <g>
    <path class="cls-1" d="M31.27,16.1c0,8.36-6.8,15.17-15.17,15.17S.93,24.47.93,16.1,7.74.93,16.1.93c5.35,0,10.06,2.78,12.76,6.97.1.16.2.32.3.48,1.35,2.26,2.11,4.91,2.11,7.72Z"/>
    <g>
      <path class="cls-2" d="M29.16,8.38c-.1.03-.21.06-.21.06,0,0-.19.08-.23.12-.04.04-.18.09-.18.16s-.16.13-.16.16c0,.03,0,.18-.04.21-.03.03-.59.24-.6.26-.01.01-.17.1-.21.14-.04.04-.1.1-.16.16-.06.06-.13.15-.25.19-.12.04-.56.14-.56.17,0,.03-.13.09-.18.14-.06.05-.27.05-.36.09-.09.03-.17.05-.2.14-.03.09-.29.09-.35.15-.06.06-.17.13-.22.18-.04.05-.2.05-.2.16s-.18.22-.21.25c-.03.03-.11.06-.07.1.03.03.02.14-.03.19-.05.05-.07.21-.15.21s-.29.03-.35.03c-.06,0-.3.05-.35,0-.05-.05-.24-.07-.29-.03-.04.05-.31.14-.36.26-.05.11-.13.29-.18.29-.05,0-.07.02-.14.09-.07.07-.15.21-.15.3s.06.17.03.3c-.03.13-.14.15-.14.2,0,.05.01.19.05.23.04.04.03.12.03.17s.01.07.07.13c.06.05.07.05.12.11.05.05.15.31.19.35.04.04.1.07.1.11s.02.16.07.21c.05.05.19.16.19.19,0,.03-.08.1-.01.16.06.06.09.15.13.19.03.04.12.06.17.12l.13.13c.05.05-.02.14.05.21.07.07.23.22.23.29,0,.06.1.18.1.25s-.1.11-.07.13c.03.03-.01.12.09.16.1.03.03.11.03.11l-.21-.03s-.1,0-.14-.05c-.05-.04-.38-.2-.41-.22-.03-.03-.17-.12-.23-.12-.06,0-.15-.01-.28.02-.14.03-.3.1-.33.1s-.21-.04-.25,0c-.04.04-.14.14-.18.17s-.02.02-.09.09c-.07.07-.09.09-.22.02-.13-.07-.31-.2-.31-.24s-.1-.11-.2-.14-.33-.13-.37-.17-.29.01-.29.01c0,0-.33-.04-.41-.02-.09.02-.36.02-.36.02l-.14.29s-.12.12-.1.15c.03.03.09.1.06.13-.03.03-.16.16-.16.2,0,.03-.05.29-.07.31-.02.02.03.19,0,.23-.04.04-.19.22-.21.23-.01.01-.11,0-.11.05s-.04.16-.04.2c0,.04.06.09-.06.09s-.15-.03-.3-.06c-.14-.03-.05-.09-.21-.03-.17.05-.48.23-.53.29-.05.05-.13.13-.16.16-.03.03-.19,0-.23.04-.04.04-.16.07-.16.07h-.24c-.06,0-.12-.04-.15.05-.04.09-.17.07-.2.11-.04.04-.16.19-.2.19h-.15c-.09,0-.24.04-.24.04,0,0-.12.09-.19.09s-.15-.03-.29-.06c-.14-.03-.32.07-.36.12-.05.05-.28,0-.34,0s-.21-.05-.33-.05-.18.04-.31-.01c-.12-.04-.11-.07-.29-.07s-.33.02-.45.04c-.12.02-.18.04-.38.11s-.23,0-.26.1c-.03.11-.22.23-.24.26-.02.02-.16-.04-.16.1s-.04.23-.07.27c-.03.03-.07.17,0,.24.07.07.06.14.14.22.08.08.14.24.14.27s-.08.04-.14.04-.26-.08-.32-.08c-.06,0-.18-.07-.2-.04-.03.03-.13.02-.17.02-.04,0-.15.01-.15-.05,0-.06.04-.17,0-.28-.04-.11-.24-.38-.24-.48s-.06-.23-.13-.3c-.07-.07-.31-.19-.36-.19-.05,0-.05-.07-.16-.04-.11.03-.22.03-.25.01s-.13-.03-.13-.03c0,0-.13-.06-.19,0-.05.06-.13.05-.22.05s-.16.11-.2.11c-.05,0-.1-.15-.17-.07s-.03.13-.11.15c-.08.03-.31-.1-.37-.16-.06-.06-.18-.05-.24-.11l-.21-.21c-.07-.07-.26-.09-.29-.11-.02-.03-.07-.07-.12-.12-.05-.05-.18-.09-.18-.09l-.09-.12s-.02-.04-.09-.04-.18.03-.26-.05c-.08-.08-.12-.13-.18-.13-.06,0-.11.05-.16,0-.04-.04-.07-.11-.12-.11-.04,0-.09-.09-.14-.14-.05-.05-.13-.11-.16-.14-.03-.03-.14-.03-.22-.11s-.1-.13-.1-.16-.18,0-.18-.05c0-.05.04-.15.04-.15,0,0,.03-.25-.01-.36-.05-.11-.06-.19-.06-.25s.03-.05.03-.14-.03-.12-.03-.17c0-.05-.03-.07-.06-.1-.03-.03-.08-.14-.08-.14l-.06-.02-.07.02s-.25-.41-.28-.44c-.04-.03-.11-.18-.09-.2.02-.01.12-.07.16-.13.05-.05-.06-.32-.06-.35,0-.03,0-.05-.05-.1s-.05-.12-.05-.12v-.03s.06,0,.06-.03.09-.27.1-.28c.01-.02-.11-.4-.16-.45-.05-.05-.16-.35-.16-.5s.02-.34.05-.37c.03-.03.15-.2.15-.2,0,0,.04-.08.08.01.04.09.12.2.15.23.03.03.06.08.1.12.04.04.07.04.12.1s.03.12.11.19.16.03.22.09c.06.06.1.11.2.11s.2.04.3,0c.1-.04.37-.08.42-.13.04-.04.08-.08.15-.15s.23-.06.28-.25c.05-.19.14-.35.19-.39.04-.05.19-.2.29-.25.1-.05.14-.17.14-.17,0,0,0-.13.13-.05.07.02.13.01.13.01.21-.05.53-.15.53-.15,0,0,.15-.13.26-.09.11.04.23.02.28.07.05.05.17.1.2.14.04.04.26.05.29.08.03.03.16.05.21.11.06.06.14.15.21.15s.1.02.16.09c.06.06.15.06.22.13s.12.08.16.12c.04.04.13.06.19,0,.06-.06.2-.03.3-.13.09-.1.15-.02.27-.19.13-.17.2-.25.26-.31s.03-.27.1-.33c.07-.06.13-.2.13-.2,0,0-.01-.23.06-.3.07-.07.08-.12.08-.2v-.24s-.06-.19-.03-.23.01-.06.03-.1c.01-.04,0-.14,0-.17,0-.03-.06-.09-.06-.13s0-.15,0-.18v-.29c0-.12.02-.24.07-.19.05.05.15.19.23.19s.21.06.23.09c.03.03.15.2.19.24.04.04.2.02.2.02,0,0,.18,0,.2.02.02.02.12.11.21.14.09.03.38.1.42.05.04-.04.09-.1.2-.06.12.03.22.11.35.14.13.03.32.06.37.06s.1-.05.18-.02c.08.03.17.1.36.14.19.05.26.05.32.05s.04.02.14.02.12-.04.18.02c.06.06.1.13.21.13s.22,0,.3,0,.18,0,.23.04c.04.05.08.05.18.05s.21-.02.24.02c.03.03.05.01.18.01s.27.08.38.08.28-.07.38-.07.09-.03.2-.03.23.04.33.04.21-.06.3-.06.16.03.21.03c.05,0,.19-.02.28-.04.09-.02.1-.12.21-.08.11.03.05.06.18.01.14-.05.23-.16.31-.16s.1-.01.15-.06.21-.18.32-.18.36-.06.39-.03.13-.03.18-.03c.05,0,.17.08.17.08,0,0,.22-.01.27-.06.05-.05.24.04.4-.01.16-.05.19-.09.29-.09s.12-.04.24-.07c.12-.03.06-.05.19-.05s.36-.13.49-.13.09.09.2-.02c.11-.11.17-.05.22-.11s.2-.09.24-.09.15-.13.15-.13c0,0,0,0,.13-.02.13-.03.32-.02.38-.07.05-.05.08-.15.11-.18.03-.03.13-.06.15-.1.03-.03,0-.17.06-.17s.15-.02.18-.05c.03-.03-.03-.11.05-.13.08-.02.18.03.28.03s.21-.03.25,0,.13.02.19.02.13-.13.21-.13.11-.09.22-.09.2-.06.31-.09c.11-.03.14-.16.19-.16.05,0,.05.07.09.03.04-.03.06-.08.06-.11,0-.04-.02-.13.04-.13s.16-.01.22-.07c.06-.06.15-.07.25-.07s.25-.03.36-.07c.11-.05.21-.14.23-.11,0,0,.01.01.02.02.1.16.2.32.3.48Z"/>
      <g>
        <path class="cls-4" d="M16.46,25.66s.31-.18.31-.18l-.23-.17-.45.22-.44-.22-.23.17s.33.17.31.18c-.03.03-.71.46-.71.46l.43.43.65-.81.65.81.43-.43s-.68-.43-.71-.46Z"/>
        <g>
          <g>
            <path class="cls-4" d="M17.02,25.07s.51-1.14,1.45-1.14c-.03.33-.09,1.01-1.45,1.14Z"/>
            <path class="cls-4" d="M17.2,25.5s1.08-.66,1.86-.03c-.61.28-.92.45-1.86.03Z"/>
            <path class="cls-4" d="M18.22,24.9s.62-.72,1.53-.45c-.11.25-.28.61-1.53.45Z"/>
            <path class="cls-4" d="M19.51,23.97s.31-1.13,1.38-.98c-.06.22-.2.8-1.38.98Z"/>
            <path class="cls-4" d="M20.43,24.07s.52-.88,1.56-.79c-.12.22-.33.87-1.56.79Z"/>
            <path class="cls-4" d="M20.08,24.64s.64-.57,1.73-.22c-.16.23-1.26.94-1.73.22Z"/>
            <path class="cls-4" d="M22.94,21.46s-.75-.17-1.24,1.49c.53-.32,1.29-.97,1.24-1.49Z"/>
            <path class="cls-4" d="M22.22,23.63s.23-.69,1.69-.47c-.05.19-.5.79-1.69.47Z"/>
            <path class="cls-4" d="M22.46,22.93s.28-1.06,1.17-1.14c-.07.35-.26.97-1.17,1.14Z"/>
            <path class="cls-4" d="M23.91,22.2c-.1-.02.16-.8,1.21-.67-.06.27-.05.88-1.21.67Z"/>
            <path class="cls-4" d="M23.38,21.52c-.07.06-.14-.7.02-.94.16-.23.35-.3.35-.3,0,0,.12.83-.38,1.24Z"/>
            <path class="cls-4" d="M23.9,21.45s.22-1.31,1.34-1.59c.08.37.24,1.23-1.34,1.59Z"/>
            <path class="cls-4" d="M18.82,24.12s-.01-.45.31-.4c.08.14.03.48-.31.4Z"/>
            <path class="cls-4" d="M19.79,24.97s-.35-.02-.33.44c.21,0,.5.04.33-.44Z"/>
            <path class="cls-4" d="M23.37,22.86s.12-.45.54-.31c-.03.21-.06.51-.54.31Z"/>
            <path class="cls-4" d="M21.48,22.72s-.43.05-.28.47c.17-.02.38-.13.28-.47Z"/>
            <path class="cls-4" d="M21.99,23.83s-.37.08-.14.42c.16-.12.29-.15.14-.42Z"/>
          </g>
          <g>
            <path class="cls-4" d="M15.18,25.07s-.51-1.14-1.45-1.14c.03.33.09,1.01,1.45,1.14Z"/>
            <path class="cls-4" d="M15,25.5s-1.08-.66-1.86-.03c.62.28.92.45,1.86.03Z"/>
            <path class="cls-4" d="M13.98,24.9s-.62-.72-1.53-.45c.11.25.28.61,1.53.45Z"/>
            <path class="cls-4" d="M12.7,23.97s-.31-1.13-1.38-.98c.06.22.2.8,1.38.98Z"/>
            <path class="cls-4" d="M11.78,24.07s-.52-.88-1.56-.79c.12.22.33.87,1.56.79Z"/>
            <path class="cls-4" d="M12.13,24.64s-.64-.57-1.73-.22c.16.23,1.26.94,1.73.22Z"/>
            <path class="cls-4" d="M9.27,21.46s.75-.17,1.24,1.49c-.52-.32-1.29-.97-1.24-1.49Z"/>
            <path class="cls-4" d="M9.98,23.63s-.23-.69-1.69-.47c.05.19.5.79,1.69.47Z"/>
            <path class="cls-4" d="M9.75,22.93s-.28-1.06-1.17-1.14c.07.35.26.97,1.17,1.14Z"/>
            <path class="cls-4" d="M8.29,22.2c.1-.02-.15-.8-1.21-.67.06.27.05.88,1.21.67Z"/>
            <path class="cls-4" d="M8.82,21.52c.07.06.14-.7-.02-.94-.17-.23-.36-.3-.36-.3,0,0-.12.83.38,1.24Z"/>
            <path class="cls-4" d="M8.31,21.45s-.22-1.31-1.34-1.59c-.08.37-.24,1.23,1.34,1.59Z"/>
            <path class="cls-4" d="M13.39,24.12s.01-.45-.31-.4c-.08.14-.03.48.31.4Z"/>
            <path class="cls-4" d="M12.41,24.97s.35-.02.33.44c-.21,0-.5.04-.33-.44Z"/>
            <path class="cls-4" d="M8.83,22.86s-.12-.45-.54-.31c.03.21.06.51.54.31Z"/>
            <path class="cls-4" d="M10.72,22.72s.43.05.28.47c-.17-.02-.38-.13-.28-.47Z"/>
            <path class="cls-4" d="M10.21,23.83s.37.08.14.42c-.16-.12-.29-.15-.14-.42Z"/>
          </g>
        </g>
      </g>
    </g>
  </g>
  <circle class="cls-3" cx="16.1" cy="16.1" r="15.6"/>
</svg>