<?xml version="1.0" encoding="UTF-8"?>
<svg id="Layer_1" xmlns="http://www.w3.org/2000/svg" viewBox="0 0 32.2 32.2">
  <defs>
    <style>
      .cls-1 {
        fill: #fff;
      }

      .cls-2 {
        fill: none;
        stroke: #114b63;
        stroke-miterlimit: 10;
      }

      .cls-3 {
        fill: #c60c30;
      }
    </style>
  </defs>
  <g>
    <path class="cls-3" d="M31.27,16.1c0,.74-.05,1.46-.15,2.17-1.06,7.34-7.39,13-15.02,13-.92,0-1.83-.09-2.71-.24-1.54-.28-3-.79-4.33-1.49-4.22-2.22-7.27-6.37-7.97-11.27-.1-.7-.15-1.43-.15-2.17s.05-1.46.15-2.17c.7-4.9,3.75-9.05,7.97-11.26,1.34-.71,2.8-1.22,4.33-1.49.88-.16,1.78-.25,2.71-.25,7.63,0,13.96,5.66,15.02,13,.1.7.15,1.43.15,2.17Z"/>
    <path class="cls-1" d="M31.27,16.1c0,.74-.05,1.46-.15,2.17H13.39v12.76c-1.54-.28-3-.79-4.33-1.49v-11.27H1.09c-.1-.7-.15-1.43-.15-2.17s.05-1.46.15-2.17h7.97V2.67c1.34-.71,2.8-1.22,4.33-1.49v12.76h17.72c.1.7.15,1.43.15,2.17Z"/>
  </g>
  <circle class="cls-2" cx="16.1" cy="16.1" r="15.6"/>
</svg>