<?xml version="1.0" encoding="UTF-8"?>
<svg id="Layer_1" xmlns="http://www.w3.org/2000/svg" viewBox="0 0 32.2 32.2">
  <defs>
    <style>
      .cls-1 {
        fill: #fff;
      }

      .cls-2 {
        fill: #04357f;
      }

      .cls-3 {
        fill: none;
        stroke: #114b63;
        stroke-miterlimit: 10;
      }
    </style>
  </defs>
  <g>
    <path class="cls-1" d="M31.27,16.1c0,1.43-.2,2.81-.57,4.13-1.75,6.19-7.34,10.78-14.03,11.03h0s-.58.01-.58.01c-2.8,0-5.43-.76-7.68-2.09-3.33-1.96-5.84-5.15-6.92-8.95-.37-1.31-.57-2.7-.57-4.13s.2-2.82.57-4.13c1.08-3.79,3.59-6.99,6.92-8.95,2.25-1.33,4.88-2.09,7.68-2.09h.58c6.68.26,12.27,4.85,14.03,11.04.37,1.31.57,2.7.57,4.13Z"/>
    <path class="cls-2" d="M31.27,16.1c0,1.43-.2,2.81-.57,4.13h-14.03v11.04h-.58c-2.8,0-5.43-.76-7.68-2.09v-8.95H1.5c-.37-1.31-.57-2.7-.57-4.13s.2-2.82.57-4.13h6.92V3.03c2.25-1.33,4.88-2.09,7.68-2.09h.58v11.04h14.03c.37,1.31.57,2.7.57,4.13Z"/>
  </g>
  <circle class="cls-3" cx="16.1" cy="16.1" r="15.6"/>
</svg>