<?xml version="1.0" encoding="UTF-8"?>
<svg id="Layer_1" xmlns="http://www.w3.org/2000/svg" viewBox="0 0 32.2 32.2">
  <defs>
    <style>
      .cls-1 {
        fill: #115ead;
      }

      .cls-2 {
        fill: #fff;
      }

      .cls-3 {
        fill: none;
        stroke: #114b63;
        stroke-miterlimit: 10;
      }
    </style>
  </defs>
  <g>
    <g>
      <path class="cls-2" d="M31.18,17.79c-.13,1.17-.39,2.3-.78,3.37H1.8c-.39-1.07-.65-2.2-.78-3.37h30.15Z"/>
      <path class="cls-1" d="M30.4,21.16c-.42,1.2-.99,2.33-1.69,3.37H3.5c-.7-1.04-1.27-2.17-1.7-3.37h28.6Z"/>
      <path class="cls-2" d="M28.71,24.53c-.85,1.27-1.89,2.41-3.08,3.37H6.58c-1.19-.96-2.23-2.1-3.08-3.37h25.21Z"/>
      <path class="cls-1" d="M25.62,27.9c-2.6,2.11-5.92,3.37-9.52,3.37s-6.92-1.26-9.52-3.37h19.04Z"/>
      <path class="cls-1" d="M25.62,4.3H6.58c.88-.71,1.83-1.32,2.85-1.82,2.01-.99,4.28-1.55,6.67-1.55h.07c3.58.02,6.86,1.28,9.45,3.37Z"/>
      <path class="cls-1" d="M31.27,16.1c0,.57-.03,1.13-.09,1.69H1.03c-.06-.55-.09-1.12-.09-1.69s.03-1.13.09-1.69h30.15c.06.55.09,1.12.09,1.69Z"/>
      <path class="cls-2" d="M28.71,7.67H3.5c.72-1.08,1.59-2.07,2.56-2.93.17-.15.34-.3.52-.44h19.04c1.19.96,2.23,2.1,3.08,3.37Z"/>
      <path class="cls-1" d="M30.4,11.04H1.8c.43-1.2,1-2.33,1.7-3.37h0s25.21,0,25.21,0c.7,1.04,1.27,2.17,1.7,3.37Z"/>
      <path class="cls-2" d="M31.18,14.42H1.03c.13-1.17.39-2.3.77-3.37h28.61c.38,1.08.64,2.2.77,3.37Z"/>
    </g>
    <path class="cls-1" d="M16.17.93v16.86H1.03c-.06-.55-.09-1.12-.09-1.69s.03-1.13.09-1.69c.13-1.17.39-2.3.77-3.37.43-1.2,1-2.33,1.7-3.37h0c.72-1.09,1.59-2.07,2.56-2.93.17-.15.34-.3.52-.44.88-.71,1.83-1.32,2.85-1.82,2.01-.99,4.28-1.55,6.67-1.55h.07Z"/>
    <path class="cls-2" d="M16.19,7.68v3.37H1.78c.43-1.2,1-2.33,1.7-3.37h12.7Z"/>
    <path class="cls-2" d="M9.43,2.47v15.34h-3.37V4.74c.17-.15.34-.3.52-.44.88-.71,1.83-1.32,2.85-1.83Z"/>
  </g>
  <circle class="cls-3" cx="16.1" cy="16.1" r="15.6"/>
</svg>