<?xml version="1.0" encoding="UTF-8"?>
<svg id="Layer_1" xmlns="http://www.w3.org/2000/svg" viewBox="0 0 32.2 32.2">
  <defs>
    <style>
      .cls-1 {
        fill: #9d2f38;
      }

      .cls-2 {
        fill: #fff;
      }

      .cls-3 {
        fill: none;
        stroke: #114b63;
        stroke-miterlimit: 10;
      }
    </style>
  </defs>
  <g>
    <path class="cls-1" d="M31.27,16.1c0,1.05-.11,2.08-.31,3.06-1.42,6.9-7.55,12.11-14.86,12.11S2.66,26.07,1.24,19.17c-.2-.99-.31-2.01-.31-3.06s.11-2.07.31-3.06C2.66,6.14,8.79.93,16.1.93s13.44,5.21,14.86,12.11c.2.99.31,2.01.31,3.06Z"/>
    <path class="cls-2" d="M31.27,16.1c0,1.05-.11,2.08-.31,3.06H1.24c-.2-.99-.31-2.01-.31-3.06s.11-2.07.31-3.06h29.72c.2.99.31,2.01.31,3.06Z"/>
  </g>
  <circle class="cls-3" cx="16.1" cy="16.1" r="15.6"/>
</svg>