<?xml version="1.0" encoding="UTF-8"?>
<svg id="Layer_1" xmlns="http://www.w3.org/2000/svg" viewBox="0 0 32.2 32.2">
  <defs>
    <style>
      .cls-1 {
        fill: #97857c;
      }

      .cls-2 {
        fill: #97867a;
      }

      .cls-3 {
        fill: #95877c;
      }

      .cls-4 {
        fill: #231f20;
      }

      .cls-5 {
        fill: #95867c;
      }

      .cls-6 {
        fill: #fff;
      }

      .cls-7 {
        fill: #ce142a;
      }

      .cls-8 {
        fill: #cbcbcb;
      }

      .cls-9 {
        fill: #e50e2d;
      }

      .cls-10 {
        fill: none;
        stroke: #114b63;
        stroke-miterlimit: 10;
      }
    </style>
  </defs>
  <g>
    <g>
      <path class="cls-6" d="M11.04,1.8C5.16,3.89.93,9.51.93,16.1s4.23,12.21,10.11,14.3c1.58.56,3.29.87,5.06.87V.93c-1.77,0-3.47.31-5.06.87Z"/>
      <path class="cls-7" d="M21.16,1.8c-1.58-.56-3.28-.87-5.06-.87v30.34c1.77,0,3.47-.31,5.06-.87,5.89-2.09,10.11-7.71,10.11-14.3S27.04,3.89,21.16,1.8Z"/>
    </g>
    <g>
      <path class="cls-9" d="M14.46,8.01h-2.26c-.08-.4-.39-.71-.79-.79v-2.26h-2.32v2.26c-.39.08-.7.39-.79.79h-2.26v2.32h2.26c.08.4.39.71.79.79v2.26h2.32v-2.26c.4-.08.71-.39.79-.79h2.26v-2.32Z"/>
      <path class="cls-2" d="M9.27,13.21v-2.22l-.14-.03c-.33-.07-.58-.32-.65-.65l-.03-.14h-2.23v-1.97h2.23l.03-.14c.07-.33.32-.59.65-.65l.14-.03v-2.22h1.97v2.22l.14.03c.33.07.58.32.65.65l.03.14h2.23v1.97h-2.23l-.03.14c-.06.33-.32.59-.65.65l-.14.03v2.22h-1.97Z"/>
      <path class="cls-8" d="M9.34,13.14v-2.21l-.2-.04c-.3-.06-.53-.3-.59-.6l-.04-.2h-2.22v-1.82h2.22l.04-.2c.06-.3.29-.53.59-.6l.2-.04v-2.21h1.82v2.21l.2.04c.3.06.53.3.59.6l.04.2h2.22v1.82h-2.22l-.04.2c-.06.3-.29.53-.59.6l-.2.04v2.21h-1.82Z"/>
      <g>
        <path class="cls-3" d="M10.26,10.43c-.68,0-1.24-.56-1.24-1.24s.56-1.24,1.24-1.24,1.24.56,1.24,1.24-.56,1.24-1.24,1.24ZM10.26,7.97c-.67,0-1.22.54-1.22,1.22s.55,1.22,1.22,1.22,1.22-.54,1.22-1.22-.54-1.22-1.22-1.22Z"/>
        <path class="cls-3" d="M10.26,10.8c-.9,0-1.62-.73-1.62-1.62s.73-1.62,1.62-1.62,1.62.73,1.62,1.62-.73,1.62-1.62,1.62ZM10.26,7.59c-.88,0-1.6.72-1.6,1.6s.72,1.6,1.6,1.6,1.59-.72,1.59-1.6-.72-1.6-1.59-1.6Z"/>
      </g>
      <g>
        <g>
          <g>
            <path class="cls-1" d="M9.19,7.46c.14.14.1.39-.08.57-.18.18-.44.22-.57.09-.13-.14-.1-.39.09-.57.18-.18.44-.22.57-.09Z"/>
            <g>
              <polygon class="cls-8" points="8.51 7.82 8.59 7.75 8.86 7.92 8.69 7.65 8.76 7.58 8.98 7.97 8.91 8.05 8.51 7.82"/>
              <rect class="cls-8" x="8.97" y="7.41" width=".1" height=".43" transform="translate(-2.75 8.61) rotate(-45)"/>
            </g>
          </g>
          <g>
            <path class="cls-1" d="M11.97,8.11c-.13.14-.39.1-.57-.09-.18-.18-.22-.44-.09-.57.14-.13.39-.1.57.09.18.18.22.44.09.57Z"/>
            <g>
              <polygon class="cls-8" points="11.6 7.44 11.67 7.51 11.5 7.78 11.78 7.61 11.84 7.68 11.46 7.91 11.38 7.83 11.6 7.44"/>
              <rect class="cls-8" x="11.58" y="7.89" width=".43" height=".1" transform="translate(-2.16 10.67) rotate(-45)"/>
            </g>
          </g>
        </g>
        <g>
          <g>
            <path class="cls-1" d="M11.31,10.9c-.13-.14-.1-.39.09-.57.18-.18.44-.22.57-.09.14.14.1.39-.09.57-.18.18-.44.22-.57.09Z"/>
            <g>
              <polygon class="cls-8" points="11.99 10.53 11.92 10.6 11.65 10.43 11.82 10.7 11.75 10.77 11.52 10.38 11.6 10.31 11.99 10.53"/>
              <rect class="cls-8" x="11.44" y="10.51" width=".1" height=".43" transform="translate(-4.22 11.26) rotate(-45)"/>
            </g>
          </g>
          <g>
            <path class="cls-1" d="M8.53,10.24c.14-.14.39-.1.57.09.18.18.22.44.08.57s-.39.1-.57-.09c-.18-.18-.22-.44-.09-.57Z"/>
            <g>
              <polygon class="cls-8" points="8.9 10.91 8.83 10.84 9 10.57 8.73 10.74 8.66 10.67 9.05 10.45 9.12 10.52 8.9 10.91"/>
              <rect class="cls-8" x="8.49" y="10.36" width=".43" height=".1" transform="translate(-4.84 9.53) rotate(-46.4)"/>
            </g>
          </g>
        </g>
      </g>
      <g>
        <path d="M8.73,9.4l.12-.02h0s-.01-.04-.02-.04c-.01,0-.03,0-.06,0h0s.16-.03.16-.03h0s-.02.01-.03.02h-.02s-.02.03-.02.05h0s.09,0,.09,0c.02,0,.03,0,.04-.01,0,0,.01-.02,0-.03h0s0-.01,0-.01l.02.14h0s0-.03-.02-.03c-.01,0-.02,0-.04,0l-.17.02s-.03,0-.04.01c0,0-.01.02,0,.03h0s0,0,0,0l-.03-.23h.13s0-.01,0-.01c-.01,0-.02,0-.03.01-.01,0-.02,0-.02,0-.02,0-.03.01-.04.02,0,0-.01.02-.02.03,0,.01,0,.02,0,.03v.05Z"/>
        <path d="M8.72,8.93s.01-.03.02-.05c.01-.01.03-.03.04-.03.02-.01.03-.01.05-.02s.04,0,.05,0c.03,0,.05.01.07.03.02.02.04.03.05.05.01.02.01.04.01.07,0,.02-.01.03-.02.05-.01.01-.02.02-.04.03-.02.01-.03.02-.05.02-.02,0-.04,0-.06,0-.03,0-.05-.01-.07-.03-.02-.02-.04-.03-.05-.05-.01-.02-.01-.04-.01-.07ZM8.73,8.93s0,.02,0,.03c0,0,0,.01.02.02,0,.01.02.02.03.02.01,0,.02.01.04.02.01,0,.03,0,.05.01.02,0,.04,0,.06,0,.02,0,.03,0,.05,0s.02-.01.03-.02c.01-.01.01-.02.01-.03,0-.02,0-.03-.01-.04-.01-.01-.02-.02-.04-.03-.02-.01-.05-.02-.07-.02-.02,0-.04,0-.05,0s-.03,0-.05,0c-.01,0-.02.01-.03.02,0,0-.01.01-.01.01,0,0,0,.01,0,.02Z"/>
        <path d="M9,8.56l-.02.04.07.04s.03.01.04.01c.01,0,.02-.01.02-.02h0s0,0,0,0l-.06.12h0s0,0,0,0c0-.01,0-.02,0-.03,0-.01-.01-.02-.03-.03l-.15-.07s-.03-.01-.04-.01c0,0-.02,0-.02.02h0s0,0,0,0l.07-.15s.02-.03.03-.04c.01-.01.02-.02.03-.02h.02s.02,0,.02,0c.02.01.03.02.04.05,0,0,0,.02,0,.03,0,.01,0,.02,0,.03,0,0,0,.02-.01.03h0s.02,0,.03-.01c0,0,.01-.01.02-.01,0,0,.01-.01.02-.02h.07s.02,0,.02,0c.01,0,.02-.01.02-.02h0s0,0,0,0l-.03.07h-.16ZM8.97,8.59l.03-.05s.01-.02.01-.03,0-.02-.01-.03c0-.01-.02-.02-.03-.02-.04-.02-.07-.01-.09.03l-.03.05.12.06Z"/>
        <path d="M9.4,7.88h0s.07.1.07.1h0s-.02-.01-.03-.02c0,0-.01-.01-.02-.01-.02-.01-.04-.01-.06-.01-.02,0-.04,0-.05.01,0,0-.01.01-.02.02,0,.01,0,.02,0,.03,0,.01,0,.03.01.05.01.02.02.04.04.06,0,.01.01.02.02.02l.02.02.02.02s.01,0,.01.01c0,0,.01,0,.02,0,0,0,.01,0,.02,0s.01,0,.02,0c0,0,.01,0,.02-.01,0,0,.01-.01.02-.02,0-.01,0-.02.01-.02,0-.01,0-.03-.01-.04h0s-.04-.05-.06-.03h-.01s0,0,0,0l.12-.09h0s0,.01,0,.01c-.01,0-.02.02-.02.03s0,.02.02.04l.04.05h0s-.01,0-.02,0c0,0,0,0-.01,0,0,0,0,0-.01.01s0,0,0,.01c0,.01-.01.02-.02.03,0,0,0,.01-.02.01-.01.01-.03.02-.04.02s-.03,0-.05,0c-.02,0-.03-.01-.05-.02s-.03-.02-.04-.04c0-.01-.01-.02-.02-.03,0-.01-.01-.02-.01-.03,0-.01,0-.02,0-.04,0-.01,0-.02,0-.04,0-.01,0-.02.01-.03s.01-.02.02-.02c.01,0,.02-.01.03-.01s.02,0,.04,0,.02,0,.02,0c0,0,0,0,0-.01,0,0,0-.01,0-.02Z"/>
        <path d="M9.72,7.72h0l.17.21s.01.01.01.01c0,0,.01,0,.02,0h.02s0,0,0,0l-.12.04h0s.01-.01.01-.01c0,0,.01,0,.02-.01h0s0-.02,0-.03c0,0-.01-.01-.02-.02,0,0,0,0,0,0,0,0,0,0,0,0h0s-.09.02-.09.02v.02s0,.01,0,.02c0,0,0,.01.01.02,0,0,.01,0,.01.01h.02s-.08.04-.08.04h0s.01-.01.01-.02,0-.01,0-.01c0-.02,0-.04,0-.07v-.22ZM9.72,7.79v.14s.09-.03.09-.03l-.09-.11Z"/>
        <path d="M10.02,7.64h.15s0,0,0,0h-.02s-.02,0-.03.02c0,.01,0,.02,0,.04l.02.22h.05s.02-.01.03-.02c.01,0,.02-.02.02-.03,0-.01,0-.02.01-.02s0-.02,0-.03,0-.02,0-.04h0v.13s-.22.02-.22.02h0s0,0,0,0c.03,0,.04-.02.03-.05v-.17s-.03-.05-.05-.05h-.01Z"/>
        <path d="M10.43,7.63l.14.03h0s-.01,0-.01,0c-.01,0-.02,0-.03,0,0,0-.01.02-.02.04l-.04.22h.05s.02.01.03,0c.01,0,.02-.01.03-.02,0,0,.01-.01.02-.02,0,0,0-.02.01-.02,0-.01,0-.02.01-.03h0l-.02.13-.23-.04h0s0,0,0,0c.02,0,.04-.01.05-.05l.03-.16s0-.05-.03-.06h0Z"/>
        <path d="M10.95,7.78h0l-.04.27v.02s0,.01,0,.01c0,0,0,0,.01.01h0s0,.01,0,.01l-.11-.05h0s.01,0,.01,0c.01,0,.01,0,.02,0,0,0,0,0,.01-.01,0,0,0,0,0-.01,0,0,0-.02,0-.03h0v-.02l-.08-.04-.02.02s-.01.01-.01.02c0,0,0,.01,0,.02s0,.01,0,.02c0,0,0,0,0,.01,0,0,0,0,0,0h0s-.08-.03-.08-.03h0s.01,0,.01,0,.01,0,.02,0c.01,0,.03-.02.05-.04l.15-.16ZM10.9,7.83l-.1.1.08.04.02-.14Z"/>
        <path d="M11.22,7.95l.06.06-.03.26.08-.09s.02-.02.02-.03c0-.01,0-.02,0-.03,0,0,0,0,0-.01,0,0,0,0-.01-.01h0s.07.07.07.07h0s0,0,0,0c-.01-.01-.02-.01-.04-.01-.02,0-.03.02-.05.03l-.14.15h0s.04-.32.04-.32l-.12.13s-.02.02-.02.03c0,.01,0,.02,0,.03s0,.01,0,.02c0,0,0,.01.01.01h0s-.08-.07-.08-.07h0s.02,0,.03,0c0,0,.02,0,.02,0,.01,0,.02-.01.03-.02l.11-.12s0-.01.01-.02c0-.01,0-.02,0-.02,0,0,0-.01-.01-.02h0,0Z"/>
        <path d="M11.54,8.29l.13.21-.13.07h0s.05-.05.07-.07c.02-.03.02-.05,0-.07h0s-.19.1-.19.1c-.03.02-.04.04-.03.06l.02.03h0s-.1-.16-.1-.16h0s.02.02.02.02c.01.02.03.02.06,0l.19-.11h0s-.04-.04-.07-.04c-.02,0-.04,0-.06.01-.01,0-.02.01-.03.01h0s.13-.08.13-.08Z"/>
        <path d="M11.63,8.85v-.04s-.09.02-.09.02c-.02,0-.03.01-.03.02-.01,0-.01.02,0,.03h0s0,0,0,0l-.03-.13h0s0,0,0,0c0,.01.01.02.02.02,0,0,.02,0,.04,0l.16-.04s.03-.01.04-.02c0,0,.01-.02,0-.03h0s.01,0,.01,0l.04.16s0,.04,0,.05c0,.01,0,.02-.02.03,0,0,0,.01-.02.01,0,0-.01.01-.02.01-.02,0-.04,0-.06-.01,0,0-.01-.01-.02-.02,0,0-.01-.02-.01-.03,0,0,0-.02-.01-.04h0s-.01.02-.01.03,0,.01,0,.02c0,.01,0,.02,0,.03h0s0,.01-.01.02c0,0,0,0-.01,0-.01.01-.02.02-.03.02,0,0-.01.01-.01.02,0,0,0,.02,0,.03h0s0,0,0,0l-.02-.08.12-.11ZM11.63,8.8v.06s.02.03.03.03.02.01.03.01c.01,0,.02,0,.04,0,.04-.01.06-.04.05-.07v-.06s-.14.03-.14.03Z"/>
        <path d="M11.82,9.16v.14h-.02v-.02s0-.01,0-.02c0,0,0,0-.01,0h-.01s0,0-.02,0l-.11.04.08.05s.02.01.03.01c.01,0,.02,0,.02,0,0,0,.01-.01.01-.02h0s0-.01,0-.01v.11h-.01s0-.01,0-.02c0,0,0-.01-.01-.01,0,0,0-.01-.01-.02,0,0-.01-.01-.02-.02l-.09-.06h-.07s-.03,0-.04,0c-.01,0-.02.02-.02.03h0s0,.01,0,.01v-.15s.02,0,.02,0h0s0,.04.01.04.02.01.04.01h.06s.12-.05.12-.05c.02,0,.03-.01.03-.02,0,0,.01-.02.01-.03h0s0,0,0,0Z"/>
      </g>
      <g>
        <path d="M10.45,10.55h-.15v-.07s-.02-.04-.04-.04-.04.02-.04.04v.07h-.15s-.04.02-.04.04.02.04.04.04h.15v.07s.02.04.04.04.04-.02.04-.04v-.07h.15s.04-.02.04-.04-.02-.04-.04-.04Z"/>
        <g>
          <path d="M10.82,10.53s-.03.07-.07.07-.07-.03-.07-.07.03-.07.07-.07.07.03.07.07Z"/>
          <path d="M9.84,10.53s-.03.07-.07.07c-.04,0-.07-.03-.07-.07s.03-.07.07-.07c.04,0,.07.03.07.07Z"/>
        </g>
      </g>
      <path class="cls-5" d="M10.88,9.04s.09-.06.11-.15c.01,0,.02,0,.03,0,.06,0,.18.02.21.04.01,0,.02.02.02.02.03.02.05.05.11.01t0,0s-.03-.13-.12-.13c-.01,0-.02-.01-.03-.02-.1-.04-.2-.1-.24-.07-.02.01-.04.03-.06.06-.03.03-.07.09-.09.07-.02-.02-.13-.15-.19-.26.02-.01.03-.03.04-.04.02-.02.03-.05.05-.07,0,0,0,0,.01,0,.01,0,.03,0,.04-.01.01,0,.03,0,.04-.01.02-.01.03-.03.03-.05,0-.03-.03-.12-.3-.11v-.06s-.01,0-.01,0c0,0,0,0,0,0,0,0-.04.03-.06.06h0l-.02-.02s0,0-.01,0c0,0,0,0,0,0,0-.01,0-.03,0-.04,0-.1-.07-.17-.17-.17-.08,0-.15.06-.17.14h-.02s-.06,0-.09,0c-.04,0-.08.02-.11.04-.02,0-.03.02-.05.03s-.03.02-.05.03c0,0,0,0,0,.01,0,0,0,0,0,0,.01,0,.04,0,.05.01,0,0,.01,0,.01,0,.01,0,.02,0,.03.01,0,0,.02,0,.02,0-.02,0-.06.01-.12,0-.02,0-.04-.01-.05-.02-.05-.02-.07-.03-.12-.02-.04.01-.05.04-.07.06,0,0,0,.01-.01.01,0,0-.01,0-.02,0-.03,0-.05.01-.06.02,0,0,0,.02-.01.02,0,.01,0,.02-.02.03,0,0-.02,0-.04-.01-.01-.01-.03-.02-.04-.01-.01.01-.01.03-.01.07.01.12-.04.16-.04.16,0,0-.05.04-.06.08,0,.02,0,.03.02.05,0,0,.01.01.02.02t.01.07s0,.03.01.04c.01.01.04.02.08.02s.07,0,.11-.03c.02-.02.06-.04.1-.07-.05.09.02.14.05.17h0s.01.01.02.01.01-.02.01-.04l.13.13s-.11.1-.12.18c-.02,0-.04-.01-.05-.02-.03-.01-.05-.02-.06-.03-.02-.01-.04-.02-.07-.03-.05-.01-.09-.03-.12,0s-.05.06-.05.11c0,.03.01.04.03.06s.03.03.03.06,0,.06-.02.07c0,.01-.02.01-.02.02-.01,0-.02.01-.03.02-.02.02-.03.06-.02.09,0,.01.01.02.02.02,0,0,.01.01.01.02,0,.01,0,.02,0,.04,0,.01,0,.02,0,.03,0,.04.04.07.06.08,0,0,.01,0,.01,0s0,0,0,0c0,0,0-.02,0-.04,0-.02-.02-.05,0-.06,0-.01.02,0,.03,0s.03,0,.04,0c.01-.01,0-.04,0-.06-.01-.03-.02-.06,0-.08,0-.01.02-.02.03-.02.01,0,.03-.01.04-.03.03-.04,0-.11-.03-.14-.01-.01-.02-.03-.03-.03-.01-.02-.02-.02-.02-.03,0-.01.02-.02.03-.02.02,0,.03.01.04.03,0,.01.01.02.02.02.03.02.07.03.14.02.05.11.17.2.27.19-.02.06-.04.11-.05.13-.01.01-.02.03-.01.05s.04.03.08.03c.04,0,.08,0,.12.02-.01.02-.02.03-.03.04l-.09.02s0,0,0,0l-.06.07h-.38s0,0,0,0,0,0,0,0l.26.06-.22-.02s0,0,0,0h0s.08.1.08.1t0,0h1.29l.1-.1s0,0,0,0h0s-.07-.06-.13-.1c.02,0,.04-.02.06-.03.04.02.11.05.14.05h0s.04-.02.05-.03c.02-.02.04-.05.04-.07,0-.03-.04-.03-.06-.03,0,0,0,0,0,0,0,0-.02.04-.05.05-.01,0-.03-.01-.05-.02.04-.02.1-.08.19-.17h0s.01-.03,0-.04c0,0,0-.01,0-.01,0,0,0,0,0-.01,0-.01,0-.02-.01-.03,0,0-.01-.01-.02-.01-.02,0-.06.04-.07.06-.01.02-.02.03-.06.06-.01.01-.03.02-.05.04,0-.04-.02-.08-.04-.11-.01-.02-.02-.03-.03-.05.01.01.03.02.05.02.05,0,.12-.02.17-.06.01-.01.02-.02.03-.03h.11s0,0,0,0,0,0,0,0l-.04-.02h0s0,0,0-.01,0,0,0,0l-.03-.02h.02v-.02s0,0,0,0h-.07s-.02-.06-.05-.09c-.01-.01-.03-.02-.05-.02-.01,0-.03,0-.03,0,0,0-.01-.02-.02-.03,0-.01-.01-.03-.02-.03,0,0-.01,0-.02,0-.02.01-.04.03-.04.07,0,.01.01.03.03.05-.04-.01-.07-.02-.07-.02t0,0s0,0,0,0c.01.03.03.05.05.06h-.02s0,0,0,0c0,0,0,0,0,0,0,.03.03.04.06.05.02,0,.03.01.05.02s.02.02.02.03c0,.01-.02.01-.03.01-.02,0-.04-.02-.06-.03-.02-.02-.05-.04-.08-.03-.02,0-.04.02-.05.04-.01.03.02.08.03.11,0,0,.01.01.01.02s0,.01-.04.02c-.01-.02-.03-.04-.05-.06.02-.09.09-.23.13-.31h0s0-.01,0,0c-.05.01-.11.06-.19.14-.02-.01-.03-.02-.06-.04h0s-.01-.01-.02-.02c-.02-.02-.06-.07-.09-.13,0,0,0,0,0,0,.02,0,.04,0,.07,0,.1,0,.23-.02.29-.04.05.01.09.05.13.09.04.03.07.06.1.07h0s.04.08.08.08c.01,0,.02,0,.04-.01,0,0,0,0,0,0,0-.06-.03-.12-.1-.15-.03-.02-.06-.05-.09-.09-.05-.04-.09-.09-.11-.09-.02,0-.06,0-.1,0-.02,0-.04,0-.05,0,0-.01.02-.02.03-.03ZM10.66,8.56s-.02.03-.04.04c-.01-.03-.02-.05-.02-.06h.02s.05-.02.08-.03c-.01.02-.02.04-.04.05ZM10.11,8.3s.01.02.02.03c0,.01,0,.02-.01.03-.02,0-.04,0-.06,0,0,0,0,0,.01,0,.01,0,.02-.02.03-.03,0,0,.01-.01.01-.02ZM10.24,8.5s.03-.02.03-.03h0s0-.01,0-.01.02-.01.03-.01c-.01.03-.03.06-.04.09l-.03-.03ZM9.71,8.91s0-.02,0-.04c0-.03.02-.06.04-.09.06-.02.11-.04.16-.04,0,.03.02.07.04.11.02.03.03.07.04.11.01.03.03.06.05.07-.03.02-.06.03-.09.03-.01,0-.03,0-.05.01l-.16-.11s.01-.01.01-.01c0-.02-.04-.04-.06-.04ZM10.6,9.43h0c-.08-.02-.17-.02-.25,0,0,0,0,0,0,0s0,0,0,0c.02,0,.03.01.05.01.03.01.05.01.05.05,0,0,0,0,0,0,0,0,0,0,0,0,.06,0,.1.01.11.03,0,0,0,.01,0,.02h0s0,0,0,0c.06.01.09.03.09.06h0s0,0,0,0c.05,0,.08.01.09.04-.03-.01-.09-.02-.14-.02,0-.01-.02-.03-.04-.06-.03-.03-.07-.06-.17-.02h0s-.05.01-.1.01l.02-.07c.01-.05-.01-.12-.03-.16.07-.02.15-.04.22-.08.02.03.05.05.06.06,0,0,.01.01.01.01,0,0,0,0,0,0,.01.02.04.04.02.07ZM10.06,9.68s.08-.09.11-.16c.01.04,0,.07,0,.1h0s0,.01,0,.01c-.01.01-.02.02-.02.05,0,0,0,.01,0,.01,0,0,.01,0,.02,0,.02,0,.04,0,.06,0s.04,0,.05,0c.02,0,.06,0,.1-.01.03-.01.09-.02.09-.01,0,0,.01.01.03.01-.04.01-.07.02-.1.04-.08-.02-.15-.02-.18,0,0,0-.02.02-.04.03-.05-.02-.11-.05-.12-.08Z"/>
      <path class="cls-4" d="M10.88,9.04s.09-.06.11-.15c.01,0,.02,0,.03,0,.06,0,.18.02.21.04.01,0,.02.02.02.02.03.02.05.05.11.01t0,0s-.03-.13-.12-.13c-.01,0-.02-.01-.03-.02-.1-.04-.2-.1-.24-.07-.02.01-.04.03-.06.06-.03.03-.07.09-.09.07-.02-.02-.13-.15-.19-.26.02-.01.03-.03.04-.04.02-.02.03-.05.05-.07,0,0,0,0,.01,0,.01,0,.03,0,.04-.01.01,0,.03,0,.04-.01.02-.01.03-.03.03-.05,0-.03-.03-.12-.3-.11v-.06s-.01,0-.01,0c0,0,0,0,0,0,0,0-.04.03-.06.06h0l-.02-.02s0,0-.01,0c0,0,0,0,0,0,0-.01,0-.03,0-.04,0-.1-.07-.17-.17-.17-.08,0-.15.06-.17.14h-.02s-.06,0-.09,0c-.04,0-.08.02-.11.04-.02,0-.03.02-.05.03s-.03.02-.05.03c0,0,0,0,0,.01,0,0,0,0,0,0,.01,0,.04,0,.05.01,0,0,.01,0,.01,0,.01,0,.02,0,.03.01,0,0,.02,0,.02,0-.02,0-.06.01-.12,0-.02,0-.04-.01-.05-.02-.05-.02-.07-.03-.12-.02-.04.01-.05.04-.07.06,0,0,0,.01-.01.01,0,0-.01,0-.02,0-.03,0-.05.01-.06.02,0,0,0,.02-.01.02,0,.01,0,.02-.02.03,0,0-.02,0-.04-.01-.01-.01-.03-.02-.04-.01-.01.01-.01.03-.01.07.01.12-.04.16-.04.16,0,0-.05.04-.06.08,0,.02,0,.03.02.05,0,0,.01.01.02.02t.01.07s0,.03.01.04c.01.01.04.02.08.02s.07,0,.11-.03c.02-.02.06-.04.1-.07-.05.09.02.14.05.17h0s.01.01.02.01.01-.02.01-.04l.13.13s-.11.1-.12.18c-.02,0-.04-.01-.05-.02-.03-.01-.05-.02-.06-.03-.02-.01-.04-.02-.07-.03-.05-.01-.09-.03-.12,0s-.05.06-.05.11c0,.03.01.04.03.06s.03.03.03.06,0,.06-.02.07c0,.01-.02.01-.02.02-.01,0-.02.01-.03.02-.02.02-.03.06-.02.09,0,.01.01.02.02.02,0,0,.01.01.01.02,0,.01,0,.02,0,.04,0,.01,0,.02,0,.03,0,.04.04.07.06.08,0,0,.01,0,.01,0s0,0,0,0c0,0,0-.02,0-.04,0-.02-.02-.05,0-.06,0-.01.02,0,.03,0s.03,0,.04,0c.01-.01,0-.04,0-.06-.01-.03-.02-.06,0-.08,0-.01.02-.02.03-.02.01,0,.03-.01.04-.03.03-.04,0-.11-.03-.14-.01-.01-.02-.03-.03-.03-.01-.02-.02-.02-.02-.03,0-.01.02-.02.03-.02.02,0,.03.01.04.03,0,.01.01.02.02.02.03.02.07.03.14.02.05.11.17.2.27.19-.02.06-.04.11-.05.13-.01.01-.02.03-.01.05s.04.03.08.03c.04,0,.08,0,.12.02-.01.02-.02.03-.03.04l-.09.02s0,0,0,0l-.06.07h-.38s0,0,0,0,0,0,0,0l.26.06-.22-.02s0,0,0,0h0s.08.1.08.1t0,0h1.29l.1-.1s0,0,0,0h0s-.07-.06-.13-.1c.02,0,.04-.02.06-.03.04.02.11.05.14.05h0s.04-.02.05-.03c.02-.02.04-.05.04-.07,0-.03-.04-.03-.06-.03,0,0,0,0,0,0,0,0-.02.04-.05.05-.01,0-.03-.01-.05-.02.04-.02.1-.08.19-.17h0s.01-.03,0-.04c0,0,0-.01,0-.01,0,0,0,0,0-.01,0-.01,0-.02-.01-.03,0,0-.01-.01-.02-.01-.02,0-.06.04-.07.06-.01.02-.02.03-.06.06-.01.01-.03.02-.05.04,0-.04-.02-.08-.04-.11-.01-.02-.02-.03-.03-.05.01.01.03.02.05.02.05,0,.12-.02.17-.06.01-.01.02-.02.03-.03h.11s0,0,0,0,0,0,0,0l-.04-.02h0s0,0,0-.01,0,0,0,0l-.03-.02h.02v-.02s0,0,0,0h-.07s-.02-.06-.05-.09c-.01-.01-.03-.02-.05-.02-.01,0-.03,0-.03,0,0,0-.01-.02-.02-.03,0-.01-.01-.03-.02-.03,0,0-.01,0-.02,0-.02.01-.04.03-.04.07,0,.01.01.03.03.05-.04-.01-.07-.02-.07-.02t0,0s0,0,0,0c.01.03.03.05.05.06h-.02s0,0,0,0c0,0,0,0,0,0,0,.03.03.04.06.05.02,0,.03.01.05.02s.02.02.02.03c0,.01-.02.01-.03.01-.02,0-.04-.02-.06-.03-.02-.02-.05-.04-.08-.03-.02,0-.04.02-.05.04-.01.03.02.08.03.11,0,0,.01.01.01.02s0,.01-.04.02c-.01-.02-.03-.04-.05-.06.02-.09.09-.23.13-.31h0s0-.01,0,0c-.05.01-.11.06-.19.14-.02-.01-.03-.02-.06-.04h0s-.01-.01-.02-.02c-.02-.02-.06-.07-.09-.13,0,0,0,0,0,0,.02,0,.04,0,.07,0,.1,0,.23-.02.29-.04.05.01.09.05.13.09.04.03.07.06.1.07h0s.04.08.08.08c.01,0,.02,0,.04-.01,0,0,0,0,0,0,0-.06-.03-.12-.1-.15-.03-.02-.06-.05-.09-.09-.05-.04-.09-.09-.11-.09-.02,0-.06,0-.1,0-.02,0-.04,0-.05,0,0-.01.02-.02.03-.03ZM10.66,8.56s-.02.03-.04.04c-.01-.03-.02-.05-.02-.06h.02s.05-.02.08-.03c-.01.02-.02.04-.04.05ZM10.53,8.27v.05s.01,0,.01,0c.21-.01.29.04.3.09,0,.02,0,.03-.03.04-.01,0-.03.01-.04.01-.01,0-.03,0-.04.01,0-.02.02-.03.02-.05,0,0,0,0,0-.01,0,0,0,0,0,0-.01.02-.02.04-.03.06-.03.01-.06.02-.09.03h-.02s0,.01,0,.01c0,.02.01.04.03.08-.03.03-.08.07-.15.1-.05.03-.1.04-.13.05-.02-.23.06-.33.11-.38.02-.02.03-.03.03-.04,0,0,0-.01,0-.02.01-.02.03-.05.05-.06ZM10.34,8.83s-.02.02-.04.04c0-.02,0-.05,0-.09,0,0,.01,0,.02,0s.02,0,.02,0c0,.02,0,.03,0,.05ZM10.1,8.4h0s.12.09.18.15c0,.03,0,.12,0,.21,0,0,0,0-.01,0,0-.01,0-.02-.01-.04,0-.01,0-.04,0-.07,0-.04-.02-.07-.04-.11,0,0,0,0,0,0,0,0,0,0,0,0,.02.03.03.07.03.11,0,.03,0,.05.01.06,0,.02,0,.04.01.05,0,0,.01,0,.02.01,0,.02,0,.04,0,.06-.13-.02-.16-.17-.18-.26,0-.01,0-.02,0-.03,0,0,0,0,0,0-.02-.02-.05-.06-.09-.12.05-.01.07-.02.1-.02ZM10.25,8.22s.04,0,.06.02c.01,0,.02.01.03.02s.01.02.01.03h0s-.09-.01-.13-.02c-.01,0-.03,0-.04,0,0,0,.01-.01.01-.02,0,0,0-.01,0-.01,0,0,0,0,.01,0,0,0,.01,0,.02,0,0,0,.01,0,.02,0ZM10.14,8.32s-.01-.02-.01-.03c0,0,0,0,.01-.01,0,0,.01,0,.02,0,0,.01-.01.02-.02.04ZM10.11,8.3s.01.02.02.03c0,.01,0,.02-.01.03-.02,0-.04,0-.06,0,0,0,0,0,.01,0,.01,0,.02-.02.03-.03,0,0,.01-.01.01-.02ZM10.17,8.28s.03,0,.04,0c.04.01.09.02.14.03,0,.03-.02.1-.03.11-.01,0-.04.01-.05.02,0,0-.01.03-.04.04-.03-.03-.07-.07-.11-.09,0-.05.03-.09.04-.12ZM10.24,8.5s.03-.02.03-.03h0s0-.01,0-.01.02-.01.03-.01c-.01.03-.03.06-.04.09l-.03-.03ZM10.45,8.3l.02.02h0s0,.02,0,.02c0,.01-.01.02-.02.04-.04.05-.13.15-.11.38-.02,0-.03,0-.04,0,0-.07,0-.15,0-.21,0,0,0,0,0,0h0c.03-.08.06-.15.08-.16.02-.03.05-.06.07-.07h0s0,0,.01,0ZM10.27,8.09c.09,0,.16.07.16.16,0,.02,0,.03,0,.05-.02.02-.05.05-.07.07h0s.01-.05.01-.06h0s-.04-.1-.11-.1h0s-.07,0-.11,0h-.02c.02-.07.08-.12.15-.12ZM9.85,8.33s0,0-.01,0c-.01,0-.02,0-.03-.01l.03-.02s.03-.02.05-.03c.03-.02.07-.03.11-.03.03,0,.06,0,.09,0,.02,0,.04,0,.06,0h.06s-.02,0-.02.01l-.02.03h0s-.02,0-.03.01c-.02,0-.03.02-.04.04,0,.01-.02.02-.03.03-.04.03-.1.02-.14,0h-.04s-.02-.02-.03-.02ZM9.48,8.92c-.06.04-.14.03-.17.01-.01,0-.01-.02-.01-.03.02-.04.02-.05-.02-.09,0,0-.01-.01-.02-.02-.01-.01-.01-.02-.01-.04,0-.04.05-.07.05-.07,0,0,.05-.05.04-.17,0-.04,0-.06,0-.06,0,0,.01,0,.03,0s.03.02.04.01c.03,0,.03-.02.03-.04,0,0,0-.01,0-.02,0,0,.03-.01.05-.02.01,0,.02,0,.03-.01,0,0,0,0,.01-.02.01-.02.02-.04.06-.05.04-.01.06,0,.11.01.01,0,.03.01.05.02.08.03.14.01.15,0,.02,0,.05.01.08.01.01,0,.02,0,.03,0h0s.06,0,.09.01c0,0,0,0,0,.01,0,0-.01,0-.02,0-.04,0-.06,0-.14.03-.1.02-.17.11-.24.22-.05.04-.09.13-.12.2-.05.03-.1.06-.12.08ZM9.71,8.91s0-.02,0-.04c0-.03.02-.06.04-.09.06-.02.11-.04.16-.04,0,.03.02.07.04.11.02.03.03.07.04.11.01.03.03.06.05.07-.03.02-.06.03-.09.03-.01,0-.03,0-.05.01l-.16-.11s.01-.01.01-.01c0-.02-.04-.04-.06-.04ZM9.91,8.72s-.09.02-.14.04c.02-.02.04-.04.05-.05.03-.02.04-.02.06-.04.01,0,.02-.01.03-.02-.01.02-.01.04,0,.06ZM9.73,8.96l.22.15.06.11-.14-.04-.2-.21s0-.01,0-.01c0-.01,0-.01.03,0h.02ZM9.58,9.38l-.02-.02s-.03-.04-.05-.04c-.02,0-.04.01-.05.03,0,.01,0,.03.02.04.01.01.02.02.03.03.02.03.05.09.03.13,0,.01-.02.02-.03.02-.01,0-.03.01-.04.03-.02.03,0,.06,0,.09,0,.02.01.04,0,.05,0,0-.02,0-.03,0s-.03,0-.04,0c-.02.02,0,.05,0,.07,0,.01.01.03,0,.03,0,0,0,0-.01,0-.02-.01-.04-.03-.05-.06v-.03s0-.03,0-.04c0-.01-.01-.02-.02-.02,0,0,0,0-.01-.02-.01-.02,0-.05.01-.08.01-.01.02-.01.03-.02.01,0,.02-.01.03-.02.02-.02.02-.05.02-.09s-.02-.05-.03-.07c-.01-.02-.02-.03-.03-.05,0-.04.02-.08.04-.1.03-.02.06,0,.11.01.03,0,.05.02.06.03.02.01.04.02.07.03.02,0,.04.01.06.01v.02s0,.03.01.05c-.06.01-.1,0-.13-.02ZM10,9.8s-.06,0-.06-.02c0-.01,0-.03,0-.04.01-.02.03-.05.06-.14,0,0,0,0,0,0,0,0,0,0,0,0-.1.02-.23-.08-.27-.19,0-.02-.01-.04-.01-.05,0,0,0-.01,0-.02,0-.05.05-.12.12-.18l.06.06s0,0,0,0l.16.04h0s0,0,0,0t0,0l-.07-.13h0s-.04-.03-.04-.03c.02,0,.03-.01.04-.01.03,0,.06-.01.1-.03.09.05.23.06.34.06,0,.07.04.14.08.18-.07.04-.15.06-.22.08-.03,0-.06.01-.08.01t0,0h0s0,.1-.01.13h0c-.03.08-.08.15-.11.17t0,0s.08.07.17.11c.01,0,.02.01.03.01h0c.08-.02.11.04.13.09,0,0,0,.01.01.02,0,0,0,0,0,.01-.01,0-.03,0-.05,0-.02,0-.07,0-.1-.03-.04-.04-.16-.11-.26-.1ZM10.6,9.43h0c-.08-.02-.17-.02-.25,0,0,0,0,0,0,0s0,0,0,0c.02,0,.03.01.05.01.03.01.05.01.05.05,0,0,0,0,0,0,0,0,0,0,0,0,.06,0,.1.01.11.03,0,0,0,.01,0,.02h0s0,0,0,0c.06.01.09.03.09.06h0s0,0,0,0c.05,0,.08.01.09.04-.03-.01-.09-.02-.14-.02,0-.01-.02-.03-.04-.06-.03-.03-.07-.06-.17-.02h0s-.05.01-.1.01l.02-.07c.01-.05-.01-.12-.03-.16.07-.02.15-.04.22-.08.02.03.05.05.06.06,0,0,.01.01.01.01,0,0,0,0,0,0,.01.02.04.04.02.07ZM10.06,9.68s.08-.09.11-.16c.01.04,0,.07,0,.1h0s0,.01,0,.01c-.01.01-.02.02-.02.05,0,0,0,.01,0,.01,0,0,.01,0,.02,0,.02,0,.04,0,.06,0s.04,0,.05,0c.02,0,.06,0,.1-.01.03-.01.09-.02.09-.01,0,0,.01.01.03.01-.04.01-.07.02-.1.04-.08-.02-.15-.02-.18,0,0,0-.02.02-.04.03-.05-.02-.11-.05-.12-.08ZM10.48,9.66s-.03,0-.1.01c-.04,0-.07.01-.09.01-.01,0-.03,0-.05,0-.03,0-.06.01-.07,0h0s0-.04.02-.05c0,0,0-.01.01-.02h0s0-.08-.01-.12c.01-.04.02-.09.01-.13.02,0,.05,0,.07-.01.02.04.05.1.03.16l-.02.08h0s0,.01,0,.01c.02,0,.1-.01.11-.01t0,0c.07-.03.13-.02.16.01.03.04.03.05.03.06,0,0-.01,0-.02,0-.02,0-.08-.01-.09-.02ZM10.4,9.88s-.02-.04-.04-.06c0,0,.01,0,.02-.01,0,0,0,.01,0,.02.01.02.02.03.03.05,0,0,0,.01,0,.02,0,0,0,0,0-.01ZM10.2,9.87s-.07.02-.11.02c0-.01.02-.03.03-.05.03.01.05.02.07.03ZM11.05,10.03l-.09.09h-1.28l-.07-.08.29.02s0,0,0,0c0,0,0,0,0,0l-.28-.06h.32s0,0,0,0l.06-.07.08-.02s0,0,0,.01c0,0,0,0,0,0,0,0,0,0,0,0h0s.07-.01.12-.02c.01,0,.02.02.03.02.03.03.07.03.1.03h.02s.02,0,.02,0c0,.01,0,.02-.01.02,0,.01,0,.02-.01.02h0s.05.02.11.02c.08,0,.18-.01.18-.01.02,0,.04-.02.04-.04h0s.06,0,.1,0c.04,0,.09,0,.13-.02.05.03.11.07.13.09ZM11.26,9.44h-.01s0,.01,0,.02,0,0,0,0l.03.02h-.01s0,0,0,.01,0,0,0,0h.02s-.07,0-.07,0c0-.01,0-.02,0-.03,0-.01,0-.03,0-.04h.04ZM10.95,9.36s.05.02.08.02c0,0,0,0,0,0,0,0,.01.01.02.01,0,0-.03.01-.05.01-.01-.01-.03-.03-.05-.05ZM10.91,9.63s0-.01-.01-.02c-.02-.02-.04-.06-.03-.1,0-.01.02-.03.04-.03.02,0,.05.01.07.03.02.02.04.04.07.04s.04-.01.04-.02c0-.01,0-.03-.02-.05-.01,0-.03-.01-.05-.02-.02-.01-.04-.02-.05-.03.01,0,.02,0,.03,0h0s.06-.01.06-.02c0,0,0,0,0,0,0,0,0-.01-.02-.03-.02-.02-.05-.05-.05-.06,0-.02,0-.04.03-.06h0s.01.02.02.03c0,.01.01.02.02.03.01,0,.02,0,.04.01.02,0,.03,0,.04.01.05.06.06.1.06.13,0,.02-.01.05-.03.06-.05.04-.11.06-.16.06-.03,0-.05-.01-.06-.03,0,0,0,0,0,0,0,0,0,0,0,0,0,.03.02.05.04.07.02.03.05.06.04.11,0,0,0,0,0,0,0,0,0,0,0,0,.03-.02.05-.04.06-.05.04-.03.06-.04.06-.07.01-.02.04-.05.06-.05,0,0,0,0,0,0,0,.01.01.02.01.03,0,.01,0,.02.01.02,0,0,0,0,0,0,0,0,0,.01,0,.02h0c-.09.1-.16.15-.19.17-.01-.01-.03-.02-.03-.03,0,0,0,0,0,0,0,0,0,0,0,.01,0,0,.06.07.1.07.04,0,.06-.04.06-.05,0,0,.03,0,.04.02,0,.01-.01.04-.03.06-.02.02-.03.03-.05.02-.04,0-.15-.05-.17-.07,0,0,0,0-.01,0,0,0,0,0,0,.01s.01.01.02.02c-.07.05-.19.06-.29.04,0-.02-.01-.03-.03-.03-.03-.01-.05,0-.07,0,0,0-.01,0-.02-.01h0s-.03,0-.04,0c.02-.03.04-.06.04-.08,0,0,0,0,0,0s0,0,0,0c0,.03-.05.1-.07.12,0,0,0,0,0,0,0,0,0,0,0,0,.05,0,.07,0,.07,0h0s.04-.04.09-.02c.02,0,.03.02.03.03,0,.02-.02.03-.03.03-.05.01-.25.02-.27,0,0,0,0-.01.01-.02,0-.01.01-.02.02-.03,0,0,.01,0,.01,0h0s0-.01,0-.01c.02-.04.03-.09.01-.11,0,0,0,0-.01,0h0s.01.04,0,.07c-.01-.01-.02-.03-.02-.04,0,0,0-.02-.01-.02,0,0,0,0,0,0-.01,0-.02.01-.03.01-.02-.02-.05-.03-.09-.02,0,0-.02,0-.03-.01-.01,0-.02-.01-.03-.01.01-.01.03-.02.03-.03.03-.02.1-.02.17,0h0s.08-.04.12-.05c.02,0,.04,0,.05,0,.01,0,.02,0,.03-.01.06,0,.12.01.15.02,0,0,0,.01,0,.01h0c.07.05.08.06.08.06h0s0,0,0,0,0,0,0,0c0,0-.01,0-.08-.05,0-.07-.07-.07-.1-.07,0-.04-.04-.06-.09-.07,0-.01,0-.02,0-.02-.01-.02-.05-.03-.12-.03,0-.05-.03-.05-.06-.06-.01,0-.02,0-.03-.01.08-.02.16-.01.23.02.01.02.04.03.07.04.05.03.1.07.13.11h0s.04.05.05.07c.01.02.02.03.02.03s0,0,0,0h0s0,0,0,0c0,0-.01-.02-.02-.03.03-.01.04-.02.04-.04ZM10.51,9.91s.03,0,.05,0c0,0,0,0,.01,0,0,0-.02.01-.02.01,0,0-.02,0-.05,0,0,0,0-.01.01-.02ZM10.93,9.29c-.04.08-.1.2-.12.29-.03-.03-.06-.06-.11-.09.02,0,.04,0,.06,0,.01,0,.02,0,.03,0,0,0,0,0,0,0,0-.02-.01-.04-.04-.06.06-.07.12-.11.16-.13ZM10.68,9.39h0s0,0,0,0c.07.04.1.06.11.09h-.03c-.1,0-.14,0-.15-.04.02-.04,0-.07-.02-.08h0s0-.01,0-.02c-.04-.03-.14-.13-.15-.25,0,0,0,0,0,0h0c-.09,0-.36,0-.4-.14-.01-.04-.03-.08-.05-.11-.03-.07-.06-.14-.03-.2,0,0,0,0,0,0,0,0,0,0,0,0-.02.01-.04.02-.05.03-.02.01-.03.02-.06.03-.04.02-.1.11-.12.17,0,.02,0,.04,0,.05h0s.05.03.05.04h0s-.02,0-.04,0c-.02,0-.04,0-.04.02,0,0,0,.02,0,.03,0,0,0,.03,0,.03,0,0,0,0-.01,0h0s-.1-.09-.04-.17c.03-.08.07-.17.12-.21h0c.07-.11.14-.2.23-.21,0,0,.01,0,.02,0,.04.06.07.1.09.12,0,.01,0,.02.01.03.02.09.05.24.2.27,0,.01,0,.02,0,.03h0s.01.05.02.05h0s.01,0,.02,0c.07.01.16.03.19.16.01.05.03.1.05.14h0c.03.06.06.11.09.13,0,.01.01.02.02.02ZM10.84,9.07s0,0,0,0h.06s.07,0,.1,0c.02,0,.06.04.11.09.03.03.07.07.1.09.06.04.09.09.09.14-.05.02-.06-.01-.09-.06h0s0-.01,0-.01c-.03,0-.06-.04-.1-.07-.04-.04-.09-.07-.13-.09h0c-.05.03-.19.04-.29.05-.03,0-.05,0-.07,0,0,0,0,0,0,0h0s-.03-.08-.04-.13c-.03-.14-.13-.16-.2-.17,0,0-.01,0-.02,0,0,0-.01-.02-.01-.04.02-.01.03-.03.05-.04,0,0,0,0,0,0,0-.02,0-.04,0-.06.05-.01.11-.04.13-.05.06-.03.11-.07.15-.1.06.11.17.24.19.26s.06-.03.11-.07c.02-.02.04-.05.06-.05.03-.02.14.03.23.07.01,0,.02.01.03.02h0c.06,0,.1.07.11.11-.04.03-.06.01-.09-.01,0,0-.02-.01-.02-.02-.04-.03-.15-.04-.21-.05-.01,0-.02,0-.03,0h0c-.02.09-.07.13-.11.15-.02.01-.03.02-.04.04h0Z"/>
    </g>
  </g>
  <circle class="cls-10" cx="16.1" cy="16.1" r="15.6"/>
</svg>