<?xml version="1.0" encoding="UTF-8"?>
<svg id="Layer_1" xmlns="http://www.w3.org/2000/svg" viewBox="0 0 32.2 32.2">
  <defs>
    <style>
      .cls-1 {
        fill: #ed1c24;
      }

      .cls-2 {
        fill: #fff;
      }

      .cls-3 {
        fill: #0f4ea0;
      }

      .cls-4 {
        fill: none;
        stroke: #114b63;
        stroke-miterlimit: 10;
      }
    </style>
  </defs>
  <g>
    <g>
      <path class="cls-2" d="M30.4,11.04H1.8C3.89,5.16,9.51.93,16.1.93s12.22,4.23,14.3,10.11Z"/>
      <path class="cls-1" d="M30.4,21.16c-2.09,5.88-7.71,10.11-14.3,10.11S3.89,27.05,1.8,21.16h28.6Z"/>
      <path class="cls-3" d="M31.27,16.1c0,1.77-.31,3.48-.87,5.06H1.8c-.56-1.58-.87-3.29-.87-5.06s.3-3.47.87-5.06h28.6c.57,1.58.87,3.29.87,5.06Z"/>
    </g>
    <g>
      <path class="cls-2" d="M19.11,13.48c-.01-.25-.02-.48-.03-.7l-.05-1.73-.1-3.12H6.15l-.1,3.12-.05,1.73c0,.22-.02.45-.03.7-.1,2.15-.24,5.05,2.15,7.69.12.13.25.27.39.4h.01s.29.26.29.26c.95.81,2,1.53,3.11,2.12l.62.33.62-.33c1.11-.59,2.15-1.3,3.11-2.12l.29-.25h.01c.14-.15.27-.28.39-.42,2.39-2.63,2.25-5.54,2.15-7.69ZM17.42,19.61c-.32.52-.73,1.04-1.25,1.55h0s-.28.23-.28.23c-.92.79-1.93,1.47-3,2.05l-.35.19-.36-.19c-1.07-.58-2.08-1.26-3-2.05l-.28-.23h0c-.51-.51-.92-1.03-1.24-1.55-1.49-2.42-1.15-4.97-1.09-6.82l.05-1.75.08-2.55h11.68l.08,2.55.06,1.75c.05,1.85.4,4.39-1.09,6.82Z"/>
      <path class="cls-1" d="M18.51,12.79c.06,1.85.41,4.39-1.09,6.82-1.34-2.04-2.5-.8-2.95-.35-.51-.99-1.02-1.41-1.39-1.58v-2.42c1.06.03,2.11.14,3.16.34v-1.8c-1.04.2-2.1.31-3.16.34v-1.64c.84.03,1.67.15,2.48.34v-1.8c-.8.19-1.62.3-2.44.33.04-.75.12-1.5.24-2.24h-1.66c.12.75.2,1.49.24,2.24-.82-.03-1.64-.15-2.44-.33v1.8c.82-.19,1.65-.3,2.48-.34,0,.11,0,.21,0,.32v1.33c-1.06-.03-2.12-.14-3.16-.34v1.8c1.04-.2,2.1-.31,3.16-.34v2.42c-.37.17-.88.59-1.39,1.58-.45-.45-1.61-1.69-2.95.35-1.49-2.42-1.15-4.97-1.09-6.82l.13-4.29h11.68l.13,4.29Z"/>
      <path class="cls-2" d="M16.24,13.8v1.8c-1.04-.2-2.1-.31-3.16-.34v2.42c-.21-.1-.38-.12-.47-.12h-.15c-.09,0-.26.02-.47.12h0v-2.42c-1.06.03-2.12.14-3.16.34v-1.8c1.04.2,2.1.31,3.16.34v-1.33c0-.11,0-.21,0-.32-.83.03-1.67.15-2.48.34v-1.8c.8.19,1.62.3,2.44.33-.04-.75-.13-1.5-.24-2.24h1.66c-.12.75-.19,1.49-.24,2.24.82-.04,1.64-.15,2.44-.33v1.8c-.81-.19-1.64-.3-2.48-.34v1.64c1.06-.03,2.11-.14,3.16-.34Z"/>
      <path class="cls-3" d="M14.47,19.26c-.51-.99-1.02-1.41-1.39-1.58-.21-.1-.38-.12-.47-.12h-.15c-.09,0-.26.02-.47.12h0c-.37.17-.88.59-1.39,1.58-.45-.45-1.61-1.69-2.95.35.32.52.73,1.04,1.24,1.55l.28.23c.92.79,1.93,1.47,3,2.05l.36.19.35-.19c1.07-.58,2.08-1.26,3-2.05l.28-.23c.51-.51.92-1.02,1.25-1.55-1.34-2.04-2.5-.8-2.95-.35Z"/>
    </g>
  </g>
  <circle class="cls-4" cx="16.1" cy="16.1" r="15.6"/>
</svg>