<?xml version="1.0" encoding="UTF-8"?>
<svg id="Layer_1" xmlns="http://www.w3.org/2000/svg" viewBox="0 0 32.2 32.2">
  <defs>
    <style>
      .cls-1 {
        fill: #fcdb19;
      }

      .cls-2 {
        fill: #fff;
      }

      .cls-3 {
        fill: #055da3;
      }

      .cls-4 {
        fill: #ec1c24;
      }

      .cls-5 {
        fill: none;
        stroke: #114b63;
        stroke-miterlimit: 10;
      }
    </style>
  </defs>
  <g>
    <g>
      <path class="cls-2" d="M30.4,11.04H1.8C3.88,5.16,9.51.93,16.1.93s12.21,4.23,14.3,10.11Z"/>
      <path class="cls-4" d="M30.4,21.16c-2.08,5.88-7.71,10.11-14.3,10.11S3.89,27.05,1.8,21.16h28.6Z"/>
      <path class="cls-3" d="M31.27,16.1c0,1.77-.31,3.48-.87,5.06H1.8c-.56-1.58-.87-3.29-.87-5.06s.3-3.47.87-5.06h28.6c.57,1.58.87,3.29.87,5.06Z"/>
    </g>
    <g>
      <path class="cls-2" d="M11.46,13.36c.49,0,.49-.25.97-.25s.49.25.97.25c.36,0,.45-.13.67-.2-.05.12-.12.23-.19.35-.12.06-.24.12-.48.12-.49,0-.49-.25-.97-.25s-.49.25-.97.25-.49-.25-.97-.25-.49.25-.97.25c-.23,0-.36-.06-.47-.12-.07-.12-.14-.24-.19-.36.22.07.31.2.67.2.49,0,.49-.25.97-.25s.49.25.97.25Z"/>
      <path class="cls-2" d="M11.46,13.91c.49,0,.49-.25.97-.25s.49.25.97.25c.09,0,.17-.01.23-.02-.45.6-1.13,1.2-2.18,1.58-1.05-.37-1.73-.97-2.18-1.58.06.02.14.02.23.02.49,0,.49-.25.97-.25s.49.25.97.25Z"/>
      <path class="cls-2" d="M12.44,12.85c-.49,0-.49.25-.97.25s-.49-.25-.97-.25-.49.25-.97.25c-.42,0-.48-.19-.8-.23-.12-.3-.19-.56-.22-.74l1.51-1.99.59.81.87-1.74.88,1.74.59-.81,1.51,1.99c-.04.18-.1.44-.22.74h0c-.32.05-.38.23-.8.23-.49,0-.49-.25-.97-.25Z"/>
      <path class="cls-3" d="M13.39,6.09c-1.27-.25-2.58-.25-3.85,0-.9.17-1.47.41-1.76.55l.02.26.31,4.15.06.82c.01.12.29,2.88,3.3,3.89,3.01-1.01,3.29-3.78,3.3-3.89l.06-.82.31-4.15.02-.25h0c-.29-.15-.87-.38-1.76-.56ZM12.27,6.55l.2.02.04-.09.05-.1.05.11.03.07.2-.02-.12.17.12.16-.2-.02-.08.19-.09-.19-.2.02.12-.16-.12-.17ZM11.18,8.01l.2.02.09-.19.08.19.2-.02-.12.16.12.17-.2-.02-.08.19-.09-.19-.2.02.12-.17-.12-.16ZM10.08,6.55l.2.02.03-.07.05-.11.05.1.04.09.2-.02-.12.17.12.16-.2-.02-.09.19-.08-.19-.2.02.12-.16-.12-.17ZM11.47,15.46c-1.05-.37-1.73-.97-2.18-1.58.06.02.14.02.23.02.49,0,.49-.25.97-.25s.49.25.97.25.49-.25.97-.25.49.25.97.25c.09,0,.17,0,.23-.02-.45.6-1.13,1.2-2.18,1.58ZM13.89,13.51c-.12.06-.24.12-.48.12-.49,0-.49-.25-.97-.25s-.49.25-.97.25-.49-.25-.97-.25-.49.25-.97.25c-.23,0-.36-.06-.47-.12-.07-.12-.14-.24-.19-.36.21.07.31.21.66.21.49,0,.49-.25.97-.25s.49.25.97.25.49-.25.97-.25.49.25.97.25c.36,0,.45-.14.67-.21-.06.12-.12.23-.19.35ZM14.44,12.12c-.03.18-.11.44-.22.74h0c-.32.05-.38.23-.8.23-.49,0-.49-.25-.97-.25s-.49.25-.97.25-.49-.25-.97-.25-.49.25-.97.25c-.42,0-.48-.19-.8-.23-.12-.3-.19-.56-.22-.74l.81-1.07.69-.92.59.81.87-1.74.88,1.74.59-.81.69.92.81,1.07Z"/>
      <polygon class="cls-1" points="12.48 6.86 12.27 6.88 12.39 6.72 12.27 6.55 12.48 6.57 12.51 6.49 12.52 6.49 12.56 6.38 12.61 6.5 12.61 6.5 12.64 6.57 12.85 6.55 12.72 6.72 12.85 6.88 12.64 6.86 12.56 7.05 12.48 6.86"/>
      <polygon class="cls-1" points="11.55 8.03 11.75 8.01 11.63 8.18 11.75 8.34 11.55 8.32 11.47 8.51 11.38 8.32 11.18 8.34 11.3 8.18 11.18 8.01 11.38 8.03 11.47 7.85 11.55 8.03"/>
      <polygon class="cls-1" points="10.46 6.86 10.37 7.05 10.29 6.86 10.08 6.88 10.21 6.72 10.08 6.55 10.29 6.57 10.32 6.5 10.37 6.38 10.42 6.49 10.46 6.57 10.66 6.55 10.54 6.72 10.66 6.88 10.46 6.86"/>
      <path class="cls-4" d="M15,11.89s-.26,3.06-3.53,4.12c-3.27-1.06-3.53-4.12-3.53-4.12l-.38-5.12s.07-.05.23-.12l.02.25.37,4.97c.01.12.29,2.88,3.3,3.89,3-1.01,3.29-3.77,3.3-3.89l.37-4.97.02-.25h0c.15.07.22.12.22.12l-.38,5.12Z"/>
    </g>
  </g>
  <circle class="cls-5" cx="16.1" cy="16.1" r="15.6"/>
</svg>