<?xml version="1.0" encoding="UTF-8"?>
<svg id="Layer_1" xmlns="http://www.w3.org/2000/svg" viewBox="0 0 32.2 32.2">
  <defs>
    <style>
      .cls-1 {
        fill: #fecc00;
      }

      .cls-2 {
        fill: #006aa7;
      }

      .cls-3 {
        fill: none;
        stroke: #114b63;
        stroke-miterlimit: 10;
      }
    </style>
  </defs>
  <g>
    <path class="cls-2" d="M31.27,16.1c0,1.04-.11,2.05-.3,3.03-1.41,6.92-7.54,12.14-14.87,12.14-.46,0-.91-.02-1.36-.06-2.19-.19-4.24-.85-6.07-1.89-3.77-2.12-6.54-5.82-7.44-10.19-.2-.98-.3-2-.3-3.03s.11-2.05.3-3.03c.89-4.37,3.67-8.06,7.44-10.19,1.83-1.03,3.88-1.69,6.07-1.89.45-.04.9-.06,1.36-.06,7.33,0,13.46,5.22,14.87,12.14.2.98.3,2,.3,3.03Z"/>
    <path class="cls-1" d="M31.27,16.1c0,1.04-.11,2.05-.3,3.03H14.74v12.07c-2.19-.19-4.24-.85-6.07-1.89v-10.19H1.24c-.2-.98-.3-2-.3-3.03s.11-2.05.3-3.03h7.44V2.88c1.83-1.03,3.88-1.69,6.07-1.89v12.07h16.23c.2.98.3,2,.3,3.03Z"/>
  </g>
  <circle class="cls-3" cx="16.1" cy="16.1" r="15.6"/>
</svg>