<?xml version="1.0" encoding="UTF-8"?>
<svg id="Layer_1" xmlns="http://www.w3.org/2000/svg" viewBox="0 0 32.2 32.2">
  <defs>
    <style>
      .cls-1 {
        fill: #04247b;
      }

      .cls-2 {
        fill: #fff;
      }

      .cls-3 {
        fill: #ce152a;
      }

      .cls-4 {
        fill: none;
        stroke: #114b63;
        stroke-miterlimit: 10;
      }
    </style>
  </defs>
  <g>
    <path class="cls-1" d="M11.05,1.79v8.39l-6.89-3.45c1.77-2.24,4.14-3.98,6.89-4.94Z"/>
    <path class="cls-1" d="M28.04,6.74l-6.89,3.45V1.79c2.74.97,5.12,2.7,6.89,4.94Z"/>
    <path class="cls-1" d="M11.05,22.02v8.39c-2.74-.97-5.12-2.7-6.89-4.94l6.89-3.44Z"/>
    <path class="cls-1" d="M28.04,25.47c-1.76,2.24-4.14,3.98-6.89,4.94v-8.39l6.89,3.44Z"/>
    <path class="cls-2" d="M31.28,16.1c0,1.04-.11,2.05-.3,3.03-.14.69-.33,1.36-.56,2.02h-4.25l3.5,1.75c-.46.91-1,1.77-1.63,2.56l-6.89-3.44v8.39c-.65.23-1.32.42-2.01.56-.98.2-2,.31-3.04.31s-2.05-.11-3.03-.31c-.69-.14-1.36-.33-2.02-.56v-8.39l-6.89,3.44c-.21-.27-.42-.55-.61-.83l6.96-3.48h-4.54l-3.46,1.73c-.59-1.17-1.02-2.43-1.29-3.75-.2-.98-.31-2-.31-3.03s.11-2.06.31-3.04c.14-.69.33-1.36.56-2.02h4.22l-3.48-1.74c.46-.92,1.01-1.78,1.63-2.57l6.89,3.45V1.79c.65-.23,1.32-.42,2.02-.56.98-.2,2-.31,3.03-.31s2.06.11,3.04.31c.69.14,1.36.33,2.01.56v8.39l6.89-3.45c.21.27.41.54.6.82l-6.98,3.49h4.54l3.48-1.74c.59,1.17,1.04,2.43,1.3,3.76.2.98.3,2,.3,3.04Z"/>
    <path class="cls-3" d="M6.01,11.05H1.79c.21-.6.46-1.18.74-1.74l3.48,1.74Z"/>
    <path class="cls-3" d="M30.41,21.15c-.21.6-.46,1.19-.75,1.75l-3.5-1.75h4.25Z"/>
    <path class="cls-3" d="M29.67,9.31l-3.48,1.74h-4.54l6.98-3.49c.38.56.73,1.14,1.03,1.75Z"/>
    <path class="cls-3" d="M10.52,21.15l-6.96,3.48c-.38-.56-.73-1.14-1.03-1.75l3.46-1.73h4.54Z"/>
    <path class="cls-3" d="M31.28,16.1c0,1.04-.11,2.05-.3,3.03h-11.84v11.84c-.98.2-2,.31-3.04.31s-2.05-.11-3.03-.31v-11.84H1.23c-.2-.98-.31-2-.31-3.03s.11-2.06.31-3.04h11.84V1.23c.98-.2,2-.31,3.03-.31s2.06.11,3.04.31v11.84h11.84c.2.98.3,2,.3,3.04Z"/>
  </g>
  <circle class="cls-4" cx="16.1" cy="16.1" r="15.6"/>
</svg>